# Blender 4.0.2
# www.blender.org
o roadway
v -1.000000 0.000000 1.000000
v -1.000000 0.000000 -1.000000
v 1.000000 0.000000 1.000000
v 1.000000 0.000000 -1.000000
v 1.000000 -0.689251 0.000000
v -1.000000 0.000000 0.000000
v -1.000000 -0.689251 0.000000
v 1.000000 0.000000 0.000000
v -1.000000 -1.000000 0.689251
v -1.000000 -0.689251 1.000000
v -1.000000 -1.000000 -0.689251
v -1.000000 -0.689251 -1.000000
v 1.000000 -1.000000 0.689251
v 1.000000 -0.689251 1.000000
v 1.000000 -1.000000 -0.689251
v 1.000000 -0.689251 -1.000000
v -1.000000 -1.000000 -0.310749
v -1.000000 -1.000000 0.310749
v 1.000000 -1.000000 0.310749
v 1.000000 -1.000000 -0.310749
vn 1.0000 -0.0000 -0.0000
vn -0.0000 -1.0000 -0.0000
vn -0.0000 -0.0000 -1.0000
vn -0.0000 1.0000 -0.0000
vn -1.0000 -0.0000 -0.0000
vn -0.0000 -0.7071 -0.7071
vn -0.0000 -0.0000 1.0000
vn -0.0000 -0.7071 0.7071
vt 0.452687 0.625000
vt 0.589934 0.625000
vt 0.589934 0.750000
vt 0.452687 0.750000
vt 0.038709 1.000084
vt 0.038709 0.749646
vt 0.086022 0.749646
vt 0.086022 1.000084
vt 0.452687 0.500000
vt 0.589934 0.500000
vt 0.163709 1.000084
vt 0.163709 0.749646
vt 0.211022 0.749646
vt 0.211022 1.000084
vt 0.375000 1.000000
vt 0.499562 1.000000
vt 0.499562 0.750000
vt 0.375000 0.750000
vt 0.625000 0.625000
vt 0.875000 0.625000
vt 0.875000 0.750000
vt 0.625000 0.750000
vt 0.625000 0.500000
vt 0.875000 0.500000
vt 0.515187 0.125000
vt 0.625000 0.125000
vt 0.625000 0.250000
vt 0.515187 0.250000
vt 0.125024 1.000084
vt 0.125024 0.749646
vt 0.249562 1.000000
vt 0.249562 0.750000
vt 0.663910 0.163692
vt 0.663910 0.211005
vt 0.625066 0.249848
vt 0.625066 0.124848
vt -0.000135 1.000354
vt -0.000135 0.749865
vt 0.385372 0.586156
vt 0.385372 0.538844
vt 0.249865 0.750432
vt 0.249865 1.000354
vt 0.663910 0.038692
vt 0.663910 0.086005
vt 0.625066 -0.000152
vt 0.386602 0.711156
vt 0.386602 0.663844
vt 0.515187 0.000000
vt 0.625000 0.000000
s 0
f 5/1/1 8/2/1 3/3/1 14/4/1
f 11/5/2 15/6/2 20/7/2 17/8/2
f 16/9/1 4/10/1 8/2/1 5/1/1
f 18/11/2 19/12/2 13/13/2 9/14/2
f 12/15/3 2/16/3 4/17/3 16/18/3
f 8/19/4 6/20/4 1/21/4 3/22/4
f 4/23/4 2/24/4 6/20/4 8/19/4
f 7/25/5 6/26/5 2/27/5 12/28/5
f 19/12/6 18/11/6 7/29/6 5/30/6
f 14/15/7 3/31/7 1/32/7 10/18/7
f 18/33/5 9/34/5 10/35/5 7/36/5
f 15/6/6 11/5/6 12/37/6 16/38/6
f 20/39/1 15/40/1 16/9/1 5/1/1
f 9/14/8 13/13/8 14/41/8 10/42/8
f 11/43/5 17/44/5 7/36/5 12/45/5
f 13/46/1 19/47/1 5/1/1 14/4/1
f 5/30/8 7/29/8 17/8/8 20/7/8
f 10/48/5 1/49/5 6/26/5 7/25/5
