# Blender 4.0.2
# www.blender.org
o tower_block_01_trunk_02
v 1.000000 0.000000 1.000000
v 1.000000 5.000000 1.000000
v -1.000000 0.000000 -1.000000
v -1.000000 5.000000 -1.000000
v 1.000000 0.000000 -1.000000
v 1.000000 5.000000 -1.000000
v 1.000000 3.000000 1.000000
v -1.000000 3.000000 -1.000000
v 1.000000 3.000000 -1.000000
v 1.000000 4.000000 1.000000
v -1.000000 4.000000 -1.000000
v 1.000000 4.000000 -1.000000
v -1.000000 2.000000 -1.000000
v 1.000000 2.000000 -1.000000
v 1.000000 2.000000 1.000000
v -1.000000 1.000000 -1.000000
v 1.000000 1.000000 -1.000000
v 1.000000 1.000000 1.000000
v 0.000000 5.000000 -1.000000
v 1.000000 5.000000 0.000000
v 0.000000 5.000000 0.000000
v 0.000000 0.000000 -1.000000
v 1.000000 0.000000 0.000000
v 0.000000 0.000000 0.000000
vn -0.7071 -0.0000 0.7071
vn -0.0000 -0.0000 -1.0000
vn 1.0000 -0.0000 -0.0000
vn -0.0000 -1.0000 -0.0000
vn -0.0000 1.0000 -0.0000
vt 0.250000 0.750000
vt 0.250000 0.875000
vt 0.000000 0.875000
vt 0.000000 0.750000
vt 0.250000 0.625000
vt 0.125000 0.750000
vt 0.000000 0.625000
vt 0.250000 0.500000
vt 0.125000 0.625000
vt 0.000000 0.625000
vt 0.000000 0.500000
vt 0.875000 0.125000
vt 1.000000 0.125000
vt 0.875000 -0.000000
vt 0.875000 0.125000
vt 0.875000 -0.000000
vt 0.000000 0.750000
vt 0.250000 0.750000
vt 0.250000 0.875000
vt 0.000000 0.875000
vt 0.250000 0.500000
vt 0.250000 0.625000
vt 0.000000 0.625000
vt 0.000000 0.500000
vt 0.000000 0.875000
vt 0.000000 0.750000
vt 0.000000 0.875000
vt 0.125000 0.500000
vt 0.000000 0.500000
vt 1.000000 0.000000
vt 1.000000 -0.000000
vt 0.875000 0.000000
vt 1.000000 -0.000000
vt 1.000000 0.125000
s 0
f 10/1/1 2/2/1 4/3/1 11/4/1
f 11/5/2 4/1/2 19/6/2 6/4/2 12/7/2
f 12/8/3 6/5/3 20/9/3 2/10/3 10/11/3
f 24/12/4 23/13/4 1/14/4
f 21/15/5 4/16/5 2/13/5
f 14/5/3 9/1/3 7/17/3 15/10/3
f 13/18/2 8/19/2 9/20/2 14/4/2
f 15/21/1 7/22/1 8/23/1 13/24/1
f 9/5/3 12/1/3 10/17/3 7/10/3
f 8/22/2 11/1/2 12/4/2 9/7/2
f 7/22/1 10/1/1 11/4/1 8/23/1
f 18/18/1 15/19/1 13/25/1 16/26/1
f 16/18/2 13/19/2 14/20/2 17/4/2
f 17/1/3 14/2/3 15/27/3 18/17/3
f 5/21/3 17/5/3 18/10/3 1/11/3 23/28/3
f 3/8/2 16/22/2 17/7/2 5/29/2 22/28/2
f 1/5/1 18/18/1 16/26/1 3/7/1
f 20/14/5 21/13/5 2/30/5
f 6/31/5 19/13/5 21/15/5 20/32/5
f 19/32/5 4/33/5 21/34/5
f 3/32/5 24/15/5 1/30/5
f 3/30/4 22/32/4 24/15/4
f 22/32/4 5/30/4 23/13/4 24/15/4
