# Blender 4.0.2
# www.blender.org
o tower_cylinder_01_trunk_corner_cap
v 0.000000 1.000000 0.000000
v 0.000000 1.000000 -1.000000
v 0.500000 1.000000 -0.866025
v 0.866025 1.000000 -0.500000
v 1.000000 1.000000 0.000000
v 0.000000 0.000000 -1.000000
v 0.500000 0.000000 -0.866025
v 0.866025 0.000000 -0.500000
v 1.000000 0.000000 0.000000
vn -0.0000 1.0000 -0.0000
vn 0.2588 -0.0000 -0.9659
vn 0.7071 -0.0000 -0.7071
vn 0.9659 -0.0000 -0.2588
vt 0.875000 0.125000
vt 0.935000 0.228923
vt 0.875000 0.245000
vt 0.500000 0.875000
vt 0.500000 1.000000
vt 0.416667 1.000000
vt 0.416667 0.875000
vt 0.978923 0.185000
vt 0.333333 1.000000
vt 0.333333 0.875000
vt 0.995000 0.125000
vt 0.250000 1.000000
vt 0.250000 0.875000
s 0
f 1/1/1 3/2/1 2/3/1
f 6/4/2 2/5/2 3/6/2 7/7/2
f 1/1/1 4/8/1 3/2/1
f 7/7/3 3/6/3 4/9/3 8/10/3
f 1/1/1 5/11/1 4/8/1
f 8/10/4 4/9/4 5/12/4 9/13/4
