# Blender v2.83.4 OBJ File: 'corridor_pieces.blend'
# www.blender.org
mtllib corridor_right_angle_1x1x1.mtl
o corridor_right_angle_Cube.002
v 0.000000 0.000000 1.000000
v 0.000000 1.000000 1.000000
v 0.000000 0.000000 0.000000
v 0.000000 1.000000 0.000000
v 1.000000 0.000000 1.000000
v 1.000000 1.000000 1.000000
v 1.000000 0.000000 0.000000
v 1.000000 1.000000 0.000000
vt 0.375000 0.500000
vt 0.375000 0.750000
vt 0.625000 0.750000
vt 0.625000 0.500000
vt 0.375000 1.000000
vt 0.625000 1.000000
vt 0.125000 0.500000
vt 0.125000 0.750000
vt 0.875000 0.750000
vt 0.875000 0.500000
vn -1.0000 0.0000 0.0000
vn 0.0000 0.0000 -1.0000
vn 0.0000 1.0000 0.0000
vn 0.0000 -1.0000 0.0000
usemtl Material.001
s off
f 7/1/1 5/2/1 6/3/1 8/4/1
f 5/2/2 1/5/2 2/6/2 6/3/2
usemtl Material.002
f 3/7/3 1/8/3 5/2/3 7/1/3
usemtl Material.003
f 8/4/4 6/3/4 2/9/4 4/10/4
