# Blender v2.83.4 OBJ File: 'arena_meshes.blend'
# www.blender.org
o flat_torus_walls.001_Cube.008
v -0.000000 -0.500000 -1.592958
v 0.000000 -0.500000 -1.592958
v -0.000000 0.500000 -1.592958
v 0.000000 0.500000 -1.592958
v -0.591812 -0.500000 -1.475239
v -1.093526 -0.500000 -1.140005
v -1.428760 -0.500000 -0.638291
v -1.546479 -0.500000 -0.046479
v -1.428760 -0.500000 0.545333
v -1.093526 -0.500000 1.047047
v -0.591812 -0.500000 1.382281
v -0.000000 -0.500000 1.500000
v 0.591812 -0.500000 1.382281
v 1.093526 -0.500000 1.047047
v 1.428760 -0.500000 0.545333
v 1.546479 -0.500000 -0.046479
v 1.428760 -0.500000 -0.638291
v 1.093526 -0.500000 -1.140005
v 0.591812 -0.500000 -1.475239
v -0.591812 0.500000 -1.475239
v -1.093526 0.500000 -1.140005
v -1.428760 0.500000 -0.638291
v -1.546479 0.500000 -0.046479
v -1.428760 0.500000 0.545333
v -1.093526 0.500000 1.047047
v -0.591812 0.500000 1.382281
v 0.000000 0.500000 1.500000
v 0.591812 0.500000 1.382281
v 1.093526 0.500000 1.047047
v 1.428760 0.500000 0.545333
v 1.546479 0.500000 -0.046479
v 1.428760 0.500000 -0.638291
v 1.093526 0.500000 -1.140005
v 0.591812 0.500000 -1.475239
vt 0.248999 0.001001
vt 0.001001 0.001001
vt 0.001001 0.248999
vt 0.248999 0.248999
vt 0.248999 0.251001
vt 0.001001 0.251001
vt 0.001001 0.498999
vt 0.248999 0.498999
vt 0.498999 0.001001
vt 0.251001 0.001001
vt 0.251001 0.248999
vt 0.498999 0.248999
vt 0.498999 0.251001
vt 0.251001 0.251001
vt 0.251001 0.498999
vt 0.498999 0.498999
vt 0.248999 0.501001
vt 0.001001 0.501001
vt 0.001001 0.748999
vt 0.248999 0.748999
vt 0.748999 0.001001
vt 0.501001 0.001001
vt 0.501001 0.248999
vt 0.748999 0.248999
vt 0.748999 0.251001
vt 0.501001 0.251001
vt 0.501001 0.498999
vt 0.748999 0.498999
vt 0.498999 0.501001
vt 0.251001 0.501001
vt 0.251001 0.748999
vt 0.498999 0.748999
vt 0.748999 0.501001
vt 0.501001 0.501001
vt 0.501001 0.748999
vt 0.748999 0.748999
vt 0.248999 0.751001
vt 0.001001 0.751001
vt 0.001001 0.998999
vt 0.248999 0.998999
vt 0.998999 0.001001
vt 0.751001 0.001001
vt 0.751001 0.248999
vt 0.998999 0.248999
vt 0.498999 0.751001
vt 0.251001 0.751001
vt 0.251001 0.998999
vt 0.498999 0.998999
vt 0.998999 0.251001
vt 0.751001 0.251001
vt 0.751001 0.498999
vt 0.998999 0.498999
vt 0.748999 0.751001
vt 0.501001 0.751001
vt 0.501001 0.998999
vt 0.748999 0.998999
vt 0.998999 0.501001
vt 0.751001 0.501001
vt 0.751001 0.748999
vt 0.998999 0.748999
vt 0.998999 0.751001
vt 0.751001 0.751001
vt 0.751001 0.998999
vt 0.998999 0.998999
vn 0.1951 -0.0000 0.9808
vn -0.1951 0.0000 0.9808
vn -0.5556 0.0000 0.8315
vn -0.8315 0.0000 0.5556
vn -0.9808 0.0000 0.1951
vn -0.9808 0.0000 -0.1951
vn -0.8315 0.0000 -0.5556
vn -0.5556 0.0000 -0.8315
vn -0.1951 0.0000 -0.9808
vn 0.1951 -0.0000 -0.9808
vn 0.5556 -0.0000 -0.8315
vn 0.8315 0.0000 -0.5556
vn 0.9808 0.0000 -0.1951
vn 0.9808 0.0000 0.1951
vn 0.8315 0.0000 0.5556
vn 0.5556 -0.0000 0.8315
s off
f 5/1/1 2/2/1 4/3/1 20/4/1
f 1/5/2 19/6/2 34/7/2 3/8/2
f 19/9/3 18/10/3 33/11/3 34/12/3
f 18/13/4 17/14/4 32/15/4 33/16/4
f 17/17/5 16/18/5 31/19/5 32/20/5
f 16/21/6 15/22/6 30/23/6 31/24/6
f 15/25/7 14/26/7 29/27/7 30/28/7
f 14/29/8 13/30/8 28/31/8 29/32/8
f 13/33/9 12/34/9 27/35/9 28/36/9
f 12/37/10 11/38/10 26/39/10 27/40/10
f 11/41/11 10/42/11 25/43/11 26/44/11
f 10/45/12 9/46/12 24/47/12 25/48/12
f 9/49/13 8/50/13 23/51/13 24/52/13
f 8/53/14 7/54/14 22/55/14 23/56/14
f 7/57/15 6/58/15 21/59/15 22/60/15
f 6/61/16 5/62/16 20/63/16 21/64/16
