# Blender v2.83.4 OBJ File: 'arena_meshes.blend'
# www.blender.org
o flat_torus.001_Cube.006
v -0.000000 -0.500000 -4.092958
v 0.000000 -0.500000 -4.092958
v -0.000000 -0.500000 -2.592958
v 0.000000 -0.500000 -2.592958
v -0.000000 0.500000 -4.092958
v 0.000000 0.500000 -4.092958
v -0.000000 0.500000 -2.592958
v 0.000000 0.500000 -2.592958
v 1.548520 -0.500000 -3.784939
v 2.861293 -0.500000 -2.907772
v 3.738459 -0.500000 -1.595000
v 4.046479 -0.500000 -0.046479
v 3.738459 -0.500000 1.502042
v 2.861293 -0.500000 2.814814
v 1.548521 -0.500000 3.691980
v -0.000000 -0.500000 4.000000
v -1.548521 -0.500000 3.691980
v -2.861293 -0.500000 2.814814
v -3.738459 -0.500000 1.502042
v -4.046479 -0.500000 -0.046479
v -3.738459 -0.500000 -1.595000
v -2.861293 -0.500000 -2.907772
v -1.548520 -0.500000 -3.784939
v -0.974495 -0.500000 -2.399119
v -1.800632 -0.500000 -1.847112
v -2.352640 -0.500000 -1.020975
v -2.546479 -0.500000 -0.046479
v -2.352640 -0.500000 0.928016
v -1.800632 -0.500000 1.754153
v -0.974495 -0.500000 2.306161
v -0.000000 -0.500000 2.500000
v 0.974495 -0.500000 2.306161
v 1.800632 -0.500000 1.754153
v 2.352640 -0.500000 0.928016
v 2.546479 -0.500000 -0.046479
v 2.352640 -0.500000 -1.020975
v 1.800632 -0.500000 -1.847112
v 0.974495 -0.500000 -2.399119
v -0.974495 0.500000 -2.399119
v -1.800632 0.500000 -1.847112
v -2.352640 0.500000 -1.020975
v -2.546479 0.500000 -0.046479
v -2.352640 0.500000 0.928016
v -1.800632 0.500000 1.754153
v -0.974495 0.500000 2.306161
v 0.000000 0.500000 2.500000
v 0.974495 0.500000 2.306161
v 1.800632 0.500000 1.754153
v 2.352640 0.500000 0.928016
v 2.546479 0.500000 -0.046479
v 2.352640 0.500000 -1.020975
v 1.800632 0.500000 -1.847112
v 0.974495 0.500000 -2.399119
v -1.548520 0.500000 -3.784939
v -2.861293 0.500000 -2.907772
v -3.738459 0.500000 -1.595000
v -4.046479 0.500000 -0.046479
v -3.738459 0.500000 1.502042
v -2.861293 0.500000 2.814814
v -1.548521 0.500000 3.691980
v 0.000000 0.500000 4.000000
v 1.548521 0.500000 3.691980
v 2.861293 0.500000 2.814814
v 3.738459 0.500000 1.502042
v 4.046479 0.500000 -0.046479
v 3.738459 0.500000 -1.595000
v 2.861293 0.500000 -2.907772
v 1.548520 0.500000 -3.784939
vt 0.609375 0.000000
vt 0.625000 0.000000
vt 0.625000 0.250000
vt 0.609375 0.250000
vt 0.625000 0.500000
vt 0.609375 0.500000
vt 0.625000 0.750000
vt 0.609375 0.750000
vt 0.625000 1.000000
vt 0.609375 1.000000
vt 0.375000 0.750000
vt 0.390625 0.750000
vt 0.390625 1.000000
vt 0.375000 1.000000
vt 0.406250 0.750000
vt 0.406250 1.000000
vt 0.421875 0.750000
vt 0.421875 1.000000
vt 0.437500 0.750000
vt 0.437500 1.000000
vt 0.453125 0.750000
vt 0.453125 1.000000
vt 0.468750 0.750000
vt 0.468750 1.000000
vt 0.484375 0.750000
vt 0.484375 1.000000
vt 0.500000 0.750000
vt 0.500000 1.000000
vt 0.515625 0.750000
vt 0.515625 1.000000
vt 0.531250 0.750000
vt 0.531250 1.000000
vt 0.546875 0.750000
vt 0.546875 1.000000
vt 0.562500 0.750000
vt 0.562500 1.000000
vt 0.578125 0.750000
vt 0.578125 1.000000
vt 0.593750 0.750000
vt 0.593750 1.000000
vt 0.375000 0.500000
vt 0.390625 0.500000
vt 0.406250 0.500000
vt 0.421875 0.500000
vt 0.437500 0.500000
vt 0.453125 0.500000
vt 0.468750 0.500000
vt 0.484375 0.500000
vt 0.500000 0.500000
vt 0.515625 0.500000
vt 0.531250 0.500000
vt 0.546875 0.500000
vt 0.562500 0.500000
vt 0.578125 0.500000
vt 0.593750 0.500000
vt 0.375000 0.250000
vt 0.390625 0.250000
vt 0.406250 0.250000
vt 0.421875 0.250000
vt 0.437500 0.250000
vt 0.453125 0.250000
vt 0.468750 0.250000
vt 0.484375 0.250000
vt 0.500000 0.250000
vt 0.515625 0.250000
vt 0.531250 0.250000
vt 0.546875 0.250000
vt 0.562500 0.250000
vt 0.578125 0.250000
vt 0.593750 0.250000
vt 0.375000 0.000000
vt 0.390625 0.000000
vt 0.406250 0.000000
vt 0.421875 0.000000
vt 0.437500 0.000000
vt 0.453125 0.000000
vt 0.468750 0.000000
vt 0.484375 0.000000
vt 0.500000 0.000000
vt 0.515625 0.000000
vt 0.531250 0.000000
vt 0.546875 0.000000
vt 0.562500 0.000000
vt 0.578125 0.000000
vt 0.593750 0.000000
vn -0.0000 -1.0000 0.0000
vn 0.1951 -0.0000 0.9808
vn 0.0000 1.0000 0.0000
vn -0.1951 0.0000 -0.9808
vn 0.1951 0.0000 -0.9808
vn 0.5556 0.0000 -0.8315
vn 0.8315 0.0000 -0.5556
vn 0.9808 0.0000 -0.1951
vn 0.9808 0.0000 0.1951
vn 0.8315 0.0000 0.5556
vn 0.5556 0.0000 0.8315
vn -0.1951 0.0000 0.9808
vn -0.5556 0.0000 0.8315
vn -0.8315 0.0000 0.5556
vn -0.9808 0.0000 0.1951
vn -0.9808 0.0000 -0.1951
vn -0.8315 0.0000 -0.5556
vn -0.5556 0.0000 -0.8315
s off
f 23/1/1 2/2/1 4/3/1 24/4/1
f 24/4/2 4/3/2 8/5/2 39/6/2
f 39/6/3 8/5/3 6/7/3 54/8/3
f 54/8/4 6/7/4 2/9/4 23/10/4
f 5/11/5 68/12/5 9/13/5 1/14/5
f 68/12/6 67/15/6 10/16/6 9/13/6
f 67/15/7 66/17/7 11/18/7 10/16/7
f 66/17/8 65/19/8 12/20/8 11/18/8
f 65/19/9 64/21/9 13/22/9 12/20/9
f 64/21/10 63/23/10 14/24/10 13/22/10
f 63/23/11 62/25/11 15/26/11 14/24/11
f 62/25/2 61/27/2 16/28/2 15/26/2
f 61/27/12 60/29/12 17/30/12 16/28/12
f 60/29/13 59/31/13 18/32/13 17/30/13
f 59/31/14 58/33/14 19/34/14 18/32/14
f 58/33/15 57/35/15 20/36/15 19/34/15
f 57/35/16 56/37/16 21/38/16 20/36/16
f 56/37/17 55/39/17 22/40/17 21/38/17
f 55/39/18 54/8/18 23/10/18 22/40/18
f 7/41/3 53/42/3 68/12/3 5/11/3
f 53/42/3 52/43/3 67/15/3 68/12/3
f 52/43/3 51/44/3 66/17/3 67/15/3
f 51/44/3 50/45/3 65/19/3 66/17/3
f 50/45/3 49/46/3 64/21/3 65/19/3
f 49/46/3 48/47/3 63/23/3 64/21/3
f 48/47/3 47/48/3 62/25/3 63/23/3
f 47/48/3 46/49/3 61/27/3 62/25/3
f 46/49/3 45/50/3 60/29/3 61/27/3
f 45/50/3 44/51/3 59/31/3 60/29/3
f 44/51/3 43/52/3 58/33/3 59/31/3
f 43/52/3 42/53/3 57/35/3 58/33/3
f 42/53/3 41/54/3 56/37/3 57/35/3
f 41/54/3 40/55/3 55/39/3 56/37/3
f 40/55/3 39/6/3 54/8/3 55/39/3
f 3/56/12 38/57/12 53/42/12 7/41/12
f 38/57/13 37/58/13 52/43/13 53/42/13
f 37/58/14 36/59/14 51/44/14 52/43/14
f 36/59/15 35/60/15 50/45/15 51/44/15
f 35/60/16 34/61/16 49/46/16 50/45/16
f 34/61/17 33/62/17 48/47/17 49/46/17
f 33/62/18 32/63/18 47/48/18 48/47/18
f 32/63/4 31/64/4 46/49/4 47/48/4
f 31/64/5 30/65/5 45/50/5 46/49/5
f 30/65/6 29/66/6 44/51/6 45/50/6
f 29/66/7 28/67/7 43/52/7 44/51/7
f 28/67/8 27/68/8 42/53/8 43/52/8
f 27/68/9 26/69/9 41/54/9 42/53/9
f 26/69/10 25/70/10 40/55/10 41/54/10
f 25/70/11 24/4/11 39/6/11 40/55/11
f 1/71/1 9/72/1 38/57/1 3/56/1
f 9/72/1 10/73/1 37/58/1 38/57/1
f 10/73/1 11/74/1 36/59/1 37/58/1
f 11/74/1 12/75/1 35/60/1 36/59/1
f 12/75/1 13/76/1 34/61/1 35/60/1
f 13/76/1 14/77/1 33/62/1 34/61/1
f 14/77/1 15/78/1 32/63/1 33/62/1
f 15/78/1 16/79/1 31/64/1 32/63/1
f 16/79/1 17/80/1 30/65/1 31/64/1
f 17/80/1 18/81/1 29/66/1 30/65/1
f 18/81/1 19/82/1 28/67/1 29/66/1
f 19/82/1 20/83/1 27/68/1 28/67/1
f 20/83/1 21/84/1 26/69/1 27/68/1
f 21/84/1 22/85/1 25/70/1 26/69/1
f 22/85/1 23/1/1 24/4/1 25/70/1
