# Blender v2.83.4 OBJ File: 'more_primitives.blend'
# www.blender.org
o Cylinder
v -0.191342 0.000000 -0.461940
v -0.191342 1.000000 -0.461940
v 0.191342 0.000000 -0.461940
v 0.191342 1.000000 -0.461940
v 0.461940 0.000000 -0.191342
v 0.461940 1.000000 -0.191342
v 0.461940 0.000000 0.191342
v 0.461940 1.000000 0.191342
v 0.191342 0.000000 0.461940
v 0.191342 1.000000 0.461940
v -0.191342 0.000000 0.461940
v -0.191342 1.000000 0.461940
v -0.461940 0.000000 0.191342
v -0.461940 1.000000 0.191342
v -0.461940 0.000000 -0.191342
v -0.461940 1.000000 -0.191342
v -0.461940 0.000000 0.000000
v -0.461940 1.000000 0.000000
v -0.326641 0.000000 -0.326641
v -0.326641 1.000000 -0.326641
vt 1.000000 0.500000
vt 1.000000 1.000000
vt 0.875000 1.000000
vt 0.875000 0.500000
vt 0.750000 1.000000
vt 0.750000 0.500000
vt 0.625000 1.000000
vt 0.625000 0.500000
vt 0.500000 1.000000
vt 0.500000 0.500000
vt 0.375000 1.000000
vt 0.375000 0.500000
vt 0.250000 1.000000
vt 0.250000 0.500000
vt 0.419706 0.419706
vt 0.250000 0.490000
vt 0.165147 0.454853
vt 0.080294 0.419706
vt 0.045147 0.334853
vt 0.010000 0.250000
vt 0.080294 0.080294
vt 0.250000 0.010000
vt 0.419706 0.080294
vt 0.490000 0.250000
vt 0.187500 0.500000
vt 0.187500 1.000000
vt 0.125000 1.000000
vt 0.125000 0.500000
vt 0.062500 0.500000
vt 0.062500 1.000000
vt 0.000000 1.000000
vt 0.000000 0.500000
vt 0.750000 0.490000
vt 0.919706 0.419706
vt 0.990000 0.250000
vt 0.919706 0.080294
vt 0.750000 0.010000
vt 0.580294 0.080294
vt 0.510000 0.250000
vt 0.545147 0.334853
vt 0.580294 0.419706
vt 0.665147 0.454853
vn 0.0000 0.0000 -1.0000
vn 0.7071 0.0000 -0.7071
vn 1.0000 0.0000 0.0000
vn 0.7071 0.0000 0.7071
vn -0.0000 0.0000 1.0000
vn -0.7071 0.0000 0.7071
vn 0.0000 1.0000 0.0000
vn -1.0000 0.0000 0.0000
vn -0.7071 0.0000 -0.7071
vn 0.0000 -1.0000 0.0000
s off
f 1/1/1 2/2/1 4/3/1 3/4/1
f 3/4/2 4/3/2 6/5/2 5/6/2
f 5/6/3 6/5/3 8/7/3 7/8/3
f 7/8/4 8/7/4 10/9/4 9/10/4
f 9/10/5 10/9/5 12/11/5 11/12/5
f 11/12/6 12/11/6 14/13/6 13/14/6
f 4/15/7 2/16/7 20/17/7 16/18/7 18/19/7 14/20/7 12/21/7 10/22/7 8/23/7 6/24/7
f 17/25/8 18/26/8 16/27/8 15/28/8
f 19/29/9 20/30/9 2/31/9 1/32/9
f 1/33/10 3/34/10 5/35/10 7/36/10 9/37/10 11/38/10 13/39/10 17/40/10 15/41/10 19/42/10
f 13/14/8 14/13/8 18/26/8 17/25/8
f 15/28/9 16/27/9 20/30/9 19/29/9
