# Blender v2.83.4 OBJ File: 'props.blend'
# www.blender.org
o Cube
v 0.252952 0.000000 0.483479
v 0.219774 -0.046907 0.447186
v 0.252952 0.000000 0.313822
v 0.197793 -0.091190 0.317558
v 0.162907 -0.539954 0.349400
v -0.000867 -0.112833 0.279744
v 0.252952 0.000000 0.398650
v 0.197793 -0.091190 0.349400
v 0.120597 -0.112833 0.279744
v -0.001050 0.000000 0.483479
v -0.000867 -0.046907 0.447186
v -0.000867 -0.046907 0.295576
v -0.001050 0.000000 0.313822
v -0.000867 -0.046907 0.371381
v -0.001050 0.000000 0.398650
v 0.140926 -0.046907 0.447186
v 0.157423 0.000000 0.313822
v 0.157423 0.000000 0.398650
v 0.197793 -0.575409 0.317558
v 0.157423 0.000000 0.483479
v 0.162907 -0.091190 0.317558
v 0.162907 -0.539954 0.317558
v 0.162907 -0.091190 0.349400
v 0.197793 -0.575409 0.349400
v 0.219774 -0.046907 0.371381
v 0.219774 -0.046907 0.295576
v 0.197793 -0.539954 0.317558
v 0.162907 -0.575409 0.349400
v 0.140926 -0.046907 0.295576
v 0.197793 -0.539954 0.349400
v 0.140926 -0.046907 0.371381
v 0.162907 -0.575409 0.317558
v 0.252952 0.000000 -0.483479
v 0.219774 -0.046907 -0.447186
v 0.252952 0.000000 0.000000
v 0.219774 -0.046907 0.000000
v 0.252952 0.000000 -0.313822
v 0.197793 -0.091190 -0.317558
v 0.162907 -0.539954 -0.349400
v -0.000867 -0.112833 -0.279744
v 0.252952 0.000000 -0.398650
v 0.197793 -0.091190 -0.349400
v 0.120597 -0.112833 -0.279744
v -0.000867 -0.112833 0.000000
v 0.120597 -0.112833 0.000000
v -0.001050 0.000000 -0.483479
v -0.000867 -0.046907 -0.447186
v 0.197793 -0.539954 0.000000
v -0.001050 0.000000 0.000000
v -0.000867 -0.046907 -0.295576
v -0.001050 0.000000 -0.313822
v 0.197793 -0.575409 0.000000
v 0.162907 -0.575409 0.000000
v -0.000867 -0.046907 -0.371381
v -0.001050 0.000000 -0.398650
v 0.162907 -0.539954 0.000000
v 0.140926 -0.046907 -0.447186
v 0.157423 0.000000 0.000000
v 0.157423 0.000000 -0.313822
v 0.157423 0.000000 -0.398650
v 0.197793 -0.575409 -0.317558
v 0.157423 0.000000 -0.483479
v 0.140926 -0.046907 0.000000
v 0.162907 -0.091190 -0.317558
v 0.162907 -0.539954 -0.317558
v 0.162907 -0.091190 -0.349400
v 0.197793 -0.575409 -0.349400
v 0.219774 -0.046907 -0.371381
v 0.219774 -0.046907 -0.295576
v 0.197793 -0.539954 -0.317558
v 0.162907 -0.575409 -0.349400
v 0.140926 -0.046907 -0.295576
v 0.197793 -0.539954 -0.349400
v 0.140926 -0.046907 -0.371381
v 0.162907 -0.575409 -0.317558
v -0.252952 0.000000 0.483479
v -0.219774 -0.046907 0.447186
v -0.252952 0.000000 0.313822
v -0.197793 -0.091190 0.317558
v -0.162907 -0.539954 0.349400
v 0.000867 -0.112833 0.279744
v -0.252952 0.000000 0.398650
v -0.197793 -0.091190 0.349400
v -0.120597 -0.112833 0.279744
v 0.001050 0.000000 0.483479
v 0.000867 -0.046907 0.447186
v 0.000867 -0.046907 0.295576
v 0.001050 0.000000 0.313822
v 0.000867 -0.046907 0.371381
v 0.001050 0.000000 0.398650
v 0.000000 -0.575409 0.349400
v -0.140926 -0.046907 0.447186
v 0.000000 -0.575409 0.317558
v -0.157423 0.000000 0.313822
v 0.000000 -0.539954 0.349400
v -0.157423 0.000000 0.398650
v 0.000000 -0.539954 0.317558
v -0.197793 -0.575409 0.317558
v -0.157423 0.000000 0.483479
v -0.162907 -0.091190 0.317558
v -0.162907 -0.539954 0.317558
v -0.162907 -0.091190 0.349400
v -0.197793 -0.575409 0.349400
v -0.219774 -0.046907 0.371381
v -0.219774 -0.046907 0.295576
v -0.197793 -0.539954 0.317558
v -0.162907 -0.575409 0.349400
v -0.140926 -0.046907 0.295576
v -0.197793 -0.539954 0.349400
v -0.140926 -0.046907 0.371381
v -0.162907 -0.575409 0.317558
v -0.252952 0.000000 -0.483479
v -0.219774 -0.046907 -0.447186
v -0.252952 0.000000 0.000000
v -0.219774 -0.046907 0.000000
v -0.252952 0.000000 -0.313822
v -0.197793 -0.091190 -0.317558
v -0.162907 -0.539954 -0.349400
v 0.000867 -0.112833 -0.279744
v -0.252952 0.000000 -0.398650
v -0.197793 -0.091190 -0.349400
v -0.120597 -0.112833 -0.279744
v 0.000867 -0.112833 0.000000
v -0.120597 -0.112833 0.000000
v 0.001050 0.000000 -0.483479
v 0.000867 -0.046907 -0.447186
v -0.197793 -0.539954 0.000000
v 0.001050 0.000000 0.000000
v 0.000867 -0.046907 -0.295576
v 0.001050 0.000000 -0.313822
v -0.197793 -0.575409 0.000000
v -0.162907 -0.575409 0.000000
v 0.000867 -0.046907 -0.371381
v 0.001050 0.000000 -0.398650
v -0.162907 -0.539954 0.000000
v 0.000000 -0.575409 -0.349400
v -0.140926 -0.046907 -0.447186
v 0.000000 -0.575409 -0.317558
v -0.157423 0.000000 0.000000
v -0.157423 0.000000 -0.313822
v 0.000000 -0.539954 -0.349400
v -0.157423 0.000000 -0.398650
v 0.000000 -0.539954 -0.317558
v -0.197793 -0.575409 -0.317558
v -0.157423 0.000000 -0.483479
v -0.140926 -0.046907 0.000000
v -0.162907 -0.091190 -0.317558
v -0.162907 -0.539954 -0.317558
v -0.162907 -0.091190 -0.349400
v -0.197793 -0.575409 -0.349400
v -0.219774 -0.046907 -0.371381
v -0.219774 -0.046907 -0.295576
v -0.197793 -0.539954 -0.317558
v -0.162907 -0.575409 -0.349400
v -0.140926 -0.046907 -0.295576
v -0.197793 -0.539954 -0.349400
v -0.140926 -0.046907 -0.371381
v -0.162907 -0.575409 -0.317558
vt 0.403546 0.331145
vt 0.635785 0.331145
vt 0.635785 0.107869
vt 0.403546 0.107869
vt 0.328684 0.556160
vt 0.248366 0.694319
vt -0.001488 0.694319
vt 0.105409 0.556160
vt 0.403546 0.556160
vt 0.171306 0.556160
vt 0.171306 0.500184
vt 0.343670 0.500184
vt 0.998512 0.556160
vt 0.997929 0.694319
vt 0.498220 0.694319
vt 0.551960 0.556160
vt 0.403546 1.000973
vt 0.635785 1.000973
vt 0.635785 0.554421
vt 0.403546 0.554421
vt 0.171306 1.000973
vt 0.343670 1.000973
vt 0.343670 0.601053
vt 0.171306 0.601053
vt 0.487217 0.425729
vt 0.393428 0.425729
vt 0.393428 0.315381
vt 0.487217 0.315381
vt 0.571042 0.489678
vt 0.468289 0.489678
vt 0.468289 1.000389
vt 0.571042 1.000389
vt 0.487217 0.210951
vt 0.487217 0.315381
vt 0.997929 0.315381
vt 0.997929 0.210951
vt 0.487217 0.210951
vt 0.997929 0.210951
vt 0.997929 0.315381
vt 0.452137 0.500681
vt 0.170766 0.500681
vt 0.170766 0.250827
vt 0.452137 0.250827
vt 0.452137 1.000389
vt 0.170766 1.000389
vt 0.468289 0.210951
vt 0.468289 0.315381
vt 0.173860 0.315381
vt 0.173860 0.210951
vt 0.403546 0.556160
vt 0.452137 0.694319
vt 0.170766 0.694319
vt 0.171306 0.556160
vt 0.170766 0.000973
vt 0.452137 0.000973
vt 0.733508 0.250827
vt 0.733508 0.000973
vt 0.635785 0.556160
vt 0.733508 0.694319
vt 0.468289 0.395889
vt 0.173860 0.395889
vt 0.173860 0.489678
vt 0.733508 1.000389
vt 0.733508 0.500681
vt 0.468289 0.315381
vt 0.468289 0.210951
vt 0.173860 0.210951
vt 0.173860 0.315381
vt 0.468289 0.489678
vt 0.571042 0.489678
vt 0.571042 1.000389
vt 0.468289 1.000389
vt 0.171306 0.554421
vt 0.171306 0.331145
vt 0.468289 0.395889
vt 0.173860 0.489678
vt 0.173860 0.395889
vt 0.393428 0.210951
vt 0.571042 0.395889
vt 0.171306 0.107869
vt 0.468289 0.425729
vt 0.571042 0.425729
vt 0.571042 0.315381
vt 0.635785 0.556160
vt 0.571042 0.315381
vt 0.571042 0.210951
vt 0.468289 0.425729
vt 0.571042 0.425729
vt 0.635785 0.556160
vt 0.403546 0.556160
vt 0.487217 0.425729
vt 0.393428 0.425729
vt 0.328684 0.556160
vt 0.551960 0.556160
vt 0.393428 0.315381
vt 0.403546 0.331145
vt 0.403546 0.107869
vt 0.635785 0.107869
vt 0.635785 0.331145
vt 0.328684 0.556160
vt 0.105409 0.556160
vt -0.001488 0.694319
vt 0.248366 0.694319
vt 0.403546 0.556160
vt 0.343670 0.500184
vt 0.171306 0.500184
vt 0.171306 0.556160
vt 0.551960 0.556160
vt 0.498220 0.694319
vt 0.403546 0.554421
vt 0.635785 0.554421
vt 0.171306 0.601053
vt 0.343670 0.601053
vt 0.487217 0.425729
vt 0.487217 0.315381
vt 0.393428 0.315381
vt 0.393428 0.425729
vt 0.571042 0.489678
vt 0.468289 0.489678
vt 0.487217 0.210951
vt 0.487217 0.315381
vt 0.487217 0.210951
vt 0.452137 0.500681
vt 0.452137 0.250827
vt 0.170766 0.250827
vt 0.170766 0.500681
vt 0.468289 0.210951
vt 0.173860 0.210951
vt 0.173860 0.315381
vt 0.468289 0.315381
vt 0.403546 0.556160
vt 0.171306 0.556160
vt 0.170766 0.694319
vt 0.452137 0.694319
vt 0.452137 0.000973
vt 0.170766 0.000973
vt 0.733508 0.250827
vt 0.733508 0.000973
vt 0.635785 0.556160
vt 0.733508 0.694319
vt 0.173860 0.489678
vt 0.173860 0.395889
vt 0.468289 0.395889
vt 0.733508 0.500681
vt 0.468289 0.315381
vt 0.173860 0.315381
vt 0.173860 0.210951
vt 0.468289 0.210951
vt 0.468289 0.489678
vt 0.571042 0.489678
vt 0.171306 0.554421
vt 0.171306 0.331145
vt 0.468289 0.395889
vt 0.173860 0.395889
vt 0.173860 0.489678
vt 0.393428 0.210951
vt 0.571042 0.395889
vt 0.171306 0.107869
vt 0.468289 0.425729
vt 0.571042 0.315381
vt 0.571042 0.425729
vt 0.635785 0.556160
vt 0.571042 0.315381
vt 0.571042 0.210951
vt 0.468289 0.425729
vt 0.403546 0.556160
vt 0.635785 0.556160
vt 0.571042 0.425729
vt 0.487217 0.425729
vt 0.551960 0.556160
vt 0.328684 0.556160
vt 0.393428 0.425729
vt 0.393428 0.315381
vt 0.403546 0.331145
vt 0.403546 0.107869
vt 0.635785 0.107869
vt 0.635785 0.331145
vt 0.328684 0.556160
vt 0.105409 0.556160
vt -0.001488 0.694319
vt 0.248366 0.694319
vt 0.403546 0.556160
vt 0.343670 0.500184
vt 0.171306 0.500184
vt 0.171306 0.556160
vt 0.998512 0.556160
vt 0.551960 0.556160
vt 0.498220 0.694319
vt 0.997929 0.694319
vt 0.403546 1.000973
vt 0.403546 0.554421
vt 0.635785 0.554421
vt 0.635785 1.000973
vt 0.171306 1.000973
vt 0.171306 0.601053
vt 0.343670 0.601053
vt 0.343670 1.000973
vt 0.487217 0.425729
vt 0.487217 0.315381
vt 0.393428 0.315381
vt 0.393428 0.425729
vt 0.571042 0.489678
vt 0.571042 1.000389
vt 0.468289 1.000389
vt 0.468289 0.489678
vt 0.487217 0.210951
vt 0.997929 0.210951
vt 0.997929 0.315381
vt 0.487217 0.315381
vt 0.997929 0.315381
vt 0.997929 0.210951
vt 0.487217 0.210951
vt 0.452137 0.500681
vt 0.452137 0.250827
vt 0.170766 0.250827
vt 0.170766 0.500681
vt 0.452137 1.000389
vt 0.170766 1.000389
vt 0.468289 0.210951
vt 0.468289 0.315381
vt 0.403546 0.556160
vt 0.171306 0.556160
vt 0.170766 0.694319
vt 0.452137 0.694319
vt 0.452137 0.000973
vt 0.170766 0.000973
vt 0.733508 0.250827
vt 0.733508 0.000973
vt 0.635785 0.556160
vt 0.733508 0.694319
vt 0.468289 0.395889
vt 0.733508 1.000389
vt 0.733508 0.500681
vt 0.468289 0.315381
vt 0.468289 0.210951
vt 0.468289 0.489678
vt 0.468289 1.000389
vt 0.571042 1.000389
vt 0.571042 0.489678
vt 0.171306 0.554421
vt 0.171306 0.331145
vt 0.468289 0.395889
vt 0.393428 0.210951
vt 0.571042 0.395889
vt 0.171306 0.107869
vt 0.468289 0.425729
vt 0.571042 0.315381
vt 0.571042 0.425729
vt 0.635785 0.556160
vt 0.571042 0.315381
vt 0.571042 0.210951
vt 0.468289 0.425729
vt 0.403546 0.556160
vt 0.635785 0.556160
vt 0.571042 0.425729
vt 0.487217 0.425729
vt 0.551960 0.556160
vt 0.328684 0.556160
vt 0.393428 0.425729
vt 0.393428 0.315381
vt 0.403546 0.331145
vt 0.635785 0.331145
vt 0.635785 0.107869
vt 0.403546 0.107869
vt 0.328684 0.556160
vt 0.248366 0.694319
vt -0.001488 0.694319
vt 0.105409 0.556160
vt 0.403546 0.556160
vt 0.171306 0.556160
vt 0.171306 0.500184
vt 0.343670 0.500184
vt 0.498220 0.694319
vt 0.551960 0.556160
vt 0.635785 0.554421
vt 0.403546 0.554421
vt 0.343670 0.601053
vt 0.171306 0.601053
vt 0.487217 0.425729
vt 0.393428 0.425729
vt 0.393428 0.315381
vt 0.487217 0.315381
vt 0.571042 0.489678
vt 0.468289 0.489678
vt 0.487217 0.210951
vt 0.487217 0.315381
vt 0.487217 0.210951
vt 0.452137 0.500681
vt 0.170766 0.500681
vt 0.170766 0.250827
vt 0.452137 0.250827
vt 0.468289 0.210951
vt 0.468289 0.315381
vt 0.403546 0.556160
vt 0.452137 0.694319
vt 0.170766 0.694319
vt 0.171306 0.556160
vt 0.170766 0.000973
vt 0.452137 0.000973
vt 0.733508 0.250827
vt 0.733508 0.000973
vt 0.635785 0.556160
vt 0.733508 0.694319
vt 0.468289 0.395889
vt 0.733508 0.500681
vt 0.468289 0.315381
vt 0.468289 0.210951
vt 0.468289 0.489678
vt 0.571042 0.489678
vt 0.171306 0.554421
vt 0.171306 0.331145
vt 0.468289 0.395889
vt 0.393428 0.210951
vt 0.571042 0.395889
vt 0.171306 0.107869
vt 0.468289 0.425729
vt 0.571042 0.425729
vt 0.571042 0.315381
vt 0.635785 0.556160
vt 0.571042 0.315381
vt 0.571042 0.210951
vt 0.468289 0.425729
vt 0.571042 0.425729
vt 0.635785 0.556160
vt 0.403546 0.556160
vt 0.487217 0.425729
vt 0.393428 0.425729
vt 0.328684 0.556160
vt 0.551960 0.556160
vt 0.393428 0.315381
vn 0.0000 -1.0000 0.0000
vn 0.8164 -0.5775 0.0000
vn 0.0000 -0.2335 0.9724
vn 1.0000 0.0000 0.0000
vn -1.0000 0.0000 0.0000
vn 0.0000 1.0000 0.0000
vn 0.0000 0.0000 1.0000
vn 0.0000 -0.6119 0.7909
vn 0.0000 0.0000 -1.0000
vn 0.9556 -0.2947 0.0000
vn 0.8957 -0.4446 0.0000
vn 0.0000 -0.4446 -0.8957
vn 0.0000 -0.4446 0.8957
vn -0.8957 -0.4446 0.0000
vn 0.0000 -0.2335 -0.9724
vn 0.0000 -0.6119 -0.7909
vn -0.8164 -0.5775 0.0000
vn -0.9556 -0.2947 0.0000
s off
f 31/1/1 25/2/1 2/3/1 16/4/1
f 25/5/2 7/6/2 1/7/2 2/8/2
f 29/9/3 12/10/3 6/11/3 9/12/3
f 36/13/2 35/14/2 3/15/2 26/16/2
f 63/17/1 36/18/1 26/19/1 29/20/1
f 44/21/1 45/22/1 9/23/1 6/24/1
f 26/16/2 3/15/2 7/6/2 25/5/2
f 4/25/4 8/26/4 30/27/4 27/28/4
f 19/29/1 32/30/1 53/31/1 52/32/1
f 32/33/5 22/34/5 56/35/5 53/36/5
f 27/28/4 19/37/4 52/38/4 48/39/4
f 17/40/6 13/41/6 15/42/6 18/43/6
f 58/44/6 49/45/6 13/41/6 17/40/6
f 28/46/7 5/47/7 95/48/7 91/49/7
f 16/50/8 20/51/8 10/52/8 11/53/8
f 18/43/6 15/42/6 10/54/6 20/55/6
f 7/56/6 18/43/6 20/55/6 1/57/6
f 2/58/8 1/59/8 20/51/8 16/50/8
f 32/30/1 28/60/1 91/61/1 93/62/1
f 35/63/6 58/44/6 17/40/6 3/64/6
f 22/65/9 32/66/9 93/67/9 97/68/9
f 3/64/6 17/40/6 18/43/6 7/56/6
f 22/69/6 27/70/6 48/71/6 56/72/6
f 12/73/1 29/20/1 31/1/1 14/74/1
f 5/75/6 22/69/6 97/76/6 95/77/6
f 63/17/10 29/20/10 9/23/10 45/22/10
f 27/28/4 30/27/4 24/78/4 19/37/4
f 32/30/1 19/29/1 24/79/1 28/60/1
f 14/74/1 31/1/1 16/4/1 11/80/1
f 8/26/11 4/25/11 26/16/11 25/5/11
f 21/81/9 4/82/9 27/83/9 22/65/9
f 4/82/12 21/81/12 29/9/12 26/84/12
f 30/85/7 5/47/7 28/46/7 24/86/7
f 23/87/13 8/88/13 25/89/13 31/90/13
f 8/88/7 23/87/7 5/47/7 30/85/7
f 21/91/14 23/92/14 31/93/14 29/94/14
f 23/92/5 21/91/5 22/34/5 5/95/5
f 74/96/1 57/97/1 34/98/1 68/99/1
f 68/100/2 34/101/2 33/102/2 41/103/2
f 72/104/15 43/105/15 40/106/15 50/107/15
f 36/13/2 69/108/2 37/109/2 35/14/2
f 63/17/1 72/110/1 69/111/1 36/18/1
f 44/21/1 40/112/1 43/113/1 45/22/1
f 69/108/2 68/100/2 41/103/2 37/109/2
f 38/114/4 70/115/4 73/116/4 42/117/4
f 61/118/1 52/32/1 53/31/1 75/119/1
f 75/120/5 53/36/5 56/35/5 65/121/5
f 70/115/4 48/39/4 52/38/4 61/122/4
f 59/123/6 60/124/6 55/125/6 51/126/6
f 58/44/6 59/123/6 51/126/6 49/45/6
f 71/127/9 136/128/9 141/129/9 39/130/9
f 57/131/16 47/132/16 46/133/16 62/134/16
f 60/124/6 62/135/6 46/136/6 55/125/6
f 41/137/6 33/138/6 62/135/6 60/124/6
f 34/139/16 57/131/16 62/134/16 33/140/16
f 75/119/1 138/141/1 136/142/1 71/143/1
f 35/63/6 37/144/6 59/123/6 58/44/6
f 65/145/7 143/146/7 138/147/7 75/148/7
f 37/144/6 41/137/6 60/124/6 59/123/6
f 65/149/6 56/72/6 48/71/6 70/150/6
f 50/151/1 54/152/1 74/96/1 72/110/1
f 39/153/6 141/154/6 143/155/6 65/149/6
f 63/17/10 45/22/10 43/113/10 72/110/10
f 70/115/4 61/122/4 67/156/4 73/116/4
f 75/119/1 71/143/1 67/157/1 61/118/1
f 54/152/1 47/158/1 57/97/1 74/96/1
f 42/117/11 68/100/11 69/108/11 38/114/11
f 64/159/7 65/145/7 70/160/7 38/161/7
f 38/161/13 69/162/13 72/104/13 64/159/13
f 73/163/9 67/164/9 71/127/9 39/130/9
f 66/165/12 74/166/12 68/167/12 42/168/12
f 42/168/9 73/163/9 39/130/9 66/165/9
f 64/169/14 72/170/14 74/171/14 66/172/14
f 66/172/5 39/173/5 65/121/5 64/169/5
f 110/174/1 92/175/1 77/176/1 104/177/1
f 104/178/17 77/179/17 76/180/17 82/181/17
f 108/182/3 84/183/3 81/184/3 87/185/3
f 115/186/17 105/187/17 78/188/17 114/189/17
f 146/190/1 108/191/1 105/192/1 115/193/1
f 123/194/1 81/195/1 84/196/1 124/197/1
f 105/187/17 104/178/17 82/181/17 78/188/17
f 79/198/5 106/199/5 109/200/5 83/201/5
f 98/202/1 131/203/1 132/204/1 111/205/1
f 111/206/4 132/207/4 135/208/4 101/209/4
f 106/199/5 127/210/5 131/211/5 98/212/5
f 94/213/6 96/214/6 90/215/6 88/216/6
f 139/217/6 94/213/6 88/216/6 128/218/6
f 107/219/7 91/49/7 95/48/7 80/220/7
f 92/221/8 86/222/8 85/223/8 99/224/8
f 96/214/6 99/225/6 85/226/6 90/215/6
f 82/227/6 76/228/6 99/225/6 96/214/6
f 77/229/8 92/221/8 99/224/8 76/230/8
f 111/205/1 93/62/1 91/61/1 107/231/1
f 114/232/6 78/233/6 94/213/6 139/217/6
f 101/234/9 97/68/9 93/67/9 111/235/9
f 78/233/6 82/227/6 96/214/6 94/213/6
f 101/236/6 135/237/6 127/238/6 106/239/6
f 87/240/1 89/241/1 110/174/1 108/191/1
f 80/242/6 95/77/6 97/76/6 101/236/6
f 146/190/18 124/197/18 84/196/18 108/191/18
f 106/199/5 98/212/5 103/243/5 109/200/5
f 111/205/1 107/231/1 103/244/1 98/202/1
f 89/241/1 86/245/1 92/175/1 110/174/1
f 83/201/14 104/178/14 105/187/14 79/198/14
f 100/246/9 101/234/9 106/247/9 79/248/9
f 79/248/12 105/249/12 108/182/12 100/246/12
f 109/250/7 103/251/7 107/219/7 80/220/7
f 102/252/13 110/253/13 104/254/13 83/255/13
f 83/255/7 109/250/7 80/220/7 102/252/7
f 100/256/11 108/257/11 110/258/11 102/259/11
f 102/259/4 80/260/4 101/209/4 100/256/4
f 157/261/1 151/262/1 113/263/1 137/264/1
f 151/265/17 120/266/17 112/267/17 113/268/17
f 155/269/15 129/270/15 119/271/15 122/272/15
f 115/186/17 114/189/17 116/273/17 152/274/17
f 146/190/1 115/193/1 152/275/1 155/276/1
f 123/194/1 124/197/1 122/277/1 119/278/1
f 152/274/17 116/273/17 120/266/17 151/265/17
f 117/279/5 121/280/5 156/281/5 153/282/5
f 144/283/1 158/284/1 132/204/1 131/203/1
f 158/285/4 148/286/4 135/208/4 132/207/4
f 153/282/5 144/287/5 131/211/5 127/210/5
f 140/288/6 130/289/6 134/290/6 142/291/6
f 139/217/6 128/218/6 130/289/6 140/288/6
f 154/292/9 118/293/9 141/129/9 136/128/9
f 137/294/16 145/295/16 125/296/16 126/297/16
f 142/291/6 134/290/6 125/298/6 145/299/6
f 120/300/6 142/291/6 145/299/6 112/301/6
f 113/302/16 112/303/16 145/295/16 137/294/16
f 158/284/1 154/304/1 136/142/1 138/141/1
f 114/232/6 139/217/6 140/288/6 116/305/6
f 148/306/7 158/307/7 138/147/7 143/146/7
f 116/305/6 140/288/6 142/291/6 120/300/6
f 148/308/6 153/309/6 127/238/6 135/237/6
f 129/310/1 155/276/1 157/261/1 133/311/1
f 118/312/6 148/308/6 143/155/6 141/154/6
f 146/190/18 155/276/18 122/277/18 124/197/18
f 153/282/5 156/281/5 150/313/5 144/287/5
f 158/284/1 144/283/1 150/314/1 154/304/1
f 133/311/1 157/261/1 137/264/1 126/315/1
f 121/280/14 117/279/14 152/274/14 151/265/14
f 147/316/7 117/317/7 153/318/7 148/306/7
f 117/317/13 147/316/13 155/269/13 152/319/13
f 156/320/9 118/293/9 154/292/9 150/321/9
f 149/322/12 121/323/12 151/324/12 157/325/12
f 121/323/9 149/322/9 118/293/9 156/320/9
f 147/326/11 149/327/11 157/328/11 155/329/11
f 149/327/4 147/326/4 148/286/4 118/330/4
