# Blender v2.83.4 OBJ File: 'world_tests.blend'
# www.blender.org
mtllib wall_smashed.mtl
v 1.000000 0.245099 0.000000
v 1.000000 0.000000 0.000000
v 1.000000 0.314880 4.000000
v 1.000000 0.000000 4.000000
v 0.000000 0.245099 0.000000
v 0.000000 0.000000 0.000000
v 0.000000 0.314880 4.000000
v 0.000000 0.000000 4.000000
v 1.000000 0.071519 2.000000
v 0.000000 0.071519 2.000000
v 0.000000 2.000000 0.314411
v 0.000000 2.000000 0.000000
v 1.000000 2.000000 0.000000
v 1.000000 2.000000 0.314411
v 1.000000 2.000000 4.000000
v 0.000000 2.000000 4.000000
v 1.000000 2.000000 3.721272
v 0.000000 2.000000 3.721272
v -0.000000 3.356474 0.641917
v 0.000000 3.000000 0.000000
v 1.000000 3.000000 0.000000
v 1.000000 3.356474 0.641917
v 1.000000 3.000000 4.000000
v 0.000000 3.000000 4.000000
v 1.000000 3.080722 3.521770
v 0.000000 3.080722 3.521770
v 1.000000 0.382854 3.532122
v 0.000000 0.382854 3.532122
v 0.000000 0.334693 0.548084
v 1.000000 0.334693 0.548084
v 0.000000 4.000000 1.000000
v 0.000000 4.000000 0.000000
v 1.000000 4.000000 0.000000
v 1.000000 4.000000 1.000000
v 1.000000 4.000000 4.000000
v 0.000000 4.000000 4.000000
v 1.000000 4.000000 3.000000
v 0.000000 4.000000 3.000000
v 0.000000 3.584145 2.000000
v 1.000000 3.584145 2.000000
vt 0.469363 0.500000
vt 0.458163 0.568511
vt 0.250000 0.500000
vt 0.750000 0.460580
vt 0.875000 0.499935
vt 0.750000 0.499935
vt 0.500000 1.000000
vt 0.491060 0.750000
vt 0.500000 0.500000
vt 0.875000 0.499935
vt 0.750000 0.999295
vt 0.750000 0.499935
vt 0.500000 0.500000
vt 0.491060 0.250000
vt 0.500000 0.000000
vt 0.625000 0.469334
vt 0.750000 0.499970
vt 0.625000 0.499970
vt 0.460640 0.000000
vt 0.452143 0.058485
vt 0.250000 0.000000
vt 0.750000 0.249985
vt 0.750000 0.469334
vt 0.250000 0.500000
vt 0.250000 0.460699
vt 0.458163 0.431489
vt 0.125000 0.500000
vt 0.080441 0.419760
vt 0.250000 1.000000
vt 0.250000 0.965159
vt 0.452143 0.941515
vt 0.875000 0.249968
vt 0.875000 0.460580
vt 0.114910 0.940221
vt 0.000000 1.000000
vt 0.000000 0.875000
vt 0.625000 0.124992
vt 0.750000 0.000000
vt 0.750000 0.124992
vt 0.250000 0.539302
vt 0.125000 0.500000
vt 0.250000 0.034841
vt 0.125000 0.000000
vt 0.625000 0.249985
vt 0.125000 1.000000
vt 0.750000 0.249968
vt 0.875000 0.124984
vt 0.500000 0.499995
vt 0.625000 0.374997
vt 0.625000 0.499995
vt 0.500000 0.124999
vt 0.625000 0.000000
vt 0.625000 0.124999
vt 0.750000 0.124984
vt 0.875000 0.000000
vt 0.000000 0.500000
vt 0.000000 0.375000
vt 0.080441 0.580240
vt 0.000000 0.500000
vt 0.114910 0.059779
vt 0.000000 0.000000
vt 0.000000 0.125000
vt 0.051982 0.250000
vt 0.500000 0.374997
vt 0.051982 0.750000
vt 0.460640 1.000000
vt 0.875000 0.999295
vt 0.469363 0.500000
vt 0.625000 0.000000
vt 0.500000 0.000000
vt 0.750000 0.000000
vt 0.000000 0.625000
vt 0.875000 0.496619
vt 1.000000 0.361265
vt 1.000000 0.496619
vt 0.500000 0.681346
vt 0.625000 0.499995
vt 0.625000 0.681346
vt 0.500000 0.873022
vt 0.625000 0.670164
vt 0.750000 0.499970
vt 0.750000 0.670164
vt 0.875000 0.698492
vt 1.000000 0.698492
vt 0.625000 0.877832
vt 0.750000 0.877832
vt 0.875000 0.361265
vt 1.000000 0.193162
vt 1.000000 0.361265
vt 0.875000 0.193162
vt 1.000000 0.000000
vt 0.875000 0.361265
vt 0.500000 0.499995
vt 0.625000 0.873022
vt 0.625000 0.499970
vt 0.875000 0.000000
vn -1.0000 0.0000 0.0000
vn 0.0000 0.0000 1.0000
vn 0.0000 -1.0000 0.0000
vn 1.0000 0.0000 0.0000
vn 0.0000 0.0000 -1.0000
vn 0.0000 1.0000 0.0000
vn 0.0000 -0.1815 -0.9834
vn 0.0000 0.9840 0.1784
vn 0.0000 0.9800 -0.1991
vn 0.0000 -0.2347 0.9721
vn 0.0000 0.1162 -0.9932
vn 0.0000 0.1390 0.9903
vn 0.0000 -0.9862 0.1653
vn 0.0000 -0.9494 -0.3141
usemtl Material.004
s off
f 5/1/1 29/2/1 12/3/1
f 3/4/2 8/5/2 4/6/2
f 8/7/1 10/8/1 6/9/1
f 2/10/3 8/11/3 6/12/3
f 2/13/4 9/14/4 4/15/4
f 5/16/5 2/17/5 6/18/5
f 3/19/4 27/20/4 15/21/4
f 5/16/5 13/22/5 1/23/5
f 13/24/4 14/25/4 30/26/4
f 14/25/4 21/27/4 22/28/4
f 16/29/1 18/30/1 28/31/1
f 3/4/2 16/32/2 7/33/2
f 26/34/1 36/35/1 38/36/1
f 20/37/5 33/38/5 21/39/5
f 11/40/1 20/41/1 12/3/1
f 17/42/4 23/43/4 15/21/4
f 12/44/5 21/39/5 13/22/5
f 18/30/1 24/45/1 26/34/1
f 15/46/2 24/47/2 16/32/2
f 32/48/6 34/49/6 33/50/6
f 38/51/6 35/52/6 37/53/6
f 23/54/2 36/55/2 24/47/2
f 22/28/4 33/56/4 34/57/4
f 19/58/1 32/59/1 20/41/1
f 25/60/4 35/61/4 23/43/4
f 37/62/4 25/60/4 40/63/4
f 31/64/6 37/53/6 34/49/6
f 39/65/1 26/34/1 38/36/1
f 5/1/1 10/8/1 29/2/1
f 29/2/1 11/40/1 12/3/1
f 3/4/2 7/33/2 8/5/2
f 8/7/1 7/66/1 10/8/1
f 10/8/1 5/1/1 6/9/1
f 2/10/3 4/67/3 8/11/3
f 2/13/4 1/68/4 9/14/4
f 9/14/4 3/19/4 4/15/4
f 5/16/5 1/23/5 2/17/5
f 3/19/4 9/14/4 27/20/4
f 27/20/4 17/42/4 15/21/4
f 5/16/5 12/44/5 13/22/5
f 30/26/4 9/14/4 1/68/4
f 1/68/4 13/24/4 30/26/4
f 14/25/4 13/24/4 21/27/4
f 28/31/1 10/8/1 7/66/1
f 7/66/1 16/29/1 28/31/1
f 3/4/2 15/46/2 16/32/2
f 26/34/1 24/45/1 36/35/1
f 20/37/5 32/69/5 33/38/5
f 11/40/1 19/58/1 20/41/1
f 17/42/4 25/60/4 23/43/4
f 12/44/5 20/37/5 21/39/5
f 18/30/1 16/29/1 24/45/1
f 15/46/2 23/54/2 24/47/2
f 32/48/6 31/64/6 34/49/6
f 38/51/6 36/70/6 35/52/6
f 23/54/2 35/71/2 36/55/2
f 22/28/4 21/27/4 33/56/4
f 19/58/1 31/72/1 32/59/1
f 25/60/4 37/62/4 35/61/4
f 40/63/4 22/28/4 34/57/4
f 34/57/4 37/62/4 40/63/4
f 31/64/6 38/51/6 37/53/6
f 38/36/1 31/72/1 39/65/1
f 31/72/1 19/58/1 39/65/1
usemtl Material.006
f 18/73/7 25/74/7 17/75/7
f 9/76/8 29/77/8 10/78/8
f 10/78/9 27/79/9 9/76/9
f 14/80/10 19/81/10 11/82/10
f 28/83/11 17/75/11 27/84/11
f 30/85/12 11/82/12 29/86/12
f 22/87/13 39/88/13 19/89/13
f 40/90/14 26/91/14 39/88/14
f 18/73/7 26/92/7 25/74/7
f 9/76/8 30/93/8 29/77/8
f 10/78/9 28/94/9 27/79/9
f 14/80/10 22/95/10 19/81/10
f 28/83/11 18/73/11 17/75/11
f 30/85/12 14/80/12 11/82/12
f 22/87/13 40/90/13 39/88/13
f 40/90/14 25/96/14 26/91/14
