# Blender v2.83.4 OBJ File: 'world_tests.blend'
# www.blender.org
mtllib wall_cracked.mtl
v 1.000000 1.000000 0.000000
v 1.000000 0.000000 0.000000
v 1.000000 1.000000 4.000000
v 1.000000 0.000000 4.000000
v 0.000000 1.000000 0.000000
v 0.000000 0.000000 0.000000
v 0.000000 1.000000 4.000000
v 0.000000 0.000000 4.000000
v 1.000000 0.567113 2.000000
v 0.000000 0.567113 2.000000
v 0.000000 2.000000 1.701540
v 0.000000 2.000000 0.000000
v 1.000000 2.000000 0.000000
v 1.000000 2.000000 1.701540
v 1.000000 2.000000 4.000000
v 0.000000 2.000000 4.000000
v 1.000000 2.000000 1.802015
v 0.000000 2.000000 1.802015
v -0.000000 2.715266 1.864493
v 0.000000 3.000000 0.000000
v 1.000000 3.000000 0.000000
v 1.000000 2.715266 1.864493
v 1.000000 3.000000 4.000000
v 0.000000 3.000000 4.000000
v 1.000000 2.628871 1.916087
v 0.000000 2.628871 1.916087
v 1.000000 1.191216 2.104839
v 0.000000 1.191216 2.104839
v 0.000000 1.192375 1.994361
v 1.000000 1.192375 1.994361
v 0.000000 4.000000 1.000000
v 0.000000 4.000000 0.000000
v 1.000000 4.000000 0.000000
v 1.000000 4.000000 1.000000
v 1.000000 4.000000 4.000000
v 0.000000 4.000000 4.000000
v 1.000000 4.000000 3.000000
v 0.000000 4.000000 3.000000
v 0.000000 3.000000 2.000000
v 1.000000 3.000000 2.000000
vt 0.750000 0.212693
vt 0.875000 0.000000
vt 0.850953 0.249295
vt 0.375000 0.874721
vt 0.500000 0.999627
vt 0.375000 0.999627
vt 0.929111 0.250000
vt 1.000000 0.000000
vt 0.250000 0.500000
vt 0.125000 1.000000
vt 0.125000 0.500000
vt 0.429111 0.250000
vt 0.375000 0.000000
vt 0.500000 0.000000
vt 0.250000 0.874862
vt 0.375000 0.999816
vt 0.250000 0.999816
vt 0.351098 0.236895
vt 0.250000 0.274748
vt 0.250000 0.000000
vt 0.375000 0.749908
vt 0.375000 0.874862
vt 0.375000 0.500000
vt 0.250000 0.287308
vt 0.350953 0.250705
vt 0.125000 0.500000
vt 0.160592 0.266938
vt 0.750000 0.500000
vt 0.750000 0.225252
vt 0.851098 0.263105
vt 0.500000 0.749814
vt 0.500000 0.874721
vt 0.625000 0.500000
vt 0.500000 0.375000
vt 0.671391 0.239511
vt 0.250000 0.624954
vt 0.375000 0.500000
vt 0.375000 0.624954
vt 0.625000 0.000000
vt 0.750000 0.000000
vt 0.171391 0.260489
vt 0.125000 0.000000
vt 0.250000 0.749908
vt 0.375000 0.749814
vt 0.500000 0.624907
vt 0.000000 1.000000
vt 0.125000 0.875000
vt 0.125000 1.000000
vt 0.000000 0.625000
vt 0.125000 0.500000
vt 0.125000 0.625000
vt 0.375000 0.624907
vt 0.500000 0.500000
vt 0.000000 0.375000
vt 0.500000 0.125000
vt 0.500000 0.000000
vt 0.000000 0.125000
vt 0.000000 0.000000
vt 0.125000 0.250000
vt 0.000000 0.875000
vt 0.625000 0.250000
vt 1.000000 0.500000
vt 0.875000 0.500000
vt 0.250000 1.000000
vt 0.500000 0.500000
vt 0.250000 0.500000
vt 0.250000 0.500000
vt 0.660592 0.233062
vt 0.000000 0.500000
vt 0.375000 0.500000
vt 0.000000 0.500000
vt 0.500000 0.625626
vt 0.625000 0.546659
vt 0.625000 0.625626
vt 0.750000 0.500000
vt 0.625000 0.578072
vt 0.625000 0.500000
vt 0.500000 0.803999
vt 0.625000 0.725659
vt 0.625000 0.803999
vt 0.750000 0.677538
vt 0.625000 0.767665
vt 0.625000 0.677538
vt 0.500000 0.725659
vt 0.750000 0.578072
vt 0.750000 0.767665
vt 0.625000 0.803884
vt 0.625000 0.500000
vt 0.500000 0.546659
vt 0.500000 0.500000
vt 0.750000 0.803884
vn -1.0000 0.0000 0.0000
vn 0.0000 0.0000 1.0000
vn 0.0000 -1.0000 0.0000
vn 1.0000 0.0000 0.0000
vn 0.0000 0.0000 -1.0000
vn 0.0000 1.0000 0.0000
vn 0.0000 0.1785 -0.9839
vn 0.0000 0.0090 1.0000
vn 0.0000 0.1657 -0.9862
vn 0.0000 -0.2221 0.9750
vn 0.0000 -0.3506 -0.9365
vn 0.0000 0.3409 0.9401
vn 0.0000 -0.4297 0.9030
vn 0.0000 0.2205 -0.9754
usemtl Material.001
s off
f 11/1/1 5/2/1 29/3/1
f 3/4/2 8/5/2 4/6/2
f 10/7/1 5/2/1 6/8/1
f 2/9/3 8/10/3 6/11/3
f 9/12/4 3/13/4 4/14/4
f 5/15/5 2/16/5 6/17/5
f 27/18/4 17/19/4 15/20/4
f 5/15/5 13/21/5 1/22/5
f 1/23/4 14/24/4 30/25/4
f 14/24/4 21/26/4 22/27/4
f 16/28/1 18/29/1 28/30/1
f 3/4/2 16/31/2 7/32/2
f 24/33/1 38/34/1 26/35/1
f 20/36/5 33/37/5 21/38/5
f 11/1/1 20/39/1 12/40/1
f 15/20/4 25/41/4 23/42/4
f 12/43/5 21/38/5 13/21/5
f 16/28/1 26/35/1 18/29/1
f 15/44/2 24/45/2 16/31/2
f 32/46/6 34/47/6 33/48/6
f 38/49/6 35/50/6 37/51/6
f 23/52/2 36/53/2 24/45/2
f 21/26/4 34/54/4 22/27/4
f 20/39/1 31/55/1 32/56/1
f 23/42/4 37/57/4 35/58/4
f 34/54/4 37/57/4 40/59/4
f 31/60/6 37/51/6 34/47/6
f 31/55/1 39/61/1 38/34/1
f 12/40/1 5/2/1 11/1/1
f 5/2/1 10/7/1 29/3/1
f 3/4/2 7/32/2 8/5/2
f 6/8/1 8/62/1 10/7/1
f 8/62/1 7/63/1 10/7/1
f 2/9/3 4/64/3 8/10/3
f 4/14/4 2/65/4 9/12/4
f 2/65/4 1/23/4 9/12/4
f 5/15/5 1/22/5 2/16/5
f 15/20/4 3/13/4 27/18/4
f 3/13/4 9/12/4 27/18/4
f 5/15/5 12/43/5 13/21/5
f 30/25/4 9/12/4 1/23/4
f 1/23/4 13/66/4 14/24/4
f 14/24/4 13/66/4 21/26/4
f 28/30/1 10/7/1 7/63/1
f 7/63/1 16/28/1 28/30/1
f 3/4/2 15/44/2 16/31/2
f 24/33/1 36/53/1 38/34/1
f 20/36/5 32/67/5 33/37/5
f 11/1/1 19/68/1 20/39/1
f 15/20/4 17/19/4 25/41/4
f 12/43/5 20/36/5 21/38/5
f 16/28/1 24/33/1 26/35/1
f 15/44/2 23/52/2 24/45/2
f 32/46/6 31/60/6 34/47/6
f 38/49/6 36/69/6 35/50/6
f 23/52/2 35/70/2 36/53/2
f 21/26/4 33/71/4 34/54/4
f 20/39/1 19/68/1 31/55/1
f 23/42/4 25/41/4 37/57/4
f 40/59/4 22/27/4 34/54/4
f 37/57/4 25/41/4 40/59/4
f 31/60/6 38/49/6 37/51/6
f 31/55/1 19/68/1 39/61/1
f 39/61/1 26/35/1 38/34/1
usemtl Material.005
f 18/72/7 25/73/7 17/74/7
f 9/75/8 29/76/8 10/77/8
f 10/78/9 27/79/9 9/80/9
f 14/81/10 19/82/10 11/83/10
f 28/84/11 17/74/11 27/79/11
f 30/85/12 11/83/12 29/76/12
f 22/86/13 39/87/13 19/82/13
f 40/88/14 26/89/14 39/90/14
f 18/72/7 26/89/7 25/73/7
f 9/75/8 30/85/8 29/76/8
f 10/78/9 28/84/9 27/79/9
f 14/81/10 22/86/10 19/82/10
f 28/84/11 18/72/11 17/74/11
f 30/85/12 14/81/12 11/83/12
f 22/86/13 40/91/13 39/87/13
f 40/88/14 25/73/14 26/89/14
