# Blender 4.0.2
# www.blender.org
mtllib mesh_prj_column.mtl
o Cylinder
v 0.000000 -3.000000 -0.025000
v 0.000000 3.000000 -0.025000
v 0.017678 -3.000000 -0.017678
v 0.017678 3.000000 -0.017678
v 0.025000 -3.000000 0.000000
v 0.025000 3.000000 0.000000
v 0.017678 -3.000000 0.017678
v 0.017678 3.000000 0.017678
v 0.000000 -3.000000 0.025000
v 0.000000 3.000000 0.025000
v -0.017678 -3.000000 0.017678
v -0.017678 3.000000 0.017678
v -0.025000 -3.000000 0.000000
v -0.025000 3.000000 0.000000
v -0.017678 -3.000000 -0.017678
v -0.017678 3.000000 -0.017678
v 0.000000 0.000000 -0.050000
v 0.035355 0.000000 -0.035355
v 0.050000 0.000000 0.000000
v 0.035355 0.000000 0.035355
v 0.000000 0.000000 0.050000
v -0.035355 0.000000 0.035355
v -0.050000 0.000000 0.000000
v -0.035355 0.000000 -0.035355
vn 0.3827 0.0077 -0.9239
vn 0.9239 0.0077 -0.3827
vn 0.9239 0.0077 0.3827
vn 0.3827 0.0077 0.9239
vn -0.3827 0.0077 0.9239
vn -0.9239 0.0077 0.3827
vn -0.0000 1.0000 -0.0000
vn -0.9239 0.0077 -0.3827
vn -0.3827 0.0077 -0.9239
vn -0.0000 -1.0000 -0.0000
vn -0.3827 -0.0077 -0.9239
vn -0.9239 -0.0077 -0.3827
vn -0.9239 -0.0077 0.3827
vn -0.3827 -0.0077 0.9239
vn 0.3827 -0.0077 0.9239
vn 0.9239 -0.0077 0.3827
vn 0.9239 -0.0077 -0.3827
vn 0.3827 -0.0077 -0.9239
vt 1.000000 0.500000
vt 1.000000 1.000000
vt 0.750000 1.000000
vt 0.750000 0.500000
vt 0.500000 1.000000
vt 0.500000 0.500000
vt 0.250000 1.000000
vt 0.250000 0.500000
vt 0.000000 1.000000
vt 0.000000 0.500000
vt 0.419706 0.419706
vt 0.250000 0.490000
vt 0.080294 0.419706
vt 0.010000 0.250000
vt 0.080294 0.080294
vt 0.250000 0.010000
vt 0.419706 0.080294
vt 0.490000 0.250000
vt 0.750000 0.490000
vt 0.919706 0.419706
vt 0.990000 0.250000
vt 0.919706 0.080294
vt 0.750000 0.010000
vt 0.580294 0.080294
vt 0.510000 0.250000
vt 0.580294 0.419706
vt 0.750000 0.000000
vt 1.000000 0.000000
vt 0.500000 0.000000
vt 0.250000 0.000000
vt 0.000000 0.000000
s 0
f 17/1/1 2/2/1 4/3/1 18/4/1
f 18/4/2 4/3/2 6/5/2 19/6/2
f 19/6/3 6/5/3 8/7/3 20/8/3
f 20/8/4 8/7/4 10/9/4 21/10/4
f 21/10/5 10/9/5 12/7/5 22/8/5
f 22/8/6 12/7/6 14/5/6 23/6/6
f 4/11/7 2/12/7 16/13/7 14/14/7 12/15/7 10/16/7 8/17/7 6/18/7
f 23/6/8 14/5/8 16/3/8 24/4/8
f 24/4/9 16/3/9 2/2/9 17/1/9
f 1/19/10 3/20/10 5/21/10 7/22/10 9/23/10 11/24/10 13/25/10 15/26/10
f 15/27/11 24/4/11 17/1/11 1/28/11
f 13/29/12 23/6/12 24/4/12 15/27/12
f 11/30/13 22/8/13 23/6/13 13/29/13
f 9/31/14 21/10/14 22/8/14 11/30/14
f 7/30/15 20/8/15 21/10/15 9/31/15
f 5/29/16 19/6/16 20/8/16 7/30/16
f 3/27/17 18/4/17 19/6/17 5/29/17
f 1/28/18 17/1/18 18/4/18 3/27/18
