# vertices
v -64 -32 -64
v -64 -32 192
v -64 0 192
v -64 0 -64
v 64 0 192
v 64 -32 192
v 64 -32 -64
v 64 0 -64
v -96 -32 -64
v -96 -32 192
v -96 96 192
v -96 96 -64
v -64 96 192
v -64 -32 192
v -64 -32 -64
v -64 96 -64
v 64 -32 -64
v 64 -32 192
v 64 96 192
v 64 96 -64
v 96 96 192
v 96 -32 192
v 96 -32 -64
v 96 96 -64
v -64 64 -64
v -64 64 192
v -64 96 192
v -64 96 -64
v 64 96 192
v 64 64 192
v 64 64 -64
v 64 96 -64
v -64 -32 -0
v -64 -32 32
v -64 96 32
v -64 96 -0
v -32 96 32
v -32 -32 32
v -32 -32 -0
v -32 96 -0
v 32 -32 -0
v 32 -32 32
v 32 96 32
v 32 96 -0
v 64 96 32
v 64 -32 32
v 64 -32 -0
v 64 96 -0
v -64 -32 96
v -64 -32 128
v -64 96 128
v -64 96 96
v -32 96 128
v -32 -32 128
v -32 -32 96
v -32 96 96
v 32 -32 96
v 32 -32 128
v 32 96 128
v 32 96 96
v 64 96 128
v 64 -32 128
v 64 -32 96
v 64 96 96

# texture coordinates
vt -4 -2
vt 12 -2
vt 12 -0
vt -4 -0
vt 4 -0
vt 4 -2
vt -4 -12
vt 4 -12
vt 4 4
vt -4 4
vt -12 -0
vt -12 -2
vt 12 6
vt -4 6
vt -6 6
vt -6 -2
vt 6 -12
vt 6 4
vt -6 4
vt -6 -12
vt 6 -2
vt 6 6
vt 4 6
vt -12 6
vt 12 4
vt -12 4
vt 0 -2
vt 2 -2
vt 2 6
vt 0 6
vt -2 6
vt -2 -2
vt 2 -0
vt -2 -0
vt 8 -2
vt 8 6
vt 2 -8
vt 4 -8
vt 4 -6
vt 2 -6
vt -2 -6
vt -4 -6
vt -4 -8
vt -2 -8
vt -8 6
vt -8 -2

# face normals
vn -1 0 -0
vn 0 0 1
vn 0 -1 -0
vn 0 1 -0
vn 0 0 -1
vn 1 0 -0

# objects
o world
usemtl test_textures/32x32_grey_block
f 8/9/4 4/10/4 3/7/4 5/8/4
f 16/23/6 13/24/6 14/12/6 15/6/6
f 17/1/1 18/2/1 19/13/1 20/14/1
f 30/7/3 26/8/3 25/9/3 31/10/3
f 37/31/2 35/14/2 34/1/2 38/32/2
f 39/28/5 33/6/5 36/23/5 40/29/5
f 40/30/6 37/31/6 38/32/6 39/27/6
f 41/27/1 42/28/1 43/29/1 44/30/1
f 45/23/2 43/29/2 42/28/2 46/6/2
f 47/1/5 41/32/5 44/31/5 48/14/5
f 53/31/2 51/14/2 50/1/2 54/32/2
f 55/28/5 49/6/5 52/23/5 56/29/5
f 56/15/6 53/45/6 54/46/6 55/16/6
f 57/21/1 58/35/1 59/36/1 60/22/1
f 61/23/2 59/29/2 58/28/2 62/6/2
f 63/1/5 57/32/5 60/31/5 64/14/5

