# vertices
v -4 -2 -8
v -4 -2 0
v -4 0 0
v -4 0 -8
v 4 0 0
v 4 -2 0
v 4 -2 -8
v 4 0 -8
v -12 -2 0
v -12 -2 16
v -12 0 16
v -12 0 0
v 12 0 16
v 12 -2 16
v 12 -2 0
v 12 0 0
v -12 0 -2
v -12 0 0
v -12 8 0
v -12 8 -2
v -4 8 0
v -4 0 0
v -4 0 -2
v -4 8 -2
v 4 0 -2
v 4 0 0
v 4 8 0
v 4 8 -2
v 12 8 0
v 12 0 0
v 12 0 -2
v 12 8 -2
v 12 0 0
v 12 0 16
v 12 8 16
v 12 8 0
v 14 8 16
v 14 0 16
v 14 0 0
v 14 8 0
v -14 0 0
v -14 0 16
v -14 8 16
v -14 8 0
v -12 8 16
v -12 0 16
v -12 0 0
v -12 8 0
v -12 0 16
v -12 0 20
v -12 2 20
v -12 2 16
v 12 2 20
v 12 0 20
v 12 0 16
v 12 2 16
v -4 4 -2
v -4 4 0
v -4 8 0
v -4 8 -2
v 4 8 0
v 4 4 0
v 4 4 -2
v 4 8 -2
v -6 0 -8
v -6 0 -2
v -6 4 -2
v -6 4 -8
v -4 4 -2
v -4 0 -2
v -4 0 -8
v -4 4 -8
v 4 0 -8
v 4 0 -2
v 4 4 -2
v 4 4 -8
v 6 4 -2
v 6 0 -2
v 6 0 -8
v 6 4 -8
v -4 4 -8
v -4 4 -2
v -4 6 -2
v -4 6 -8
v 4 6 -2
v 4 4 -2
v 4 4 -8
v 4 6 -8
v 4 0 8
v 4 0 10
v 4 8 10
v 4 8 8
v 6 8 10
v 6 0 10
v 6 0 8
v 6 8 8
v -6 0 8
v -6 0 10
v -6 8 10
v -6 8 8
v -4 8 10
v -4 0 10
v -4 0 8
v -4 8 8
v -12 8 0
v -12 8 16
v -12 10 16
v -12 10 0
v 12 10 16
v 12 8 16
v 12 8 0
v 12 10 0
v -2 0 20
v -2 0 22
v -2 2 22
v -2 2 20
v 2 2 22
v 2 0 22
v 2 0 20
v 2 2 20
v -12 2 20
v -12 2 22
v -12 8 22
v -12 8 20
v -2 8 22
v -2 2 22
v -2 2 20
v -2 8 20
v 2 2 20
v 2 2 22
v 2 8 22
v 2 8 20
v 12 8 22
v 12 2 22
v 12 2 20
v 12 8 20
v -14 2 16
v -14 2 20
v -14 8 20
v -14 8 16
v -12 8 20
v -12 2 20
v -12 2 16
v -12 8 16
v 12 2 16
v 12 2 20
v 12 8 20
v 12 8 16
v 14 8 20
v 14 2 20
v 14 2 16
v 14 8 16
v -12 6 16
v -12 6 20
v -12 8 20
v -12 8 16
v 12 8 20
v 12 6 20
v 12 6 16
v 12 8 16
v -2 6 20
v -2 6 22
v -2 8 22
v -2 8 20
v 2 8 22
v 2 6 22
v 2 6 20
v 2 8 20

# texture coordinates
vt -8 -2
vt 0 -2
vt 0 -0
vt -8 -0
vt 4 -0
vt -4 -0
vt -4 -2
vt 4 -2
vt 4 8
vt -4 8
vt 8 -0
vt 8 -2
vt 16 -2
vt 16 -0
vt 12 -0
vt -12 -0
vt -12 -2
vt 12 -2
vt -12 -16
vt 12 -16
vt -16 -0
vt -16 -2
vt -2 -0
vt 0 8
vt -2 8
vt -12 8
vt 12 2
vt 4 2
vt -4 2
vt -12 2
vt 12 8
vt 2 8
vt 2 -0
vt 16 8
vt 14 8
vt 14 -0
vt -14 -16
vt -14 -0
vt 14 -16
vt -14 8
vt -16 8
vt 20 -0
vt 20 2
vt 16 2
vt -12 -20
vt 12 -20
vt -16 2
vt -20 2
vt -20 -0
vt -2 4
vt 0 4
vt -4 4
vt 4 4
vt 2 4
vt -8 4
vt -6 4
vt -6 -0
vt 6 2
vt 6 8
vt -6 8
vt -6 2
vt 6 -0
vt 6 4
vt 8 4
vt -2 6
vt -8 6
vt 4 6
vt -4 6
vt 8 6
vt 2 6
vt 10 -0
vt 10 8
vt 8 8
vt -6 -10
vt -4 -10
vt -4 -8
vt -6 -8
vt 6 -8
vt 4 -8
vt 4 -10
vt 6 -10
vt -8 8
vt -10 8
vt -10 -0
vt 16 10
vt 0 10
vt 12 10
vt -12 10
vt -16 10
vt 22 -0
vt 22 2
vt 2 2
vt -2 2
vt -2 -22
vt 2 -22
vt 2 -20
vt -2 -20
vt -22 2
vt -22 -0
vt 22 8
vt 20 8
vt 12 -22
vt -12 -22
vt -20 8
vt -22 8
vt -14 2
vt 14 -20
vt -14 -20
vt 14 2
vt 16 6
vt 20 6
vt -12 6
vt 12 6
vt -20 6
vt -16 6
vt 22 6
vt -22 6

# face normals
vn -1 0 -0
vn 0 0 1
vn 0 -1 -0
vn 0 1 -0
vn 0 0 -1
vn 1 0 -0

# objects
o world
usemtl test_textures/32x32_grey_block
f 1/1/1 2/2/1 3/3/1 4/4/1
f 5/5/2 3/6/2 2/7/2 6/8/2
f 6/6/3 2/5/3 1/9/3 7/10/3
f 8/9/4 4/10/4 3/6/4 5/5/4
f 7/7/5 1/8/5 4/5/5 8/6/5
f 8/11/6 5/3/6 6/2/6 7/12/6
f 9/2/1 10/13/1 11/14/1 12/3/1
f 13/15/2 11/16/2 10/17/2 14/18/2
f 14/19/3 10/20/3 9/15/3 15/16/3
f 16/15/4 12/16/4 11/19/4 13/20/4
f 15/17/5 9/18/5 12/15/5 16/16/5
f 16/3/6 13/21/6 14/22/6 15/2/6
f 17/23/1 18/3/1 19/24/1 20/25/1
f 21/10/2 19/26/2 18/16/2 22/6/2
f 22/5/3 18/15/3 17/27/3 23/28/3
f 24/29/4 20/30/4 19/16/4 21/6/4
f 23/5/5 17/15/5 20/31/5 24/9/5
f 24/32/6 21/24/6 22/3/6 23/33/6
f 25/23/1 26/3/1 27/24/1 28/25/1
f 29/31/2 27/9/2 26/5/2 30/15/2
f 30/16/3 26/6/3 25/29/3 31/30/3
f 32/27/4 28/28/4 27/5/4 29/15/4
f 31/16/5 25/6/5 28/10/5 32/26/5
f 32/32/6 29/24/6 30/3/6 31/33/6
f 33/3/1 34/14/1 35/34/1 36/24/1
f 37/35/2 35/31/2 34/15/2 38/36/2
f 38/37/3 34/19/3 33/16/3 39/38/3
f 40/36/4 36/15/4 35/20/4 37/39/4
f 39/38/5 33/16/5 36/26/5 40/40/5
f 40/24/6 37/41/6 38/21/6 39/3/6
f 41/3/1 42/14/1 43/34/1 44/24/1
f 45/26/2 43/40/2 42/38/2 46/16/2
f 46/20/3 42/39/3 41/36/3 47/15/3
f 48/16/4 44/38/4 43/37/4 45/19/4
f 47/15/5 41/36/5 44/35/5 48/31/5
f 48/24/6 45/41/6 46/21/6 47/3/6
f 49/14/1 50/42/1 51/43/1 52/44/1
f 53/27/2 51/30/2 50/16/2 54/15/2
f 54/45/3 50/46/3 49/20/3 55/19/3
f 56/20/4 52/19/4 51/45/4 53/46/4
f 55/16/5 49/15/5 52/27/5 56/30/5
f 56/47/6 53/48/6 54/49/6 55/21/6
f 57/50/1 58/51/1 59/24/1 60/25/1
f 61/9/2 59/10/2 58/52/2 62/53/2
f 62/6/3 58/5/3 57/28/3 63/29/3
f 64/28/4 60/29/4 59/6/4 61/5/4
f 63/52/5 57/53/5 60/9/5 64/10/5
f 64/32/6 61/24/6 62/51/6 63/54/6
f 65/4/1 66/23/1 67/50/1 68/55/1
f 69/52/2 67/56/2 66/57/2 70/6/2
f 70/28/3 66/58/3 65/59/3 71/9/3
f 72/10/4 68/60/4 67/61/4 69/29/4
f 71/5/5 65/62/5 68/63/5 72/53/5
f 72/64/6 69/54/6 70/33/6 71/11/6
f 73/4/1 74/23/1 75/50/1 76/55/1
f 77/63/2 75/53/2 74/5/2 78/62/2
f 78/61/3 74/29/3 73/10/3 79/60/3
f 80/59/4 76/9/4 75/28/4 77/58/4
f 79/57/5 73/6/5 76/52/5 80/56/5
f 80/64/6 77/54/6 78/33/6 79/11/6
f 81/55/1 82/50/1 83/65/1 84/66/1
f 85/67/2 83/68/2 82/52/2 86/53/2
f 86/29/3 82/28/3 81/9/3 87/10/3
f 88/9/4 84/10/4 83/29/4 85/28/4
f 87/52/5 81/53/5 84/67/5 88/68/5
f 88/69/6 85/70/6 86/54/6 87/64/6
f 89/11/1 90/71/1 91/72/1 92/73/1
f 93/59/2 91/9/2 90/5/2 94/62/2
f 94/74/3 90/75/3 89/76/3 95/77/3
f 96/78/4 92/79/4 91/80/4 93/81/4
f 95/57/5 89/6/5 92/10/5 96/60/5
f 96/82/6 93/83/6 94/84/6 95/4/6
f 97/11/1 98/71/1 99/72/1 100/73/1
f 101/10/2 99/60/2 98/57/2 102/6/2
f 102/80/3 98/81/3 97/78/3 103/79/3
f 104/76/4 100/77/4 99/74/4 101/75/4
f 103/5/5 97/62/5 100/59/5 104/9/5
f 104/82/6 101/83/6 102/84/6 103/4/6
f 105/24/1 106/34/1 107/85/1 108/86/1
f 109/87/2 107/88/2 106/26/2 110/31/2
f 110/19/3 106/20/3 105/15/3 111/16/3
f 112/15/4 108/16/4 107/19/4 109/20/4
f 111/26/5 105/31/5 108/87/5 112/88/5
f 112/86/6 109/89/6 110/41/6 111/24/6
f 113/42/1 114/90/1 115/91/1 116/43/1
f 117/92/2 115/93/2 114/23/2 118/33/2
f 118/94/3 114/95/3 113/96/3 119/97/3
f 120/96/4 116/97/4 115/94/4 117/95/4
f 119/23/5 113/33/5 116/92/5 120/93/5
f 120/48/6 117/98/6 118/99/6 119/49/6
f 121/43/1 122/91/1 123/100/1 124/101/1
f 125/25/2 123/26/2 122/30/2 126/93/2
f 126/95/3 122/102/3 121/46/3 127/96/3
f 128/97/4 124/45/4 123/103/4 125/94/4
f 127/92/5 121/27/5 124/31/5 128/32/5
f 128/104/6 125/105/6 126/98/6 127/48/6
f 129/43/1 130/91/1 131/100/1 132/101/1
f 133/31/2 131/32/2 130/92/2 134/27/2
f 134/103/3 130/94/3 129/97/3 135/45/3
f 136/46/4 132/96/4 131/95/4 133/102/4
f 135/30/5 129/93/5 132/25/5 136/26/5
f 136/104/6 133/105/6 134/98/6 135/48/6
f 137/44/1 138/43/1 139/101/1 140/34/1
f 141/26/2 139/40/2 138/106/2 142/30/2
f 142/46/3 138/107/3 137/39/3 143/20/3
f 144/19/4 140/37/4 139/108/4 141/45/4
f 143/27/5 137/109/5 140/35/5 144/31/5
f 144/41/6 141/104/6 142/48/6 143/47/6
f 145/44/1 146/43/1 147/101/1 148/34/1
f 149/35/2 147/31/2 146/27/2 150/109/2
f 150/108/3 146/45/3 145/19/3 151/37/3
f 152/39/4 148/20/4 147/46/4 149/107/4
f 151/106/5 145/30/5 148/26/5 152/40/5
f 152/41/6 149/104/6 150/48/6 151/47/6
f 153/110/1 154/111/1 155/101/1 156/34/1
f 157/31/2 155/26/2 154/112/2 158/113/2
f 158/45/3 154/46/3 153/20/3 159/19/3
f 160/20/4 156/19/4 155/45/4 157/46/4
f 159/112/5 153/113/5 156/31/5 160/26/5
f 160/41/6 157/104/6 158/114/6 159/115/6
f 161/111/1 162/116/1 163/100/1 164/101/1
f 165/32/2 163/25/2 162/65/2 166/70/2
f 166/94/3 162/95/3 161/96/3 167/97/3
f 168/96/4 164/97/4 163/94/4 165/95/4
f 167/65/5 161/70/5 164/32/5 168/25/5
f 168/104/6 165/105/6 166/117/6 167/114/6

