# vertices
v 2.75 0.25 2
v 0.25 0.25 2
v 0 0 2
v 4 0 2
v 0 0 -2
v 4 0 -2
v 0.25 0.25 -2
v 2.75 0.25 -2
v 0 4 -2
v 0 4 2
v 0.25 2.75 2
v 0.25 2.75 -2
v 1.75 0.75 2
v 0.75 0.75 2
v 0.75 0.75 -2
v 1.75 0.75 -2
v 0.75 1.75 2
v 0.75 1.75 -2

# texture coordinates
vt -2.75 -0.24999996
vt -0.25 -0.25
vt 0 0
vt -4 5.9604645e-8
vt -4 -2
vt 0 -2
vt 0 2
vt -4 2
vt 4 5.9604645e-8
vt 0.25 -0.25
vt 2.75 -0.24999996
vt 2 -4
vt 2 0
vt -2 0
vt -2 -4
vt -0.25000003 -2.75
vt -5.9604645e-8 -4
vt 5.9604645e-8 -4
vt 0.25000003 -2.75
vt -1.75 -0.75
vt -0.75 -0.75
vt 0.75 -0.75
vt 1.75 -0.75
vt -0.75 -1.75
vt 0.75 -1.75
vt 2 -2.75
vt -2 -2.75
vt 1.9999999 2.75
vt 1.9999999 4
vt -2.0000002 4
vt -2 2.75
vt 2 -1.75
vt -2 -1.75
vt 2 1.7499999
vt 2.0000002 2.75
vt -1.9999999 2.75
vt -1.9999999 1.7500001
vt 1.9999995 1.7500006
vt -2.0000005 1.7499994
vt -2.0000002 0.7499994
vt 1.9999998 0.75000054

# face normals
vn 0 0 1
vn 0 -1 0
vn 0 0 -1
vn -1 0 0
vn 0.19611613513818404 0.9805806756909202 0
vn 0.9805806756909202 0.19611613513818404 0
vn 0.4472135954999579 0.8944271909999159 0
vn 0.8944271909999159 0.4472135954999579 0
vn 0.7071067811865475 0.7071067811865475 0

# objects

o entity1
usemtl 32x32_grey_block
f 1/1/1 2/2/1 3/3/1 4/4/1
f 4/5/2 3/6/2 5/7/2 6/8/2
f 6/9/3 5/3/3 7/10/3 8/11/3
f 9/12/4 5/13/4 3/14/4 10/15/4
f 11/16/1 10/17/1 3/3/1 2/2/1
f 7/10/3 5/3/3 9/18/3 12/19/3
f 13/20/1 14/21/1 2/2/1 1/1/1
f 8/11/3 7/10/3 15/22/3 16/23/3
f 17/24/1 11/16/1 2/2/1 14/21/1
f 15/22/3 7/10/3 12/19/3 18/25/3
f 17/24/1 14/21/1 13/20/1
f 16/23/3 15/22/3 18/25/3
usemtl 32x32_darkgrey_block
f 8/26/5 1/27/5 4/15/5 6/12/5
f 12/28/6 9/29/6 10/30/6 11/31/6
f 16/32/7 13/33/7 1/27/7 8/26/7
f 18/34/8 12/35/8 11/36/8 17/37/8
f 18/38/9 17/39/9 13/40/9 16/41/9
