# vertices
v -32 6 -18
v -32 6 -17
v -32 10 -17
v -32 10 -18
v -31 6 -17
v -31 6 -18
v -31 10 -18
v -31 10 -17
v -31 11 -17
v -31 11 -18
v -27 11 -17
v -27 10 -17
v -27 11 -18
v -27 10 -18
v -35 6 -19
v -35 6 -18
v -35 10 -18
v -35 10 -19
v -31 6 -19
v -27 6 -19
v -27 6 -16
v -27 5 -16
v -27 5 -19
v -26 6 -17
v -27 6 -17
v -27 6 -18
v -26 6 -18
v -26 10 -18
v -26 10 -17
v -23 6 -18
v -23 6 -19
v -23 10 -19
v -23 10 -18
v -35 14 -18
v -35 14 -19
v -23 14 -18
v -23 14 -19
v -36 6 -25
v -36 6 -19
v -36 10 -19
v -36 10 -29
v -35 6 -25
v -36 14 -19
v -36 14 -29
v -35 14 -29
v -35 10 -29
v -35 15 -19
v -35 15 -29
v -23 15 -19
v -23 15 -29
v -23 14 -29
v -35 10 -30
v -35 14 -30
v -23 14 -30
v -23 10 -30
v -23 10 -29
v -23 10 -33
v -35 10 -33
v -22 14 -19
v -22 10 -19
v -22 14 -29
v -22 10 -29
v -4 10 -29
v -23 6 -25
v -4 6 -25
v -35 2 -25
v -23 2 -25
v -35 -2 -29
v -23 -2 -29
v -35 -2 -33
v -23 -2 -33
v -35 2 -37
v -23 2 -37
v -35 6 -37
v -23 6 -37
v -33 6 -37
v -33 10 -33
v -34 6 -37
v -34 10 -33
v -34 14 -33
v -34 14 -37
v -33 14 -33
v -33 14 -37
v -31 14 -33
v -33 9 -33
v -31 9 -33
v -34 15 -33
v -34 15 -37
v -30 15 -33
v -30 14 -33
v -30 15 -37
v -30 14 -37
v -31 10 -33
v -30 10 -33
v -30 6 -37
v -31 6 -37
v -31 14 -37
v -27 6 -37
v -27 10 -33
v -25 14 -33
v -27 14 -33
v -27 9 -33
v -25 9 -33
v -28 14 -37
v -28 14 -33
v -28 15 -33
v -28 15 -37
v -24 15 -33
v -24 14 -33
v -24 15 -37
v -24 14 -37
v -28 6 -37
v -28 10 -33
v -27 14 -37
v -25 10 -33
v -24 10 -33
v -24 6 -37
v -25 6 -37
v -25 14 -37
v -4 10 -33
v -4 6 -37
v -4 2 -37
v -4 -2 -33
v -4 2 -25
v -4 -2 -29
v -3 -4 -33
v -3 -4 -25
v -3 -1 -25
v -3 -1 -33
v 9 -4 -25
v 9 -4 -33
v 9 -1 -33
v 9 -1 -25
v 9 -2 -33
v -3 -2 -33
v -3 2 -37
v 9 2 -37
v -3 6 -37
v 9 6 -37
v -3 10 -33
v 9 10 -33
v -4 6 -26
v -4 9 -26
v -4 9 -29
v -4 -1 -26
v -4 -1 -25
v -4 9 -25
v -4 -1 -29
v -4 2 -26
v -4 -2 -25
v -4 -1 -33
v -3 -2 -25
v -4 20 -33
v -4 20 -29
v -4 21 -29
v -4 21 -33
v 10 21 -29
v 10 20 -29
v 10 21 -33
v 10 20 -33
v -4 10 -34
v -4 20 -34
v 10 10 -33
v 10 10 -34
v 10 20 -34
v -4 10 -28
v -4 20 -28
v 10 20 -28
v 10 10 -28
v 10 10 -29
v -5 10 -33
v -5 10 -29
v -5 20 -29
v -5 20 -33
v 11 20 -29
v 11 10 -29
v 11 20 -33
v 11 10 -33
v -4 10 -25
v 10 10 -25
v 10 9 -25
v 10 9 -29
v 10 6 -37
v 10 2 -37
v 10 -2 -33
v 9 -2 -29
v 9 -1 -29
v 10 -1 -29
v 10 -2 -29
v 10 -1 -33
v 10 -1 -26
v 10 2 -26
v 10 -1 -25
v 9 -1 -26
v 10 9 -26
v 10 6 -26
v -35 5 -25
v -35 5 -19
v -23 5 -19
v -23 5 -25
v -22 6 -19
v -22 6 -25
v -31 10 -19
v -27 10 -19
v -30 5 -28
v -30 5 -26
v -30 6 -26
v -30 6 -28
v -28 5 -28
v -28 6 -28
v -28 6 -26
v -28 5 -26
v -31 5 -19
v -31 5 -16
v -31 6 -16
v -23 6 -26
v -35 6 -26
v -35 9 -29
v -23 9 -29
v -33 6 -36
v -31 6 -36
v -27 6 -36
v -4 9 -33
v -3 9 -33
v 9 9 -33
v -3 6 -26
v -3 9 -29
v -3 -1 -26
v -3 9 -26
v -3 -1 -29
v -3 2 -26
v -3 2 -36
v -4 2 -36
v -3 6 -36
v -4 6 -36
v 10 9 -33
v 9 6 -36
v 10 6 -36
v 9 2 -36
v 10 2 -36
v 9 2 -26
v 9 9 -26
v 9 6 -26
v 9 9 -29
v -25 6 -36
v -35 9 -33
v -23 9 -33
v -23 2 -26
v -35 2 -26
v -23 -1 -29
v -35 -1 -29
v -23 -1 -33
v -35 -1 -33
v -23 2 -36
v -35 2 -36
v -23 6 -36
v -35 6 -36
v -33 9 -34
v -31 9 -34
v -33 14 -34
v -31 14 -34
v -31 14 -36
v -33 14 -36
v -27 9 -34
v -25 9 -34
v -27 14 -34
v -25 14 -34
v -25 14 -36
v -27 14 -36
v -3 9 -25
v 9 9 -25

# texture coordinates
vt -18 6
vt -17 6
vt -17 10
vt -18 10
vt -17 31
vt -17 32
vt -18 32
vt -18 31
vt 18 31
vt 18 32
vt 17 32
vt 17 31
vt -17 11
vt -18 11
vt -27 11
vt -31 11
vt -31 10
vt -27 10
vt 18 27
vt 17 27
vt 27 10
vt 31 10
vt 31 11
vt 27 11
vt 18 11
vt 17 11
vt 17 10
vt 18 10
vt -19 6
vt -19 10
vt -35 10
vt -35 6
vt -31 6
vt -18 35
vt -19 35
vt -19 31
vt 19 6
vt 16 6
vt 16 5
vt 19 5
vt -17 26
vt -17 27
vt -18 27
vt -18 26
vt 18 26
vt 17 26
vt 17 6
vt 18 6
vt -18 23
vt -19 27
vt -19 23
vt 19 10
vt -18 14
vt -19 14
vt -23 14
vt -35 14
vt -23 10
vt 19 23
vt 19 35
vt 18 35
vt 18 23
vt 19 14
vt 18 14
vt -25 6
vt -29 10
vt -36 10
vt -36 6
vt -19 36
vt -25 36
vt -25 35
vt -29 14
vt -36 14
vt 29 35
vt 29 36
vt 19 36
vt 35 10
vt 36 10
vt 36 14
vt 35 14
vt -19 15
vt -29 15
vt -23 15
vt -35 15
vt 29 23
vt 23 14
vt 35 15
vt 23 15
vt 29 15
vt 19 15
vt 29 14
vt -30 10
vt -30 14
vt 30 23
vt 30 35
vt 23 10
vt 30 14
vt 29 10
vt 30 10
vt 33 23
vt 33 35
vt -22 14
vt -22 10
vt 29 22
vt 19 22
vt 22 10
vt 22 14
vt -29 4
vt -29 23
vt -25 23
vt -25 4
vt -23 6
vt -35 2
vt -23 2
vt 25 -23
vt 25 -35
vt 29 -35
vt 29 -23
vt -29 35
vt -33 35
vt -33 23
vt -2 23
vt -2 35
vt 2 35
vt 2 23
vt 23 2
vt 35 2
vt 35 6
vt 23 6
vt -6 -33
vt -6 -35
vt -10 -35
vt -10 -33
vt -37 6
vt -33 10
vt -33 14
vt -37 14
vt -34 14
vt -34 10
vt -33 33
vt -33 34
vt -37 34
vt -37 33
vt 37 33
vt 37 34
vt 33 34
vt 33 33
vt 33 6
vt 34 6
vt 34 14
vt 33 14
vt -31 14
vt -33 9
vt -31 9
vt -33 15
vt -37 15
vt -30 15
vt -34 15
vt 37 30
vt 33 30
vt 34 15
vt 30 15
vt 37 15
vt 33 15
vt 37 14
vt 30 6
vt 31 6
vt 31 14
vt 33 10
vt 37 6
vt -6 -27
vt -6 -31
vt -10 -31
vt -10 -27
vt -25 14
vt -27 14
vt -27 9
vt -25 9
vt -24 15
vt -28 15
vt -28 14
vt -24 14
vt 37 24
vt 37 28
vt 33 28
vt 33 24
vt 24 14
vt 28 14
vt 28 15
vt 24 15
vt -28 10
vt 27 6
vt 28 6
vt 27 14
vt -25 10
vt -24 10
vt 24 6
vt 25 6
vt 25 14
vt 33 4
vt 29 4
vt -6 -4
vt -6 -23
vt -10 -23
vt -10 -4
vt 4 2
vt 4 6
vt -2 4
vt 2 4
vt 25 -4
vt 29 -4
vt -4 6
vt -4 2
vt -33 4
vt -33 -4
vt -25 -4
vt -25 -1
vt -33 -1
vt -25 -9
vt -25 3
vt -33 3
vt -33 -9
vt -9 -4
vt 3 -4
vt 3 -1
vt -9 -1
vt 33 -1
vt 25 -1
vt 33 -4
vt -2 -9
vt -2 3
vt 2 3
vt 2 -9
vt -9 2
vt 3 2
vt 3 6
vt -9 6
vt -6 9
vt -6 -3
vt -10 -3
vt -10 9
vt -26 5.999999523162842
vt -26 8.999999046325684
vt -29 8.999999046325684
vt -26 -1
vt -26 9
vt 1.0000005960464478 -29
vt 1.0000005960464478 -26
vt -1.9999994039535522 -26
vt -33 -2
vt -25 -2
vt 33 -20
vt 29 -20
vt 29 -21
vt 33 -21
vt -10 -21
vt 4 -21
vt 4 -20
vt -10 -20
vt 33 -10
vt 29 -10
vt 10 -20
vt -4 -20
vt -4 -21
vt 10 -21
vt -33 -21
vt -29 -21
vt -29 -20
vt -33 -20
vt 34 -10
vt 34 -20
vt -33 -10
vt -34 4
vt -34 -10
vt 34 4
vt 10 -10
vt -4 -10
vt -34 -20
vt 28 -10
vt 28 -20
vt 4 -10
vt -10 -10
vt 28 4
vt -28 -20
vt -28 -10
vt -29 -10
vt 5 -20
vt 5 -10
vt 33 5
vt 29 5
vt -5 -10
vt -5 -20
vt -11 -20
vt -11 -10
vt 33 -11
vt 29 -11
vt 11 -10
vt 11 -20
vt 29 -9
vt 25 -9
vt 25 -10
vt 25 4
vt -25 -10
vt -29 -9
vt -6 10
vt -10 10
vt -10 2
vt -10 6
vt -2 -10
vt 2 -10
vt -29 -2
vt -29 -1
vt 10 -1
vt 9 -1
vt 9 -2
vt 10 -2
vt -10 -2
vt -9 -2
vt -10 -1
vt 29 -1
vt 29 -2
vt 33 -2
vt -1.0000005960464478 -26
vt -1.0000005960464478 -29
vt 1.9999994039535522 -26
vt -26 -9
vt -26 -10
vt 26 9
vt 25 9
vt 26 -1
vt 29 8.999999046325684
vt 26 8.999999046325684
vt 26 5.999999523162842
vt -6 -25
vt -10 -25
vt -25 5
vt -19 5
vt -35 5
vt -23 5
vt 25 5
vt -22 6
vt -19 22
vt -25 22
vt 4.5 2.5
vt 4.25 2.5
vt 4.25 1.5
vt 4.5 1.5
vt -4.25 6.5
vt -4.25 7.5
vt -4.5 7.5
vt -4.5 6.5
vt -4.5 1.5
vt -4.25 1.5
vt -4.25 2.5
vt -4.5 2.5
vt 8 1
vt 9 1
vt 9 2
vt 8 2
vt 6 1
vt 7 1
vt 7 2
vt 6 2
vt 4.75 2.5
vt 4.75 1.5
vt -4.75 1.5
vt -4.75 2.5
vt -4.5 5.5
vt -4.5 8.5
vt -4.75 8.5
vt -4.75 5.5
vt -1.2499996423721313 -7
vt -1.249999761581421 -6.5
vt -1.499999761581421 -6.5
vt -1.4999996423721313 -7
vt -1.2500003576278687 7
vt -1.2500003576278687 7.5
vt -1.5000003576278687 7.5
vt -1.5000003576278687 7
vt -1.500000238418579 6.5
vt -1.250000238418579 6.5
vt -4.75 1.25
vt -4 1.25
vt -4 1.5
vt -6.75 -4
vt -7.75 -4
vt -7.75 -4.75
vt -6.75 -4.75
vt -6.5 7
vt -6.5 7.5
vt -7 7.5
vt -7 7
vt 6.75 -4.75
vt 7.75 -4.75
vt 7.75 -4
vt 6.75 -4
vt 7 7
vt 7 7.5
vt 6.5 7.5
vt 6.5 7
vt 6.5 5.75
vt 6.5 8.75
vt 6.25 8.75
vt 6.25 5.75
vt 4.75 8.75
vt 4.75 5.75
vt 9 3
vt 6 3
vt 7.5 3
vt 5 3
vt 5 2
vt 7.5 2
vt -5.5 3
vt -8.5 3
vt -8.5 2
vt -5.5 2
vt -7 2
vt -4.5 2
vt -4.5 3
vt -7 3
vt 7.25 2.5
vt 6.25 1.5
vt -6.25 1.5
vt -7.25 2.5
vt -4.5 5.75
vt -4.5 8.75
vt -7 8.75
vt -7 5.75
vt 5.75 -2.5
vt 8.75 -2.5
vt 8.75 -2.25
vt 5.75 -2.25
vt 7.780329704284668 -2.030329942703247
vt 6.719669342041016 -2.030329704284668
vt 6.5428924560546875 -2.207106351852417
vt 7.957106113433838 -2.207106590270996
vt -4.065863609313965 -7.60139799118042
vt -4.242640495300293 -7.424621105194092
vt -5.303300857543945 -7.424621105194092
vt -5.480077266693115 -7.60139799118042
vt -5.480078220367432 7.601397514343262
vt -5.3033013343811035 7.424620628356934
vt -4.242640972137451 7.424621105194092
vt -4.065864562988281 7.601397514343262
vt -8.25 -2.5
vt -7.25 -2.5
vt -7.25 -2.25
vt -8.25 -2.25
vt -2.25 -2.5
vt 0.75 -2.5
vt 0.75 -2.25
vt -2.25 -2.25
vt -6.5 0.75
vt -6.5 1
vt -7.25 1
vt -7.25 0.75
vt 0.2499999701976776 0.75
vt 0.24999995529651642 1
vt -2.25 0.9999998807907104
vt -2.25 0.7499998807907104
vt 0.25000014901161194 0.75
vt 0.25000014901161194 1
vt -0.49999985098838806 1
vt -0.49999985098838806 0.75
vt 8.25 0.75
vt 8.25 1
vt 6.25 1
vt 6.25 0.75
vt -0.5 0.75
vt -0.5 1
vt 0.25 1
vt 0.25 0.75
vt -1.5 -0.7500000596046448
vt -1.5 -1.0000001192092896
vt -0.4999999701976776 -1
vt -0.4999999701976776 -0.75
vt 1 -2.5
vt 1 -2.25
vt 2.25 -0.75
vt 2.25 -1
vt 1.5 -1
vt 1.5 -0.75
vt 2.5 -2.25
vt -1 -2.25
vt -1 -2.5
vt 2.5 -2.5
vt -2.5 -2.5
vt -2.5 -2.25
vt 2.25 2.5
vt 2.25 2.25
vt 1.5 2.25
vt 1.5 2.5
vt -1.5000001192092896 2.5
vt -1.5000001192092896 2.25
vt -0.5000001192092896 2.25
vt -0.5000001192092896 2.5
vt -0.5 -2.5
vt -0.5 -2.25
vt 0.25 -2.25
vt 0.25 -2.5
vt 8.25 -2.5
vt 8.25 -2.25
vt 7.25 -2.25
vt 7.25 -2.5
vt 0.25000014901161194 -2.5
vt 0.25000014901161194 -2.25
vt -0.49999985098838806 -2.25
vt -0.49999985098838806 -2.5
vt 0.25000011920928955 -2.5
vt 0.25000008940696716 -2.25
vt -6.5 -2.5
vt -6.5 -2.25
vt -7.25 5.75
vt -7.25 8.75
vt -8.25 8.75
vt -8.25 5.75
vt -6.5 -0.9999994039535522
vt -6.500000476837158 -5.749999523162842
vt -7.250000476837158 -5.749999523162842
vt -7.25 -0.9999993443489075
vt 5.75 0.5
vt 8.75 0.5
vt 8.75 1.5
vt 5.75 1.5
vt -7.25 -5.75
vt -7.25 -8.75
vt -6.5 -8.75
vt -6.5 -5.75
vt 8.25 5.75
vt 8.25 8.75
vt 7.25 8.75
vt 7.25 5.75
vt -0.5 5.75
vt -0.5 8.75
vt 0.25 8.75
vt 0.25 5.75
vt -5.75 1.5
vt -8.75 1.5
vt -8.75 0.5
vt -5.75 0.5
vt 2.25 -8.25
vt 2.25 -8.75
vt 1.5 -8.75
vt 1.5 -8.25
vt 9.25 3.5
vt 8.25 3.5
vt 8.25 2.5
vt 9.25 1.5
vt -8.25 7.75
vt -8.25 8.25
vt -8.5 8.25
vt -8.5 7.75
vt 7.75 2.25
vt 8.25 2.25
vt 7.75 3.5
vt -8.25 7.5
vt -8.25 8.5
vt -9.25 8.5
vt -9.25 7.5
vt -9.25 1.5
vt -8.25 2.5
vt -8.25 3.5
vt -9.25 3.5
vt -7.75 3.5
vt -8.25 1.5
vt -7.75 1.5
vt 2.25 -6.75
vt 2.25 -7.75
vt 1.5 -7.75
vt 1.5 -6.75
vt -8.25 6.25
vt -8.25 6.75
vt -8.5 6.75
vt -8.5 6.25
vt 6.25 2.25
vt 6.75 2.25
vt 6.75 3.5
vt 6.25 3.5
vt -8.25 6
vt -8.25 7
vt -9.25 7
vt -9.25 6
vt -6.25 3.5
vt -6.75 3.5
vt -6.75 1.5
vt -8.25 1
vt 2.25 -5.75
vt 1.5 -5.75
vt -1 1.5
vt -1 0.5
vt 0.9999999403953552 -7.25
vt 5.75 -7.25
vt 5.75 -6.5
vt 0.9999999403953552 -6.5
vt 1 0.5
vt 1 1.5
vt -0.9999998807907104 8.25
vt -5.75 8.25
vt -5.75 7.25
vt -0.9999999403953552 7.25
vt 6.25 -2.25
vt 2.25 1.5
vt -0.75 1.5
vt -0.75 0.5
vt 2.25 0.5
vt 7.25 2.249999761581421
vt 6.5 2.249999761581421
vt 6.5 1.4999998807907104
vt 6.5 2.25
vt 6.25 -0.25
vt 6.5 -0.25
vt -0.25000014901161194 -6.5
vt -0.25000014901161194 -7.25
vt 0.49999985098838806 -6.5
vt -2.5 -5
vt 1 -5
vt -1 -5
vt 2.5 -5
vt -8.25 -5
vt -7.25 -5
vt 7.25 -5
vt 8.25 -5
vt -6.25 -2.5
vt -6.25 1
vt 0.25000014901161194 -7.25
vt 0.25000014901161194 -6.5
vt -0.49999985098838806 -6.5
vt -6.5 -0.25
vt -6.25 -0.25
vt -6.25 2.25
vt -6.5 2.25
vt -6.5 1.4999998807907104
vt -6.5 2.249999761581421
vt -7.25 2.249999761581421
vt 2.25 -6.25
vt 1.5 -6.25

# face normals
vn -1 0 0
vn 0 -1 0
vn 0 1 0
vn 0 0 1
vn 0 0 -1
vn 1 0 0
vn 0 0.7071067811865475 0.7071067811865475
vn 0 -0.7071067811865475 0.7071067811865475
vn 0 -0.7071067811865475 -0.7071067811865475
vn 0 0.7071067811865475 -0.7071067811865475
vn 0 -0.7071067811865476 -0.7071067811865476
vn 0 0.7071067811865476 -0.7071067811865476
vn 0 0.7071067811865476 0.7071067811865476
vn 0 -0.7071067811865476 0.7071067811865476

# objects

o entity4
usemtl 32x32_grey_block
f 1/1/1 2/2/1 3/3/1 4/4/1
f 5/5/2 2/6/2 1/7/2 6/8/2
f 7/9/3 4/10/3 3/11/3 8/12/3
f 7/4/1 8/3/1 9/13/1 10/14/1
f 11/15/4 9/16/4 8/17/4 12/18/4
f 13/19/3 10/9/3 9/12/3 11/20/3
f 14/21/5 7/22/5 10/23/5 13/24/5
f 13/25/6 11/26/6 12/27/6 14/28/6
f 15/29/1 16/1/1 17/4/1 18/30/1
f 7/17/4 17/31/4 16/32/4 6/33/4
f 6/8/2 16/34/2 15/35/2 19/36/2
f 20/37/6 21/38/6 22/39/6 23/40/6
f 24/41/2 25/42/2 26/43/2 27/44/2
f 28/45/3 14/19/3 12/20/3 29/46/3
f 28/28/6 29/27/6 24/47/6 27/48/6
f 30/49/2 26/43/2 20/50/2 31/51/2
f 32/52/6 33/28/6 30/48/6 31/37/6
f 18/30/1 17/4/1 34/53/1 35/54/1
f 36/55/4 34/56/4 17/31/4 33/57/4
f 37/58/3 35/59/3 34/60/3 36/61/3
f 37/62/6 36/63/6 33/28/6 32/52/6
f 38/64/1 39/29/1 40/30/1 41/65/1
f 18/31/4 40/66/4 39/67/4 15/32/4
f 15/35/2 39/68/2 38/69/2 42/70/2
f 41/65/1 40/30/1 43/54/1 44/71/1
f 35/56/4 43/72/4 40/66/4 18/31/4
f 45/73/3 44/74/3 43/75/3 35/59/3
f 46/76/5 41/77/5 44/78/5 45/79/5
f 45/71/1 35/54/1 47/80/1 48/81/1
f 49/82/4 47/83/4 35/56/4 37/55/4
f 50/84/3 48/73/3 47/59/3 49/58/3
f 51/85/5 45/79/5 48/86/5 50/87/5
f 50/88/6 49/89/6 37/62/6 51/90/6
f 52/91/1 46/65/1 45/71/1 53/92/1
f 54/93/3 53/94/3 45/73/3 51/84/3
f 55/95/5 52/76/5 53/79/5 54/85/5
f 54/96/6 51/90/6 56/97/6 55/98/6
f 57/99/3 58/100/3 46/73/3 56/84/3
f 59/101/4 37/55/4 32/57/4 60/102/4
f 61/103/3 51/84/3 37/58/3 59/104/3
f 62/105/5 56/95/5 51/85/5 61/106/5
f 61/90/6 59/62/6 60/52/6 62/97/6
f 63/107/7 56/108/7 64/109/7 65/110/7
f 64/111/4 42/32/4 66/112/4 67/113/4
f 67/114/8 66/115/8 68/116/8 69/117/8
f 69/108/2 68/118/2 70/119/2 71/120/2
f 71/121/9 70/122/9 72/123/9 73/124/9
f 73/125/5 72/126/5 74/127/5 75/128/5
f 76/129/10 74/130/10 58/131/10 77/132/10
f 78/133/1 79/134/1 80/135/1 81/136/1
f 82/135/4 80/137/4 79/138/4 77/134/4
f 77/139/8 79/140/8 78/141/8 76/142/8
f 83/143/3 81/144/3 80/145/3 82/146/3
f 76/147/5 78/148/5 81/149/5 83/150/5
f 84/151/4 82/135/4 85/152/4 86/153/4
f 81/136/1 80/135/1 87/154/1 88/155/1
f 89/156/4 87/157/4 80/137/4 90/92/4
f 91/158/3 88/144/3 87/145/3 89/159/3
f 92/96/5 81/149/5 88/160/5 91/161/5
f 91/162/6 89/163/6 90/150/6 92/164/6
f 90/92/4 84/151/4 93/17/4 94/91/4
f 95/165/5 96/166/5 97/167/5 92/96/5
f 92/164/6 90/150/6 94/168/6 95/169/6
f 96/166/5 76/147/5 83/150/5 97/167/5
f 98/170/10 96/171/10 93/172/10 99/173/10
f 100/174/4 101/175/4 102/176/4 103/177/4
f 104/136/1 105/135/1 106/154/1 107/155/1
f 108/178/4 106/179/4 105/180/4 109/181/4
f 110/182/3 107/183/3 106/184/3 108/185/3
f 111/186/5 104/187/5 107/188/5 110/189/5
f 110/162/6 108/163/6 109/150/6 111/164/6
f 112/133/1 113/134/1 105/135/1 104/136/1
f 101/175/4 105/180/4 113/190/4 99/18/4
f 98/191/5 112/192/5 104/187/5 114/193/5
f 109/181/4 100/174/4 115/194/4 116/195/4
f 117/196/5 118/197/5 119/198/5 111/186/5
f 111/164/6 109/150/6 116/168/6 117/169/6
f 118/197/5 98/191/5 114/193/5 119/198/5
f 120/199/3 57/99/3 56/84/3 63/200/3
f 121/201/10 75/202/10 57/203/10 120/204/10
f 122/205/5 73/125/5 75/128/5 121/206/5
f 123/207/9 71/121/9 73/124/9 122/208/9
f 124/209/8 67/114/8 69/117/8 125/210/8
f 65/211/4 64/111/4 67/113/4 124/212/4
f 125/107/2 69/108/2 71/120/2 123/213/2
f 126/214/1 127/215/1 128/216/1 129/217/1
f 130/218/2 127/219/2 126/220/2 131/221/2
f 131/222/5 126/223/5 129/224/5 132/225/5
f 132/226/6 133/227/6 130/209/6 131/228/6
f 134/229/9 135/230/9 136/231/9 137/232/9
f 137/233/5 136/234/5 138/235/5 139/236/5
f 139/237/10 138/238/10 140/239/10 141/240/10
f 142/241/1 143/242/1 144/243/1
f 145/244/1 146/216/1 147/177/1 143/245/1
f 148/246/1 145/247/1 149/248/1
f 123/249/1 150/250/1 146/216/1 151/217/1
f 152/219/2 150/110/2 123/213/2 135/220/2
f 135/230/9 123/207/9 122/208/9 136/231/9
f 136/234/5 122/205/5 121/206/5 138/235/5
f 138/238/10 121/201/10 120/204/10 140/239/10
f 153/251/1 154/252/1 155/253/1 156/254/1
f 157/255/4 155/256/4 154/257/4 158/258/4
f 159/259/3 156/199/3 155/200/3 157/260/3
f 160/261/5 153/262/5 156/263/5 159/264/5
f 159/265/6 157/266/6 158/267/6 160/268/6
f 161/269/1 120/259/1 153/251/1 162/270/1
f 163/271/2 120/213/2 161/272/2 164/273/2
f 165/269/3 162/274/3 153/199/3 160/259/3
f 164/275/5 161/276/5 162/262/5 165/261/5
f 165/277/6 160/268/6 163/271/6 164/273/6
f 63/260/1 166/278/1 167/279/1 154/252/1
f 168/258/4 167/257/4 166/280/4 169/281/4
f 158/260/3 154/200/3 167/282/3 168/278/3
f 158/267/6 168/283/6 169/284/6 170/285/6
f 171/259/1 172/260/1 173/252/1 174/251/1
f 154/257/4 173/286/4 172/287/4 63/280/4
f 153/199/3 174/288/3 173/289/3 154/200/3
f 120/276/5 171/290/5 174/291/5 153/262/5
f 175/292/4 158/258/4 170/281/4 176/293/4
f 177/294/3 160/259/3 158/260/3 175/295/3
f 178/296/5 163/275/5 160/261/5 177/297/5
f 177/268/6 175/267/6 176/285/6 178/271/6
f 144/298/1 147/299/1 179/300/1 63/260/1
f 170/260/3 63/200/3 179/301/3 180/300/3
f 170/285/6 180/302/6 181/218/6 182/303/6
f 183/304/10 139/237/10 141/240/10 163/305/10
f 184/306/5 137/233/5 139/236/5 183/307/5
f 185/308/9 134/229/9 137/232/9 184/309/9
f 134/249/1 186/310/1 187/311/1 132/217/1
f 188/312/4 187/313/4 186/314/4 189/315/4
f 189/285/2 186/303/2 134/221/2 185/271/2
f 185/316/5 134/317/5 132/225/5 190/318/5
f 190/226/6 188/319/6 189/320/6 185/321/6
f 191/322/6 188/323/6 192/324/6
f 193/302/2 133/218/2 194/325/2 191/326/2
f 195/327/6 181/328/6 193/227/6 191/329/6
f 182/330/6 195/331/6 196/332/6
f 75/202/10 118/333/10 115/334/10 57/203/10
f 197/335/1 198/336/1 15/29/1 42/64/1
f 31/111/4 15/32/4 198/337/4 199/338/4
f 199/51/2 198/35/2 197/70/2 200/109/2
f 64/197/6 31/37/6 199/40/6 200/339/6
f 60/102/4 32/57/4 31/111/4 201/340/4
f 201/341/2 31/51/2 64/109/2 202/342/2
f 62/97/6 60/52/6 201/37/6 202/197/6
usemtl aqpipe01
f 7/343/6 8/344/6 5/345/6 6/346/6
f 12/347/2 8/348/2 7/349/2 14/350/2
f 26/351/1 25/352/1 12/353/1 14/354/1
usemtl aqdoor02
f 19/355/5 15/356/5 18/357/5 203/358/5
f 31/359/5 20/360/5 204/361/5 32/362/5
usemtl aqrust03
f 203/363/6 7/343/6 6/346/6 19/364/6
f 20/365/1 26/351/1 14/354/1 204/366/1
f 33/367/2 17/368/2 18/369/2 32/370/2
f 205/371/1 206/372/1 207/373/1 208/374/1
f 209/375/5 205/376/5 208/377/5 210/378/5
f 210/378/6 211/379/6 212/380/6 209/375/6
usemtl aqsupp08
f 213/381/1 214/382/1 215/383/1 19/365/1
usemtl doortrak
f 22/384/2 214/385/2 213/386/2 23/387/2
f 212/388/2 206/389/2 205/390/2 209/391/2
usemtl aqconc03
f 20/392/3 19/393/3 215/394/3 21/395/3
f 210/396/3 208/397/3 207/398/3 211/399/3
f 216/400/3 217/401/3 42/402/3 64/403/3
f 64/403/3 42/402/3 15/404/3 31/405/3
usemtl aqsect04
f 32/362/5 18/357/5 35/406/5 37/407/5
f 45/408/6 35/409/6 18/410/6 46/411/6
f 51/412/4 45/413/4 46/414/4 56/415/4
f 56/416/1 32/417/1 37/418/1 51/419/1
usemtl AQPIPE12
f 46/420/6 18/363/6 15/364/6 42/421/6
f 64/422/1 31/365/1 32/366/1 56/423/1
usemtl aqmetl09
f 37/424/2 35/425/2 45/426/2 51/427/2
usemtl aqsupp05
f 56/428/4 46/429/4 218/430/4 219/431/4
f 219/432/1 216/433/1 64/434/1 56/435/1
f 77/436/6 85/437/6 220/438/6 76/439/6
f 96/440/1 221/441/1 86/442/1 93/443/1
f 99/436/6 102/437/6 222/438/6 98/439/6
f 120/444/6 63/445/6 144/446/6 223/447/6
f 141/448/4 140/449/4 224/450/4 225/451/4
f 226/452/11 142/453/11 144/454/11 227/455/11
f 228/456/5 145/457/5 143/458/5 229/459/5
f 230/460/12 148/461/12 149/462/12 231/463/12
f 129/464/3 151/465/3 146/466/3 128/467/3
f 232/468/13 233/469/13 151/470/13 129/471/13
f 234/472/4 235/473/4 233/474/4 232/475/4
f 140/449/4 120/476/4 223/477/4 224/450/4
f 224/478/14 223/479/14 235/480/14 234/481/14
f 182/482/5 144/483/5 63/484/5 170/485/5
f 163/486/4 141/448/4 225/451/4 236/487/4
f 236/488/14 225/489/14 237/490/14 238/491/14
f 238/492/4 237/493/4 239/494/4 240/495/4
f 240/496/13 239/497/13 132/498/13 190/499/13
f 190/500/3 132/501/3 187/502/3 188/503/3
f 188/504/12 187/505/12 241/506/12 192/507/12
f 191/508/5 194/509/5 242/451/5 195/448/5
f 196/510/11 243/511/11 244/446/11 182/445/11
f 118/440/1 245/441/1 103/442/1 115/443/1
usemtl mywood
f 219/512/2 218/513/2 246/514/2 247/515/2
f 142/516/11 216/517/11 219/518/11 144/519/11
f 248/520/5 249/521/5 217/522/5 216/523/5
f 250/524/12 251/525/12 249/526/12 248/527/12
f 252/528/3 253/529/3 251/530/3 250/531/3
f 254/532/13 255/533/13 253/534/13 252/535/13
f 256/536/4 257/537/4 255/538/4 254/539/4
f 85/540/14 246/541/14 257/542/14 220/543/14
f 83/544/6 82/545/6 77/546/6 76/547/6
f 86/548/2 85/549/2 258/550/2 259/551/2
f 259/552/5 258/553/5 260/545/5 261/554/5
f 90/555/2 80/556/2 81/557/2 92/558/2
f 96/559/1 93/560/1 84/561/1 97/562/1
f 262/563/4 263/561/4 220/564/4 221/565/4
f 102/566/14 86/567/14 221/568/14 222/569/14
f 103/570/2 102/571/2 264/572/2 265/573/2
f 265/574/5 264/575/5 266/576/5 267/577/5
f 109/578/2 105/579/2 104/580/2 111/581/2
f 114/544/6 101/545/6 99/546/6 98/547/6
f 118/559/1 115/560/1 100/561/1 119/562/1
f 268/582/4 269/583/4 222/584/4 245/422/4
f 144/454/2 219/512/2 247/515/2 223/585/2
f 223/479/14 247/586/14 256/587/14 235/480/14
f 235/588/4 256/536/4 254/539/4 233/589/4
f 233/469/13 254/532/13 252/535/13 151/470/13
f 148/590/12 250/591/12 248/592/12 149/593/12
f 149/594/5 248/520/5 216/523/5 142/595/5
f 151/596/3 252/597/3 250/598/3 148/599/3
f 132/501/3 129/464/3 128/467/3 133/600/3
f 239/497/13 232/468/13 129/471/13 132/498/13
f 237/601/4 234/602/4 232/603/4 239/604/4
f 225/489/14 224/478/14 234/481/14 237/490/14
f 227/605/6 229/606/6 226/607/6
f 229/608/6 270/574/6 128/609/6 228/610/6
f 228/611/6 230/612/6 231/613/6
f 158/445/2 154/454/2 153/585/2 160/444/2
f 160/614/4 153/615/4 120/476/4 163/486/4
f 170/485/5 63/484/5 154/616/5 158/617/5
f 153/618/6 154/619/6 63/445/6 120/444/6
f 163/500/1 170/503/1 158/620/1 160/621/1
f 180/486/4 179/476/4 147/477/4 181/487/4
f 181/622/2 147/623/2 144/454/2 182/445/2
f 187/624/1 194/625/1 241/626/1
f 194/627/1 133/628/1 271/629/1 242/630/1
f 243/631/1 242/632/1 244/633/1
f 247/586/14 103/634/14 245/635/14 256/587/14
