# Blender 4.0.2
# www.blender.org
o Torus.001
v 1040.000000 -312.635620 0.000000
v 960.000000 -312.635620 0.000000
v 965.359009 -332.635620 0.000000
v 980.000000 -347.276611 0.000000
v 1000.000000 -352.635620 0.000000
v 1020.000000 -347.276611 0.000000
v 1034.640991 -332.635620 0.000000
v 0.000061 207.364380 1040.000000
v 0.000061 167.364380 960.000000
v 0.000061 150.043884 965.359009
v 0.000061 142.723358 980.000000
v 0.000061 147.364380 1000.000000
v 0.000061 162.723358 1020.000000
v 0.000061 184.684875 1034.640991
v 135.747040 202.915710 1031.102661
v 125.304962 163.257935 951.787109
v 126.004456 145.914520 957.100281
v 127.915497 138.531342 971.615967
v 130.526001 143.086823 991.444885
v 133.136536 158.360260 1011.273804
v 135.047546 180.259155 1025.789551
v 269.171326 189.645874 1004.562988
v 248.465851 151.008820 927.288879
v 249.852844 133.597015 932.465271
v 253.642212 126.027069 946.607422
v 258.818604 130.327332 965.925903
v 263.994965 145.345581 985.244446
v 267.784332 167.057648 999.386536
v 397.990997 167.781677 960.834595
v 367.376312 130.826508 886.924255
v 369.427124 113.302063 891.875366
v 375.029999 105.424286 905.401855
v 382.683655 109.304108 923.879456
v 390.337341 123.901886 942.357056
v 395.940216 145.306152 955.883545
v 519.999939 137.697601 900.666443
v 479.999969 103.056580 831.384399
v 482.679474 85.377106 836.025452
v 489.999969 77.075836 848.704956
v 499.999969 80.377106 866.025452
v 509.999969 94.396332 883.345947
v 517.320435 115.377106 896.025452
v 633.111633 99.908203 825.087646
v 584.410767 68.174072 761.619385
v 587.673096 50.299866 765.870972
v 596.585938 41.466587 777.486450
v 608.761169 44.041138 793.353516
v 620.936401 57.333652 809.220581
v 629.849304 77.782410 820.836060
v 735.390686 55.060123 735.391479
v 678.822144 26.775818 678.822876
v 682.611572 8.670532 682.612305
v 692.964294 -0.794125 692.965027
v 707.106384 0.917969 707.107178
v 721.248535 13.348026 721.249329
v 731.601257 33.165405 731.602051
v 825.087585 3.920258 633.111755
v 761.619324 -20.430176 584.410889
v 765.870911 -38.799011 587.673218
v 777.486389 -48.983608 596.586060
v 793.353455 -48.254974 608.761292
v 809.220520 -36.808376 620.936523
v 820.835999 -17.710907 629.849426
v 900.666321 -52.635559 520.000122
v 831.384338 -72.635559 480.000122
v 836.025330 -91.295807 482.679626
v 848.704834 -102.276581 490.000122
v 866.025330 -102.635559 500.000122
v 883.345825 -92.276581 510.000122
v 896.025330 -73.975311 517.320618
v 960.834534 -113.640030 397.991180
v 886.924194 -128.947388 367.376465
v 891.875305 -147.921982 369.427277
v 905.401794 -159.761566 375.030151
v 923.879395 -161.293716 382.683807
v 942.356995 -152.107895 390.337494
v 955.883484 -134.665436 395.940369
v 1004.562927 -178.049850 269.171539
v 927.288818 -188.402618 248.466003
v 932.465271 -207.709106 249.853027
v 946.607361 -220.455444 253.642395
v 965.925842 -223.226227 258.818787
v 985.244385 -215.279068 263.995148
v 999.386475 -198.743362 267.784515
v 1031.102661 -244.762009 135.747223
v 951.787109 -249.983063 125.305115
v 957.100281 -269.633301 126.004608
v 971.615967 -283.318787 127.915649
v 991.444885 -287.372528 130.526184
v 1011.273804 -280.708282 133.136688
v 1025.789551 -265.111755 135.047729
vn 0.0721 0.2948 0.9528
vn 0.0585 0.8929 0.4464
vn 0.0171 0.9740 -0.2260
vn -0.0139 0.7930 -0.6090
vn -0.0363 0.5543 -0.8315
vn -0.0562 0.2296 -0.9717
vn 0.2145 0.2940 0.9314
vn 0.1734 0.8869 0.4283
vn 0.0509 0.9719 -0.2300
vn -0.0416 0.7942 -0.6063
vn -0.1087 0.5558 -0.8242
vn -0.1678 0.2300 -0.9586
vn 0.3515 0.2924 0.8893
vn 0.2819 0.8753 0.3930
vn 0.0835 0.9677 -0.2378
vn -0.0687 0.7965 -0.6008
vn -0.1800 0.5587 -0.8096
vn -0.2774 0.2308 -0.9326
vn 0.4799 0.2901 0.8280
vn 0.3807 0.8589 0.3425
vn 0.1142 0.9617 -0.2492
vn -0.0950 0.7999 -0.5926
vn -0.2496 0.5632 -0.7877
vn -0.3836 0.2319 -0.8939
vn 0.5966 0.2871 0.7494
vn 0.4671 0.8389 0.2796
vn 0.1423 0.9540 -0.2640
vn -0.1200 0.8044 -0.5818
vn -0.3169 0.5691 -0.7588
vn -0.4851 0.2335 -0.8427
vn 0.6996 0.2837 0.6559
vn 0.5394 0.8163 0.2069
vn 0.1673 0.9448 -0.2817
vn -0.1434 0.8100 -0.5686
vn -0.3810 0.5766 -0.7227
vn -0.5804 0.2354 -0.7795
vn 0.7868 0.2798 0.5501
vn 0.5969 0.7922 0.1274
vn 0.1887 0.9345 -0.3018
vn -0.1649 0.8167 -0.5530
vn -0.4413 0.5857 -0.6799
vn -0.6683 0.2377 -0.7049
vn 0.8572 0.2757 0.4349
vn 0.6395 0.7675 0.0436
vn 0.2062 0.9233 -0.3239
vn -0.1841 0.8244 -0.5352
vn -0.4970 0.5964 -0.6303
vn -0.7473 0.2403 -0.6195
vn 0.9101 0.2713 0.3132
vn 0.6679 0.7431 -0.0422
vn 0.2195 0.9116 -0.3475
vn -0.2006 0.8331 -0.5155
vn -0.5472 0.6089 -0.5743
vn -0.8161 0.2433 -0.5241
vn 0.9453 0.2669 0.1874
vn 0.6827 0.7194 -0.1280
vn 0.2287 0.8996 -0.3721
vn -0.2143 0.8426 -0.4940
vn -0.5912 0.6230 -0.5122
vn -0.8735 0.2466 -0.4198
vn 0.9630 0.2625 0.0603
vn 0.6850 0.6969 -0.2122
vn 0.2337 0.8875 -0.3972
vn -0.2246 0.8530 -0.4712
vn -0.6280 0.6389 -0.4444
vn -0.9180 0.2503 -0.3077
vn 0.9638 0.2583 -0.0660
vn 0.6759 0.6759 -0.2937
vn 0.2346 0.8755 -0.4224
vn -0.2315 0.8640 -0.4472
vn -0.6566 0.6566 -0.3713
vn -0.9485 0.2541 -0.1892
vt 0.250000 0.000000
vt 0.250000 0.083333
vt 0.270833 0.083333
vt 0.270833 0.000000
vt 0.250000 0.166667
vt 0.270833 0.166667
vt 0.250000 0.250000
vt 0.270833 0.250000
vt 0.250000 0.333333
vt 0.270833 0.333333
vt 0.250000 0.416667
vt 0.270833 0.416667
vt 0.250000 0.500000
vt 0.270833 0.500000
vt 0.291667 0.083333
vt 0.291667 0.000000
vt 0.291667 0.166667
vt 0.291667 0.250000
vt 0.291667 0.333333
vt 0.291667 0.416667
vt 0.291667 0.500000
vt 0.312500 0.083333
vt 0.312500 0.000000
vt 0.312500 0.166667
vt 0.312500 0.250000
vt 0.312500 0.333333
vt 0.312500 0.416667
vt 0.312500 0.500000
vt 0.333333 0.083333
vt 0.333333 0.000000
vt 0.333333 0.166667
vt 0.333333 0.250000
vt 0.333333 0.333333
vt 0.333333 0.416667
vt 0.333333 0.500000
vt 0.354167 0.083333
vt 0.354167 0.000000
vt 0.354167 0.166667
vt 0.354167 0.250000
vt 0.354167 0.333333
vt 0.354167 0.416667
vt 0.354167 0.500000
vt 0.375000 0.083333
vt 0.375000 0.000000
vt 0.375000 0.166667
vt 0.375000 0.250000
vt 0.375000 0.333333
vt 0.375000 0.416667
vt 0.375000 0.500000
vt 0.395833 0.083333
vt 0.395833 0.000000
vt 0.395833 0.166667
vt 0.395833 0.250000
vt 0.395833 0.333333
vt 0.395833 0.416667
vt 0.395833 0.500000
vt 0.416667 0.083333
vt 0.416667 0.000000
vt 0.416667 0.166667
vt 0.416667 0.250000
vt 0.416667 0.333333
vt 0.416667 0.416667
vt 0.416667 0.500000
vt 0.437500 0.083333
vt 0.437500 0.000000
vt 0.437500 0.166667
vt 0.437500 0.250000
vt 0.437500 0.333333
vt 0.437500 0.416667
vt 0.437500 0.500000
vt 0.458333 0.083333
vt 0.458333 0.000000
vt 0.458333 0.166667
vt 0.458333 0.250000
vt 0.458333 0.333333
vt 0.458333 0.416667
vt 0.458333 0.500000
vt 0.479167 0.083333
vt 0.479167 0.000000
vt 0.479167 0.166667
vt 0.479167 0.250000
vt 0.479167 0.333333
vt 0.479167 0.416667
vt 0.479167 0.500000
vt 0.500000 0.083333
vt 0.500000 0.000000
vt 0.500000 0.166667
vt 0.500000 0.250000
vt 0.500000 0.333333
vt 0.500000 0.416667
vt 0.500000 0.500000
s 0
f 9/1/1 10/2/1 17/3/1 16/4/1
f 10/2/2 11/5/2 18/6/2 17/3/2
f 11/5/3 12/7/3 19/8/3 18/6/3
f 12/7/4 13/9/4 20/10/4 19/8/4
f 13/9/5 14/11/5 21/12/5 20/10/5
f 14/11/6 8/13/6 15/14/6 21/12/6
f 16/4/7 17/3/7 24/15/7 23/16/7
f 17/3/8 18/6/8 25/17/8 24/15/8
f 18/6/9 19/8/9 26/18/9 25/17/9
f 19/8/10 20/10/10 27/19/10 26/18/10
f 20/10/11 21/12/11 28/20/11 27/19/11
f 21/12/12 15/14/12 22/21/12 28/20/12
f 23/16/13 24/15/13 31/22/13 30/23/13
f 24/15/14 25/17/14 32/24/14 31/22/14
f 25/17/15 26/18/15 33/25/15 32/24/15
f 26/18/16 27/19/16 34/26/16 33/25/16
f 27/19/17 28/20/17 35/27/17 34/26/17
f 28/20/18 22/21/18 29/28/18 35/27/18
f 30/23/19 31/22/19 38/29/19 37/30/19
f 31/22/20 32/24/20 39/31/20 38/29/20
f 32/24/21 33/25/21 40/32/21 39/31/21
f 33/25/22 34/26/22 41/33/22 40/32/22
f 34/26/23 35/27/23 42/34/23 41/33/23
f 35/27/24 29/28/24 36/35/24 42/34/24
f 37/30/25 38/29/25 45/36/25 44/37/25
f 38/29/26 39/31/26 46/38/26 45/36/26
f 39/31/27 40/32/27 47/39/27 46/38/27
f 40/32/28 41/33/28 48/40/28 47/39/28
f 41/33/29 42/34/29 49/41/29 48/40/29
f 42/34/30 36/35/30 43/42/30 49/41/30
f 44/37/31 45/36/31 52/43/31 51/44/31
f 45/36/32 46/38/32 53/45/32 52/43/32
f 46/38/33 47/39/33 54/46/33 53/45/33
f 47/39/34 48/40/34 55/47/34 54/46/34
f 48/40/35 49/41/35 56/48/35 55/47/35
f 49/41/36 43/42/36 50/49/36 56/48/36
f 51/44/37 52/43/37 59/50/37 58/51/37
f 52/43/38 53/45/38 60/52/38 59/50/38
f 53/45/39 54/46/39 61/53/39 60/52/39
f 54/46/40 55/47/40 62/54/40 61/53/40
f 55/47/41 56/48/41 63/55/41 62/54/41
f 56/48/42 50/49/42 57/56/42 63/55/42
f 58/51/43 59/50/43 66/57/43 65/58/43
f 59/50/44 60/52/44 67/59/44 66/57/44
f 60/52/45 61/53/45 68/60/45 67/59/45
f 61/53/46 62/54/46 69/61/46 68/60/46
f 62/54/47 63/55/47 70/62/47 69/61/47
f 63/55/48 57/56/48 64/63/48 70/62/48
f 65/58/49 66/57/49 73/64/49 72/65/49
f 66/57/50 67/59/50 74/66/50 73/64/50
f 67/59/51 68/60/51 75/67/51 74/66/51
f 68/60/52 69/61/52 76/68/52 75/67/52
f 69/61/53 70/62/53 77/69/53 76/68/53
f 70/62/54 64/63/54 71/70/54 77/69/54
f 72/65/55 73/64/55 80/71/55 79/72/55
f 73/64/56 74/66/56 81/73/56 80/71/56
f 74/66/57 75/67/57 82/74/57 81/73/57
f 75/67/58 76/68/58 83/75/58 82/74/58
f 76/68/59 77/69/59 84/76/59 83/75/59
f 77/69/60 71/70/60 78/77/60 84/76/60
f 79/72/61 80/71/61 87/78/61 86/79/61
f 80/71/62 81/73/62 88/80/62 87/78/62
f 81/73/63 82/74/63 89/81/63 88/80/63
f 82/74/64 83/75/64 90/82/64 89/81/64
f 83/75/65 84/76/65 91/83/65 90/82/65
f 84/76/66 78/77/66 85/84/66 91/83/66
f 86/79/67 87/78/67 3/85/67 2/86/67
f 87/78/68 88/80/68 4/87/68 3/85/68
f 88/80/69 89/81/69 5/88/69 4/87/69
f 89/81/70 90/82/70 6/89/70 5/88/70
f 90/82/71 91/83/71 7/90/71 6/89/71
f 91/83/72 85/84/72 1/91/72 7/90/72
