# Blender v2.83.4 OBJ File: 'threshold_switch.blend'
# www.blender.org
o Cylinder
v 0.000000 0.000000 -1.000000
v 0.000000 1.000000 -0.891761
v 0.707107 0.000000 -0.707107
v 0.630570 1.000000 -0.630570
v 1.000000 0.000000 0.000000
v 0.891761 1.000000 0.000000
v 0.707107 0.000000 0.707107
v 0.630570 1.000000 0.630570
v -0.000000 0.000000 1.000000
v -0.000000 1.000000 0.891761
v -0.707107 0.000000 0.707107
v -0.630570 1.000000 0.630570
v -1.000000 0.000000 -0.000000
v -0.891761 1.000000 -0.000000
v -0.707107 0.000000 -0.707107
v -0.630570 1.000000 -0.630570
v 0.707107 1.000000 -0.707107
v 0.000000 1.000000 -1.000000
v 1.000000 1.000000 0.000000
v 0.707107 1.000000 0.707107
v -0.000000 1.000000 1.000000
v -0.707107 1.000000 0.707107
v -1.000000 1.000000 -0.000000
v -0.707107 1.000000 -0.707107
v 0.630570 0.250000 -0.630570
v 0.000000 0.250000 -0.891761
v 0.891761 0.250000 0.000000
v 0.630570 0.250000 0.630570
v -0.000000 0.250000 0.891761
v -0.630570 0.250000 0.630570
v -0.891761 0.250000 -0.000000
v -0.630570 0.250000 -0.630570
vt 1.000000 0.500000
vt 1.000000 1.000000
vt 0.875000 1.000000
vt 0.875000 0.500000
vt 0.750000 1.000000
vt 0.750000 0.500000
vt 0.625000 1.000000
vt 0.625000 0.500000
vt 0.500000 1.000000
vt 0.500000 0.500000
vt 0.375000 1.000000
vt 0.375000 0.500000
vt 0.250000 1.000000
vt 0.250000 0.500000
vt 0.250000 0.464023
vt 0.098663 0.401337
vt 0.098663 0.401337
vt 0.250000 0.464023
vt 0.125000 1.000000
vt 0.125000 0.500000
vt 0.000000 1.000000
vt 0.000000 0.500000
vt 0.750000 0.490000
vt 0.919706 0.419706
vt 0.990000 0.250000
vt 0.919706 0.080294
vt 0.750000 0.010000
vt 0.580294 0.080294
vt 0.510000 0.250000
vt 0.580294 0.419706
vt 0.401337 0.401337
vt 0.419706 0.419706
vt 0.250000 0.490000
vt 0.464023 0.250000
vt 0.490000 0.250000
vt 0.401337 0.098663
vt 0.419706 0.080294
vt 0.250000 0.035977
vt 0.250000 0.010000
vt 0.098663 0.098663
vt 0.080294 0.080294
vt 0.035977 0.250000
vt 0.010000 0.250000
vt 0.080294 0.419706
vt 0.401337 0.401337
vt 0.035977 0.250000
vt 0.098663 0.098663
vt 0.250000 0.035977
vt 0.401337 0.098663
vt 0.464023 0.250000
vn 0.3827 0.0000 -0.9239
vn 0.9239 0.0000 -0.3827
vn 0.9239 0.0000 0.3827
vn 0.3827 0.0000 0.9239
vn -0.3827 0.0000 0.9239
vn -0.9239 0.0000 0.3827
vn -0.9239 0.0000 -0.3827
vn -0.3827 0.0000 -0.9239
vn 0.0000 -1.0000 0.0000
vn 0.0000 1.0000 0.0000
s off
f 1/1/1 18/2/1 17/3/1 3/4/1
f 3/4/2 17/3/2 19/5/2 5/6/2
f 5/6/3 19/5/3 20/7/3 7/8/3
f 7/8/4 20/7/4 21/9/4 9/10/4
f 9/10/5 21/9/5 22/11/5 11/12/5
f 11/12/6 22/11/6 23/13/6 13/14/6
f 2/15/4 16/16/4 32/17/4 26/18/4
f 13/14/7 23/13/7 24/19/7 15/20/7
f 15/20/8 24/19/8 18/21/8 1/22/8
f 1/23/9 3/24/9 5/25/9 7/26/9 9/27/9 11/28/9 13/29/9 15/30/9
f 2/15/10 4/31/10 17/32/10 18/33/10
f 4/31/10 6/34/10 19/35/10 17/32/10
f 6/34/10 8/36/10 20/37/10 19/35/10
f 8/36/10 10/38/10 21/39/10 20/37/10
f 10/38/10 12/40/10 22/41/10 21/39/10
f 12/40/10 14/42/10 23/43/10 22/41/10
f 14/42/10 16/16/10 24/44/10 23/43/10
f 16/16/10 2/15/10 18/33/10 24/44/10
f 25/45/10 26/18/10 32/17/10 31/46/10 30/47/10 29/48/10 28/49/10 27/50/10
f 14/42/2 12/40/2 30/47/2 31/46/2
f 10/38/8 8/36/8 28/49/8 29/48/8
f 6/34/6 4/31/6 25/45/6 27/50/6
f 16/16/3 14/42/3 31/46/3 32/17/3
f 12/40/1 10/38/1 29/48/1 30/47/1
f 8/36/7 6/34/7 27/50/7 28/49/7
f 4/31/5 2/15/5 26/18/5 25/45/5
