# Blender v2.83.4 OBJ File: 'arena_meshes.blend'
# www.blender.org
o point_frustum_Cube
v 1.000000 1.000000 -2.000000
v 1.000000 -1.000000 -2.000000
v 0.000000 0.000000 0.000000
v -1.000000 1.000000 -2.000000
v -1.000000 -1.000000 -2.000000
v 1.100000 1.100000 -2.000000
v 1.100000 -1.100000 -2.000000
v 0.000000 0.000000 0.100000
v -1.100000 1.100000 -2.000000
v -1.100000 -1.100000 -2.000000
vt 0.002002 0.398999
vt 0.398999 0.002002
vt 0.398999 0.398999
vt 0.798999 0.402002
vt 0.402002 0.798999
vt 0.798999 0.798999
vt 0.797998 0.401001
vt 0.401001 0.797998
vt 0.401001 0.401001
vt 0.397998 0.001001
vt 0.001001 0.397998
vt 0.001001 0.001001
vt 0.402002 0.398999
vt 0.798999 0.398999
vt 0.798999 0.002002
vt 0.398999 0.402002
vt 0.002002 0.798999
vt 0.398999 0.798999
vt 0.397998 0.401001
vt 0.001001 0.401001
vt 0.001001 0.797998
vt 0.797998 0.001001
vt 0.401001 0.001001
vt 0.401001 0.397998
vt 0.998999 0.401001
vt 0.801001 0.401001
vt 0.801001 0.798999
vt 0.998999 0.798999
vt 0.798999 0.998999
vt 0.798999 0.801001
vt 0.401001 0.801001
vt 0.401001 0.998999
vt 0.998999 0.001001
vt 0.801001 0.001001
vt 0.801001 0.398999
vt 0.998999 0.398999
vt 0.398999 0.998999
vt 0.398999 0.801001
vt 0.001001 0.801001
vt 0.001001 0.998999
vn 0.0000 -0.8944 -0.4472
vn 0.8944 0.0000 -0.4472
vn 0.0000 0.8944 -0.4472
vn -0.8944 0.0000 -0.4472
vn 0.0000 0.8858 0.4640
vn -0.8858 0.0000 0.4640
vn 0.0000 -0.8858 0.4640
vn 0.8858 0.0000 0.4640
vn 0.0000 0.0000 -1.0000
s off
f 1/1/1 3/2/1 4/3/1
f 3/4/2 5/5/2 4/6/2
f 5/7/3 3/8/3 2/9/3
f 2/10/4 3/11/4 1/12/4
f 6/13/5 9/14/5 8/15/5
f 8/16/6 9/17/6 10/18/6
f 10/19/7 7/20/7 8/21/7
f 7/22/8 6/23/8 8/24/8
f 4/25/9 9/26/9 6/27/9 1/28/9
f 5/29/9 10/30/9 9/31/9 4/32/9
f 2/33/9 7/34/9 10/35/9 5/36/9
f 1/37/9 6/38/9 7/39/9 2/40/9
