# vertices
v 0 0.5 -1
v 0 0.5 1
v 0 1.5 1
v 0 1.5 -1
v 0.5 1.5 1
v 1 0.5 1
v 1 0.5 -1
v 0.5 1.5 -1
v 0 0 -1
v 0 0 1
v 0 0.5 1
v 0 0.5 -1
v 1 0.5 1
v 2 0 1
v 2 0 -1
v 1 0.5 -1
v 0 1.5 -1
v 0 1.5 1
v 0 2.5 1
v 0 2.5 -1
v 0.5 2.5 1
v 0.5 1.5 1
v 0.5 1.5 -1
v 0.5 2.5 -1

# texture coordinates
vt -32 16
vt 32 16
vt 32 48
vt -32 48
vt 16 48
vt 0 48
vt 0 16
vt -32 -32
vt 0 -32
vt 0 32
vt -32 32
vt -16 32
vt -16 -32
vt -16 48
vt 32 -48
vt -32 -48
vt -32 -16
vt 32 -16
vt -32 -0
vt 32 -0
vt 0 -0
vt 64 -0
vt -64 -32
vt -64 32
vt 32 32
vt 32 -32
vt -64 -0
vt -32 64
vt 32 64
vt 32 80
vt -32 80
vt 16 80
vt 0 80
vt -16 80
vt 32 -80
vt -32 -80

# face normals
vn -1 0 0
vn 0 -0 1
vn 0 -1 -0
vn -0 1 -0
vn 0 0 -1
vn 0.89442719099991586 0.44721359549995793 -0
vn 0.44721359549995793 0.89442719099991586 -0
vn 1 0 0

# objects
o world
usemtl test_textures/32x32_grey_block
f 1/1/1 2/2/1 3/3/1 4/4/1
f 5/5/2 3/6/2 2/7/2 6/2/2
f 6/8/3 2/9/3 1/10/3 7/11/3
f 8/12/4 4/10/4 3/9/4 5/13/4
f 7/1/5 1/7/5 4/6/5 8/14/5
f 8/15/6 5/16/6 6/17/6 7/18/6
f 9/19/1 10/20/1 11/2/1 12/1/1
f 13/2/2 11/7/2 10/21/2 14/22/2
f 14/23/3 10/9/3 9/10/3 15/24/3
f 16/25/4 12/10/4 11/9/4 13/26/4
f 15/27/5 9/21/5 12/7/5 16/1/5
f 16/25/7 13/11/7 14/28/7 15/29/7
f 17/4/1 18/3/1 19/30/1 20/31/1
f 21/32/2 19/33/2 18/6/2 22/5/2
f 22/13/3 18/9/3 17/10/3 23/12/3
f 24/12/4 20/10/4 19/9/4 21/13/4
f 23/14/5 17/6/5 20/33/5 24/34/5
f 24/35/8 21/36/8 22/16/8 23/15/8

