# vertices
v -2.5 -2.5 -1
v -2.5 -2.5 1
v -2.5 -2 1
v -2.5 -2 -1
v 2.5 -2 1
v 2.5 -2.5 1
v 2.5 -2.5 -1
v 2.5 -2 -1
v -2.5 -2 -1
v -2.5 -2 1
v -2.5 -1.5 1
v -2.5 -1.5 -1
v -1.5 -1.5 1
v -0.5 -2 1
v -0.5 -2 -1
v -1.5 -1.5 -1
v -2.5 -1.5 -1
v -2.5 -1.5 1
v -2.5 -0.5 1
v -2.5 -0.5 -1
v -2 -0.5 1
v -1.5 -1.5 1
v -1.5 -1.5 -1
v -2 -0.5 -1
v -2.5 -0.5 -1
v -2.5 -0.5 1
v -2.5 0.5 1
v -2.5 0.5 -1
v -2 0.5 1
v -2 -0.5 1
v -2 -0.5 -1
v -2 0.5 -1
v -2.5 0.5 -1
v -2.5 0.5 1
v -2.5 1.5 1
v -2.5 1.5 -1
v -1.5 1.5 1
v -2 0.5 1
v -2 0.5 -1
v -1.5 1.5 -1
v -2.5 1.5 -1
v -2.5 1.5 1
v -2.5 2 1
v -2.5 2 -1
v -0.5 2 1
v -1.5 1.5 1
v -1.5 1.5 -1
v -0.5 2 -1
v -2.5 2 -1
v -2.5 2 1
v -2.5 2.5 1
v -2.5 2.5 -1
v 2.5 2.5 1
v 2.5 2 1
v 2.5 2 -1
v 2.5 2.5 -1
v 1.5 1.5 -1
v 1.5 1.5 1
v 0.5 2 1
v 0.5 2 -1
v 2.5 2 1
v 2.5 1.5 1
v 2.5 1.5 -1
v 2.5 2 -1
v 2 0.5 -1
v 2 0.5 1
v 1.5 1.5 1
v 1.5 1.5 -1
v 2.5 1.5 1
v 2.5 0.5 1
v 2.5 0.5 -1
v 2.5 1.5 -1
v 2 -0.5 -1
v 2 -0.5 1
v 2 0.5 1
v 2 0.5 -1
v 2.5 0.5 1
v 2.5 -0.5 1
v 2.5 -0.5 -1
v 2.5 0.5 -1
v 1.5 -1.5 -1
v 1.5 -1.5 1
v 2 -0.5 1
v 2 -0.5 -1
v 2.5 -0.5 1
v 2.5 -1.5 1
v 2.5 -1.5 -1
v 2.5 -0.5 -1
v 0.5 -2 -1
v 0.5 -2 1
v 1.5 -1.5 1
v 1.5 -1.5 -1
v 2.5 -1.5 1
v 2.5 -2 1
v 2.5 -2 -1
v 2.5 -1.5 -1
v -2.5 -2.5 1
v -2.5 -2.5 3
v -2.5 -2 3
v -2.5 -2 1
v 0.5 -2 3
v 2.5 -2.5 3
v 2.5 -2.5 1
v 0.5 -2 1
v -2.5 -2 1
v -2.5 -2 3
v -2.5 -1.5 3
v -2.5 -1.5 1
v -1.5 -1.5 3
v -0.5 -2 3
v -0.5 -2 1
v -1.5 -1.5 1
v -2.5 -1.5 1
v -2.5 -1.5 3
v -2.5 -0.5 3
v -2.5 -0.5 1
v -2 -0.5 3
v -1.5 -1.5 3
v -1.5 -1.5 1
v -2 -0.5 1
v -2.5 -0.5 1
v -2.5 -0.5 3
v -2.5 0.5 3
v -2.5 0.5 1
v -2 0.5 3
v -2 -0.5 3
v -2 -0.5 1
v -2 0.5 1
v -2.5 0.5 1
v -2.5 0.5 3
v -2.5 1.5 3
v -2.5 1.5 1
v -1.5 1.5 3
v -2 0.5 3
v -2 0.5 1
v -1.5 1.5 1
v -2.5 1.5 1
v -2.5 1.5 3
v -2.5 2 3
v -2.5 2 1
v -0.5 2 3
v -1.5 1.5 3
v -1.5 1.5 1
v -0.5 2 1
v -2.5 2 1
v -2.5 2 3
v -2.5 2.5 3
v -2.5 2.5 1
v 2.5 2.5 3
v 2.5 2 3
v 2.5 2 1
v 2.5 2.5 1
v -2.5 -2.5 -3
v -2.5 -2.5 -1
v -0.5 -2 -1
v -0.5 -2 -3
v 2.5 -2 -1
v 2.5 -2.5 -1
v 2.5 -2.5 -3
v 2.5 -2 -3
v 0.5 -2 -3
v 0.5 -2 -1
v 1.5 -1.5 -1
v 1.5 -1.5 -3
v 2.5 -1.5 -1
v 2.5 -2 -1
v 2.5 -2 -3
v 2.5 -1.5 -3
v 1.5 -1.5 -3
v 1.5 -1.5 -1
v 2 -0.5 -1
v 2 -0.5 -3
v 2.5 -0.5 -1
v 2.5 -1.5 -1
v 2.5 -1.5 -3
v 2.5 -0.5 -3
v 2 -0.5 -3
v 2 -0.5 -1
v 2 0.5 -1
v 2 0.5 -3
v 2.5 0.5 -1
v 2.5 -0.5 -1
v 2.5 -0.5 -3
v 2.5 0.5 -3
v 2 0.5 -3
v 2 0.5 -1
v 1.5 1.5 -1
v 1.5 1.5 -3
v 2.5 1.5 -1
v 2.5 0.5 -1
v 2.5 0.5 -3
v 2.5 1.5 -3
v 1.5 1.5 -3
v 1.5 1.5 -1
v 0.5 2 -1
v 0.5 2 -3
v 2.5 2 -1
v 2.5 1.5 -1
v 2.5 1.5 -3
v 2.5 2 -3
v -2.5 2 -3
v -2.5 2 -1
v -2.5 2.5 -1
v -2.5 2.5 -3
v 2.5 2.5 -1
v 2.5 2 -1
v 2.5 2 -3
v 2.5 2.5 -3

# texture coordinates
vt -32 -80
vt 32 -80
vt 32 -64
vt -32 -64
vt 80 -64
vt -80 -64
vt -80 -80
vt 80 -80
vt -80 -32
vt 80 -32
vt 80 32
vt -80 32
vt 32 64
vt -32 64
vt -32 80
vt 32 80
vt 32 -48
vt -32 -48
vt -48 -48
vt -80 -48
vt -16 -64
vt 16 -32
vt 16 32
vt -48 32
vt -48 -32
vt 16 -64
vt 80 -48
vt 48 -48
vt -32 -16
vt 32 -16
vt -64 -16
vt -80 -16
vt 48 -32
vt 48 32
vt 64 32
vt 64 -32
vt 80 -16
vt 64 -16
vt 32 16
vt -32 16
vt -32 48
vt 32 48
vt -64 16
vt -80 16
vt -64 32
vt -64 -32
vt 80 16
vt 64 16
vt -48 48
vt -80 48
vt 80 48
vt 48 48
vt -16 64
vt -80 64
vt -16 32
vt -16 -32
vt 80 64
vt 16 64
vt 80 80
vt -80 80
vt 96 -80
vt 96 -64
vt -80 -96
vt 80 -96
vt 16 -96
vt -96 16
vt -96 80
vt 96 -48
vt -48 -96
vt -96 -48
vt -96 -16
vt 96 -16
vt 48 -96
vt 64 -96
vt -96 48
vt 96 16
vt -64 -96
vt 96 48
vt 96 64
vt -16 -96
vt 96 80
vt -96 -80
vt -96 -64
vt 80 96
vt -80 96
vt -16 96
vt 48 96
vt -48 96
vt 64 96
vt -64 96
vt 16 96
vt -96 64

# face normals
vn -1 0 0
vn 0 0 1
vn 0 -1 -0
vn -0 1 -0
vn 0 -0 -1
vn 1 0 0
vn 0.44721359549995793 0.89442719099991586 -0
vn 0.89442719099991586 0.44721359549995793 -0
vn 0.89442719099991586 -0.44721359549995793 -0
vn 0.44721359549995793 -0.89442719099991586 -0
vn -0.44721359549995793 -0.89442719099991586 -0
vn -0.89442719099991586 -0.44721359549995793 -0
vn -0.89442719099991586 0.44721359549995793 -0
vn -0.44721359549995793 0.89442719099991586 -0
vn 0.24253562503633297 0.97014250014533188 -0
vn -0.24253562503633297 0.97014250014533188 -0

# objects
o world
usemtl test_textures/32x32_grey_block
f 1/1/1 2/2/1 3/3/1 4/4/1
f 5/5/2 3/6/2 2/7/2 6/8/2
f 6/9/3 2/10/3 1/11/3 7/12/3
f 8/11/4 4/12/4 3/9/4 5/10/4
f 7/7/5 1/8/5 4/5/5 8/6/5
f 8/13/6 5/14/6 6/15/6 7/16/6
f 9/4/1 10/3/1 11/17/1 12/18/1
f 13/19/2 11/20/2 10/6/2 14/21/2
f 14/22/3 10/10/3 9/11/3 15/23/3
f 16/24/4 12/12/4 11/9/4 13/25/4
f 15/26/5 9/5/5 12/27/5 16/28/5
f 16/17/7 13/18/7 14/29/7 15/30/7
f 17/18/1 18/17/1 19/30/1 20/29/1
f 21/31/2 19/32/2 18/20/2 22/19/2
f 22/33/3 18/10/3 17/11/3 23/34/3
f 24/35/4 20/11/4 19/10/4 21/36/4
f 23/28/5 17/27/5 20/37/5 24/38/5
f 24/39/8 21/40/8 22/41/8 23/42/8
f 25/29/1 26/30/1 27/39/1 28/40/1
f 29/43/2 27/44/2 26/32/2 30/31/2
f 30/36/3 26/10/3 25/11/3 31/35/3
f 32/45/4 28/12/4 27/9/4 29/46/4
f 31/38/5 25/37/5 28/47/5 32/48/5
f 32/30/6 29/29/6 30/40/6 31/39/6
f 33/40/1 34/39/1 35/42/1 36/41/1
f 37/49/2 35/50/2 34/44/2 38/43/2
f 38/36/3 34/10/3 33/11/3 39/35/3
f 40/24/4 36/12/4 35/9/4 37/25/4
f 39/48/5 33/47/5 36/51/5 40/52/5
f 40/17/9 37/18/9 38/29/9 39/30/9
f 41/41/1 42/42/1 43/13/1 44/14/1
f 45/53/2 43/54/2 42/50/2 46/49/2
f 46/33/3 42/10/3 41/11/3 47/34/3
f 48/55/4 44/12/4 43/9/4 45/56/4
f 47/52/5 41/51/5 44/57/5 48/58/5
f 48/39/10 45/40/10 46/41/10 47/42/10
f 49/14/1 50/13/1 51/16/1 52/15/1
f 53/59/2 51/60/2 50/54/2 54/57/2
f 54/9/3 50/10/3 49/11/3 55/12/3
f 56/11/4 52/12/4 51/9/4 53/10/4
f 55/54/5 49/57/5 52/59/5 56/60/5
f 56/2/6 53/1/6 54/4/6 55/3/6
f 57/41/11 58/42/11 59/39/11 60/40/11
f 61/57/2 59/58/2 58/52/2 62/51/2
f 62/9/3 58/25/3 57/24/3 63/12/3
f 64/11/4 60/23/4 59/22/4 61/10/4
f 63/50/5 57/49/5 60/53/5 64/54/5
f 64/3/6 61/4/6 62/18/6 63/17/6
f 65/40/12 66/39/12 67/42/12 68/41/12
f 69/51/2 67/52/2 66/48/2 70/47/2
f 70/9/3 66/46/3 65/45/3 71/12/3
f 72/11/4 68/34/4 67/33/4 69/10/4
f 71/44/5 65/43/5 68/49/5 72/50/5
f 72/17/6 69/18/6 70/29/6 71/30/6
f 73/29/1 74/30/1 75/39/1 76/40/1
f 77/47/2 75/48/2 74/38/2 78/37/2
f 78/9/3 74/46/3 73/45/3 79/12/3
f 80/11/4 76/35/4 75/36/4 77/10/4
f 79/32/5 73/31/5 76/43/5 80/44/5
f 80/30/6 77/29/6 78/40/6 79/39/6
f 81/18/13 82/17/13 83/30/13 84/29/13
f 85/37/2 83/38/2 82/28/2 86/27/2
f 86/9/3 82/25/3 81/24/3 87/12/3
f 88/11/4 84/35/4 83/36/4 85/10/4
f 87/20/5 81/19/5 84/31/5 88/32/5
f 88/39/6 85/40/6 86/41/6 87/42/6
f 89/29/14 90/30/14 91/17/14 92/18/14
f 93/27/2 91/28/2 90/26/2 94/5/2
f 94/9/3 90/56/3 89/55/3 95/12/3
f 96/11/4 92/34/4 91/33/4 93/10/4
f 95/6/5 89/21/5 92/19/5 96/20/5
f 96/42/6 93/41/6 94/14/6 95/13/6
f 97/2/1 98/61/1 99/62/1 100/3/1
f 101/26/2 99/6/2 98/7/2 102/8/2
f 102/63/3 98/64/3 97/10/3 103/9/3
f 104/22/4 100/9/4 99/63/4 101/65/4
f 103/7/5 97/8/5 100/5/5 104/21/5
f 104/40/15 101/66/15 102/67/15 103/15/15
f 105/3/1 106/62/1 107/68/1 108/17/1
f 109/19/2 107/20/2 106/6/2 110/21/2
f 110/65/3 106/64/3 105/10/3 111/22/3
f 112/25/4 108/9/4 107/63/4 109/69/4
f 111/26/5 105/5/5 108/27/5 112/28/5
f 112/18/7 109/70/7 110/71/7 111/29/7
f 113/17/1 114/68/1 115/72/1 116/30/1
f 117/31/2 115/32/2 114/20/2 118/19/2
f 118/73/3 114/64/3 113/10/3 119/33/3
f 120/36/4 116/10/4 115/64/4 117/74/4
f 119/28/5 113/27/5 116/37/5 120/38/5
f 120/40/8 117/66/8 118/75/8 119/41/8
f 121/30/1 122/72/1 123/76/1 124/39/1
f 125/43/2 123/44/2 122/32/2 126/31/2
f 126/74/3 122/64/3 121/10/3 127/36/3
f 128/46/4 124/9/4 123/63/4 125/77/4
f 127/38/5 121/37/5 124/47/5 128/48/5
f 128/29/6 125/71/6 126/66/6 127/40/6
f 129/39/1 130/76/1 131/78/1 132/42/1
f 133/49/2 131/50/2 130/44/2 134/43/2
f 134/74/3 130/64/3 129/10/3 135/36/3
f 136/25/4 132/9/4 131/63/4 133/69/4
f 135/48/5 129/47/5 132/51/5 136/52/5
f 136/18/9 133/70/9 134/71/9 135/29/9
f 137/42/1 138/78/1 139/79/1 140/13/1
f 141/53/2 139/54/2 138/50/2 142/49/2
f 142/73/3 138/64/3 137/10/3 143/33/3
f 144/56/4 140/9/4 139/63/4 141/80/4
f 143/52/5 137/51/5 140/57/5 144/58/5
f 144/40/10 141/66/10 142/75/10 143/41/10
f 145/13/1 146/79/1 147/81/1 148/16/1
f 149/59/2 147/60/2 146/54/2 150/57/2
f 150/63/3 146/64/3 145/10/3 151/9/3
f 152/10/4 148/9/4 147/63/4 149/64/4
f 151/54/5 145/57/5 148/59/5 152/60/5
f 152/1/6 149/82/6 150/83/6 151/4/6
f 153/67/16 154/15/16 155/40/16 156/66/16
f 157/5/2 155/21/2 154/7/2 158/8/2
f 158/12/3 154/11/3 153/84/3 159/85/3
f 160/84/4 156/86/4 155/55/4 157/11/4
f 159/7/5 153/8/5 156/26/5 160/6/5
f 160/79/6 157/13/6 158/16/6 159/81/6
f 161/71/14 162/29/14 163/18/14 164/70/14
f 165/27/2 163/28/2 162/26/2 166/5/2
f 166/12/3 162/55/3 161/86/3 167/85/3
f 168/84/4 164/87/4 163/34/4 165/11/4
f 167/6/5 161/21/5 164/19/5 168/20/5
f 168/78/6 165/42/6 166/13/6 167/79/6
f 169/70/13 170/18/13 171/29/13 172/71/13
f 173/37/2 171/38/2 170/28/2 174/27/2
f 174/12/3 170/24/3 169/88/3 175/85/3
f 176/84/4 172/89/4 171/35/4 173/11/4
f 175/20/5 169/19/5 172/31/5 176/32/5
f 176/76/6 173/39/6 174/42/6 175/78/6
f 177/71/1 178/29/1 179/40/1 180/66/1
f 181/47/2 179/48/2 178/38/2 182/37/2
f 182/12/3 178/45/3 177/90/3 183/85/3
f 184/84/4 180/89/4 179/35/4 181/11/4
f 183/32/5 177/31/5 180/43/5 184/44/5
f 184/72/6 181/30/6 182/39/6 183/76/6
f 185/66/12 186/40/12 187/41/12 188/75/12
f 189/51/2 187/52/2 186/48/2 190/47/2
f 190/12/3 186/45/3 185/90/3 191/85/3
f 192/84/4 188/87/4 187/34/4 189/11/4
f 191/44/5 185/43/5 188/49/5 192/50/5
f 192/68/6 189/17/6 190/30/6 191/72/6
f 193/75/11 194/41/11 195/40/11 196/66/11
f 197/57/2 195/58/2 194/52/2 198/51/2
f 198/12/3 194/24/3 193/88/3 199/85/3
f 200/84/4 196/91/4 195/23/4 197/11/4
f 199/50/5 193/49/5 196/53/5 200/54/5
f 200/62/6 197/3/6 198/17/6 199/68/6
f 201/92/1 202/14/1 203/15/1 204/67/1
f 205/59/2 203/60/2 202/54/2 206/57/2
f 206/12/3 202/11/3 201/84/3 207/85/3
f 208/84/4 204/85/4 203/12/4 205/11/4
f 207/54/5 201/57/5 204/59/5 208/60/5
f 208/61/6 205/2/6 206/3/6 207/62/6

