# Blender 4.0.2
# www.blender.org
mtllib track_twist_90.mtl
o Cube.002
v 4.000000 0.000000 0.000000
v 4.000000 -0.200000 0.000000
v -0.000000 4.000000 16.000000
v 0.200000 4.000000 16.000000
v 0.000000 0.000000 0.000000
v 0.000000 -0.200000 0.000000
v 0.000000 0.000000 16.000000
v 0.200000 0.000000 16.000000
v 0.141421 -0.141421 8.000000
v 2.828427 2.828427 8.000000
v 0.000000 0.000000 8.000000
v 2.969848 2.687006 8.000000
v 0.000000 0.000000 4.000000
v 3.772055 1.345958 4.000000
v 0.076537 -0.184776 4.000000
v 3.695518 1.530734 4.000000
v 0.184776 -0.076537 12.000000
v 1.530734 3.695518 12.000000
v 0.000000 0.000000 12.000000
v 1.715510 3.618981 12.000000
v 0.000000 0.000000 2.011062
v 3.961522 0.588507 2.011062
v 0.039231 -0.196115 2.011062
v 3.922291 0.784621 2.011062
v 0.058161 -0.191357 3.005531
v 3.827130 1.163217 3.005531
v 0.000000 0.000000 3.005531
v 3.885291 0.971861 3.005531
v 0.000000 0.000000 1.005531
v 4.000237 0.195204 1.005531
v 0.019712 -0.199026 1.005531
v 3.980525 0.394230 1.005531
v 0.111114 -0.166294 6.000000
v 3.325878 2.222281 6.000000
v 0.000000 0.000000 6.000000
v 3.436992 2.055987 6.000000
v 0.000000 0.000000 5.000000
v 3.621964 1.709203 5.000000
v 0.094279 -0.176384 5.000000
v 3.527685 1.885587 5.000000
v 0.126879 -0.154602 7.000000
v 3.092042 2.537573 7.000000
v 0.000000 0.000000 7.000000
v 3.218920 2.382971 7.000000
v 0.000000 0.000000 10.000000
v 2.388575 3.214765 10.000000
v 0.166294 -0.111114 10.000000
v 2.222281 3.325879 10.000000
v 0.000000 0.000000 9.000000
v 2.692175 2.965163 9.000000
v 0.154602 -0.126879 9.000000
v 2.537573 3.092042 9.000000
v 0.176384 -0.094279 11.000000
v 1.885587 3.527685 11.000000
v 0.000000 0.000000 11.000000
v 2.061971 3.433406 11.000000
v 0.196157 -0.039018 14.000000
v 0.780361 3.923141 14.000000
v 0.000000 0.000000 14.000000
v 0.976518 3.884123 14.000000
v 0.000000 0.000000 13.000000
v 1.352527 3.769705 13.000000
v 0.191388 -0.058057 13.000000
v 1.161139 3.827761 13.000000
v 0.199037 -0.019603 15.000000
v 0.392069 3.980739 15.000000
v 0.000000 0.000000 15.000000
v 0.591105 3.961135 15.000000
vn -0.9801 0.0481 -0.1926
vn -0.0000 -0.0000 1.0000
vn -0.9987 -0.0493 0.0098
vn 0.9801 -0.0481 0.1926
vn 0.0491 0.9987 -0.0098
vn -0.0000 -0.0000 -1.0000
vn 0.7409 0.6715 -0.0098
vn 0.6590 -0.7271 0.1926
vn -0.6715 -0.7409 0.0098
vn -0.6590 0.7271 -0.1926
vn -0.3308 0.9238 -0.1926
vn 0.3308 -0.9238 0.1926
vn 0.9414 0.3371 -0.0098
vn -0.9039 -0.4275 0.0098
vn -0.3369 -0.9415 0.0098
vn 0.4275 0.9039 -0.0098
vn 0.8871 -0.4196 0.1926
vn -0.8871 0.4196 -0.1926
vn 0.9890 0.1475 -0.0098
vn 0.1448 -0.9705 0.1926
vn -0.1448 0.9705 -0.1926
vn -0.9698 -0.2438 0.0098
vn -0.9414 -0.3371 0.0098
vn 0.9698 0.2438 -0.0098
vn 0.2392 -0.9517 0.1926
vn -0.2392 0.9517 -0.1926
vn -0.0484 0.9801 -0.1926
vn 0.0484 -0.9801 0.1926
vn 0.9987 0.0493 -0.0098
vn -0.9890 -0.1475 0.0098
vn -0.8032 -0.5957 0.0098
vn -0.5045 0.8417 -0.1926
vn 0.5045 -0.8417 0.1926
vn 0.8577 0.5141 -0.0098
vn 0.9039 0.4275 -0.0098
vn 0.4196 -0.8871 0.1926
vn -0.4196 0.8871 -0.1926
vn -0.8577 -0.5141 0.0098
vn -0.7409 -0.6715 0.0098
vn -0.5845 0.7882 -0.1926
vn 0.5845 -0.7882 0.1926
vn 0.8032 0.5957 -0.0098
vn -0.7882 0.5845 -0.1926
vn 0.7882 -0.5845 0.1926
vn 0.5957 0.8032 -0.0098
vn -0.5141 -0.8577 0.0098
vn 0.6715 0.7409 -0.0098
vn 0.7271 -0.6590 0.1926
vn -0.7271 0.6590 -0.1926
vn -0.5957 -0.8032 0.0098
vn -0.4275 -0.9039 0.0098
vn -0.8417 0.5045 -0.1926
vn 0.8417 -0.5045 0.1926
vn 0.5141 0.8577 -0.0098
vn -0.1467 -0.9891 0.0098
vn 0.2430 0.9700 -0.0098
vn 0.9519 -0.2384 0.1926
vn -0.9519 0.2384 -0.1926
vn -0.9239 0.3306 -0.1926
vn 0.9239 -0.3306 0.1926
vn 0.3369 0.9415 -0.0098
vn -0.2430 -0.9700 0.0098
vn -0.0491 -0.9987 0.0098
vn 0.1467 0.9891 -0.0098
vn 0.9707 -0.1440 0.1926
vn -0.9707 0.1440 -0.1926
vt 0.625000 0.734375
vt 0.875000 0.734375
vt 0.875000 0.750000
vt 0.625000 0.750000
vt 0.375000 0.750000
vt 0.625000 1.000000
vt 0.375000 1.000000
vt 0.375000 0.234289
vt 0.625000 0.234289
vt 0.625000 0.250000
vt 0.375000 0.250000
vt 0.125000 0.734375
vt 0.375000 0.734375
vt 0.125000 0.750000
vt 0.625000 0.500000
vt 0.375000 0.500000
vt 0.375000 0.609375
vt 0.625000 0.609375
vt 0.625000 0.625000
vt 0.375000 0.625000
vt 0.125000 0.609375
vt 0.125000 0.625000
vt 0.375000 0.109375
vt 0.625000 0.109375
vt 0.625000 0.125000
vt 0.375000 0.125000
vt 0.875000 0.609375
vt 0.875000 0.625000
vt 0.625000 0.546961
vt 0.875000 0.546961
vt 0.875000 0.562500
vt 0.625000 0.562500
vt 0.125000 0.546961
vt 0.375000 0.546961
vt 0.375000 0.562500
vt 0.125000 0.562500
vt 0.375000 0.171875
vt 0.625000 0.171875
vt 0.625000 0.187500
vt 0.375000 0.187500
vt 0.375000 0.046875
vt 0.625000 0.046875
vt 0.625000 0.062500
vt 0.375000 0.062500
vt 0.375000 0.671875
vt 0.625000 0.671875
vt 0.625000 0.687500
vt 0.375000 0.687500
vt 0.125000 0.671875
vt 0.125000 0.687500
vt 0.875000 0.671875
vt 0.875000 0.687500
vt 0.375000 0.515711
vt 0.625000 0.515711
vt 0.625000 0.531423
vt 0.375000 0.531423
vt 0.125000 0.515711
vt 0.125000 0.531423
vt 0.875000 0.515711
vt 0.875000 0.531423
vt 0.375000 0.203039
vt 0.625000 0.203039
vt 0.625000 0.218577
vt 0.375000 0.218577
vt 0.875000 0.500000
vt 0.125000 0.500000
vt 0.375000 0.140625
vt 0.625000 0.140625
vt 0.625000 0.156250
vt 0.375000 0.156250
vt 0.625000 0.578125
vt 0.875000 0.578125
vt 0.875000 0.593750
vt 0.625000 0.593750
vt 0.125000 0.578125
vt 0.375000 0.578125
vt 0.375000 0.593750
vt 0.125000 0.593750
vt 0.625000 0.640625
vt 0.875000 0.640625
vt 0.875000 0.656250
vt 0.625000 0.656250
vt 0.125000 0.640625
vt 0.375000 0.640625
vt 0.375000 0.656250
vt 0.125000 0.656250
vt 0.375000 0.078125
vt 0.625000 0.078125
vt 0.625000 0.093750
vt 0.375000 0.093750
vt 0.375000 0.015625
vt 0.625000 0.015625
vt 0.625000 0.031250
vt 0.375000 0.031250
vt 0.375000 0.703125
vt 0.625000 0.703125
vt 0.625000 0.718750
vt 0.375000 0.718750
vt 0.125000 0.703125
vt 0.125000 0.718750
vt 0.875000 0.703125
vt 0.875000 0.718750
vt 0.375000 0.000000
vt 0.625000 0.000000
s 0
usemtl Material
f 66/1/1 67/2/1 7/3/1 3/4/1
f 4/5/2 3/4/2 7/6/2 8/7/2
f 31/8/3 29/9/3 5/10/3 6/11/3
f 65/12/4 68/13/4 4/5/4 8/14/4
f 68/13/5 66/1/5 3/4/5 4/5/5
f 6/11/6 5/10/6 1/15/6 2/16/6
f 44/17/7 42/18/7 10/19/7 12/20/7
f 41/21/8 44/17/8 12/20/8 9/22/8
f 51/23/9 49/24/9 11/25/9 9/26/9
f 42/18/10 43/27/10 11/28/10 10/19/10
f 26/29/11 27/30/11 13/31/11 16/32/11
f 25/33/12 28/34/12 14/35/12 15/36/12
f 28/34/13 26/29/13 16/32/13 14/35/13
f 39/37/14 37/38/14 13/39/14 15/40/14
f 63/41/15 61/42/15 19/43/15 17/44/15
f 56/45/16 54/46/16 18/47/16 20/48/16
f 53/49/17 56/45/17 20/48/17 17/50/17
f 54/46/18 55/51/18 19/52/18 18/47/18
f 30/53/19 32/54/19 24/55/19 22/56/19
f 31/57/20 30/53/20 22/56/20 23/58/20
f 32/54/21 29/59/21 21/60/21 24/55/21
f 25/61/22 27/62/22 21/63/22 23/64/22
f 15/40/23 13/39/23 27/62/23 25/61/23
f 22/56/24 24/55/24 26/29/24 28/34/24
f 23/58/25 22/56/25 28/34/25 25/33/25
f 24/55/26 21/60/26 27/30/26 26/29/26
f 1/15/27 5/65/27 29/59/27 32/54/27
f 6/66/28 2/16/28 30/53/28 31/57/28
f 2/16/29 1/15/29 32/54/29 30/53/29
f 23/64/30 21/63/30 29/9/30 31/8/30
f 41/67/31 43/68/31 35/69/31 33/70/31
f 40/71/32 37/72/32 35/73/32 34/74/32
f 39/75/33 38/76/33 36/77/33 33/78/33
f 38/76/34 40/71/34 34/74/34 36/77/34
f 14/35/35 16/32/35 40/71/35 38/76/35
f 15/36/36 14/35/36 38/76/36 39/75/36
f 16/32/37 13/31/37 37/72/37 40/71/37
f 33/70/38 35/69/38 37/38/38 39/37/38
f 9/26/39 11/25/39 43/68/39 41/67/39
f 34/74/40 35/73/40 43/27/40 42/18/40
f 33/78/41 36/77/41 44/17/41 41/21/41
f 36/77/42 34/74/42 42/18/42 44/17/42
f 52/79/43 49/80/43 45/81/43 48/82/43
f 51/83/44 50/84/44 46/85/44 47/86/44
f 50/84/45 52/79/45 48/82/45 46/85/45
f 53/87/46 55/88/46 45/89/46 47/90/46
f 12/20/47 10/19/47 52/79/47 50/84/47
f 9/22/48 12/20/48 50/84/48 51/83/48
f 10/19/49 11/28/49 49/80/49 52/79/49
f 47/90/50 45/89/50 49/24/50 51/23/50
f 17/44/51 19/43/51 55/88/51 53/87/51
f 48/82/52 45/81/52 55/51/52 54/46/52
f 47/86/53 46/85/53 56/45/53 53/49/53
f 46/85/54 48/82/54 54/46/54 56/45/54
f 65/91/55 67/92/55 59/93/55 57/94/55
f 62/95/56 64/96/56 58/97/56 60/98/56
f 63/99/57 62/95/57 60/98/57 57/100/57
f 64/96/58 61/101/58 59/102/58 58/97/58
f 18/47/59 19/52/59 61/101/59 64/96/59
f 17/50/60 20/48/60 62/95/60 63/99/60
f 20/48/61 18/47/61 64/96/61 62/95/61
f 57/94/62 59/93/62 61/42/62 63/41/62
f 8/103/63 7/104/63 67/92/63 65/91/63
f 60/98/64 58/97/64 66/1/64 68/13/64
f 57/100/65 60/98/65 68/13/65 65/12/65
f 58/97/66 59/102/66 67/2/66 66/1/66
