{
    "asset" : {
        "generator" : "Khronos glTF Blender I/O v1.2.75",
        "version" : "2.0"
    },
    "scene" : 0,
    "scenes" : [
        {
            "name" : "Scene",
            "nodes" : [
                0,
                1,
                2,
                3,
                4,
                5,
                6,
                7,
                8,
                9
            ]
        }
    ],
    "nodes" : [
        {
            "mesh" : 0,
            "name" : "Cube.001"
        },
        {
            "mesh" : 1,
            "name" : "Cube"
        },
        {
            "name" : "Light",
            "rotation" : [
                0.16907575726509094,
                0.7558803558349609,
                -0.27217137813568115,
                0.570947527885437
            ],
            "translation" : [
                5.076245307922363,
                5.903861999511719,
                -4.850228786468506
            ]
        },
        {
            "mesh" : 2,
            "name" : "wall_crack"
        },
        {
            "mesh" : 3,
            "name" : "wall_smashed"
        },
        {
            "name" : "Sun",
            "rotation" : [
                -0.2243420034646988,
                0.9515226483345032,
                0.15130756795406342,
                0.1462237387895584
            ],
            "translation" : [
                0,
                16.74834442138672,
                -22.691682815551758
            ]
        },
        {
            "name" : "Light.001",
            "rotation" : [
                0.16907575726509094,
                0.7558803558349609,
                -0.27217137813568115,
                0.570947527885437
            ],
            "translation" : [
                32.880619049072266,
                2.9038619995117188,
                -1.8502287864685059
            ]
        },
        {
            "name" : "Spot",
            "translation" : [
                10.070013046264648,
                7.101533889770508,
                -15.03525447845459
            ]
        },
        {
            "name" : "Spot.001",
            "translation" : [
                -0.8137617111206055,
                7.101533889770508,
                -15.03525447845459
            ]
        },
        {
            "name" : "Light.002",
            "rotation" : [
                0.16907575726509094,
                0.7558803558349609,
                -0.27217137813568115,
                0.570947527885437
            ],
            "translation" : [
                18.076244354248047,
                1.9038619995117188,
                2.149771213531494
            ]
        }
    ],
    "materials" : [
        {
            "emissiveFactor" : [
                0,
                0,
                0
            ],
            "name" : "wall",
            "pbrMetallicRoughness" : {
                "baseColorTexture" : {
                    "index" : 0,
                    "texCoord" : 0
                },
                "metallicFactor" : 0,
                "roughnessFactor" : 1
            }
        },
        {
            "emissiveFactor" : [
                0,
                0,
                0
            ],
            "name" : "floor",
            "pbrMetallicRoughness" : {
                "baseColorTexture" : {
                    "index" : 1,
                    "texCoord" : 0
                },
                "metallicFactor" : 0.48636364936828613,
                "roughnessFactor" : 0.5
            }
        },
        {
            "emissiveFactor" : [
                0,
                0,
                0
            ],
            "name" : "ceiling",
            "pbrMetallicRoughness" : {
                "baseColorTexture" : {
                    "index" : 2,
                    "texCoord" : 0
                },
                "metallicFactor" : 0,
                "roughnessFactor" : 0.5
            }
        },
        {
            "emissiveFactor" : [
                0,
                0,
                0
            ],
            "name" : "Material.001",
            "pbrMetallicRoughness" : {
                "baseColorFactor" : [
                    1,
                    0.17558437585830688,
                    0.012664321810007095,
                    1
                ],
                "metallicFactor" : 0,
                "roughnessFactor" : 0.5
            }
        },
        {
            "doubleSided" : true,
            "emissiveFactor" : [
                0,
                0,
                0
            ],
            "name" : "Material.002",
            "pbrMetallicRoughness" : {
                "baseColorFactor" : [
                    0.24619480967521667,
                    0.24619480967521667,
                    0.24619480967521667,
                    1
                ],
                "metallicFactor" : 0,
                "roughnessFactor" : 0.5
            }
        },
        {
            "doubleSided" : true,
            "emissiveFactor" : [
                0,
                0,
                0
            ],
            "name" : "Material.003",
            "pbrMetallicRoughness" : {
                "baseColorFactor" : [
                    0,
                    0.16885243356227875,
                    0.6382718682289124,
                    1
                ],
                "metallicFactor" : 0,
                "roughnessFactor" : 0.5
            }
        },
        {
            "emissiveFactor" : [
                0,
                0,
                0
            ],
            "name" : "Material.005",
            "pbrMetallicRoughness" : {
                "baseColorFactor" : [
                    0.06372088193893433,
                    0.06372088193893433,
                    0.06372088193893433,
                    1
                ],
                "metallicFactor" : 0,
                "roughnessFactor" : 0.5
            }
        },
        {
            "emissiveFactor" : [
                0,
                0,
                0
            ],
            "name" : "Material.004",
            "pbrMetallicRoughness" : {
                "baseColorFactor" : [
                    1,
                    0.17558437585830688,
                    0.012664321810007095,
                    1
                ],
                "metallicFactor" : 0,
                "roughnessFactor" : 0.5
            }
        },
        {
            "emissiveFactor" : [
                0,
                0,
                0
            ],
            "name" : "Material.006",
            "pbrMetallicRoughness" : {
                "baseColorFactor" : [
                    0.12823939323425293,
                    0.12823939323425293,
                    0.12823939323425293,
                    1
                ],
                "metallicFactor" : 0,
                "roughnessFactor" : 0.5
            }
        }
    ],
    "meshes" : [
        {
            "name" : "Cube.001",
            "primitives" : [
                {
                    "attributes" : {
                        "POSITION" : 0,
                        "NORMAL" : 1,
                        "TEXCOORD_0" : 2
                    },
                    "indices" : 3,
                    "material" : 0
                },
                {
                    "attributes" : {
                        "POSITION" : 4,
                        "NORMAL" : 5,
                        "TEXCOORD_0" : 6
                    },
                    "indices" : 7,
                    "material" : 1
                },
                {
                    "attributes" : {
                        "POSITION" : 8,
                        "NORMAL" : 9,
                        "TEXCOORD_0" : 10
                    },
                    "indices" : 11,
                    "material" : 2
                }
            ]
        },
        {
            "name" : "Cube",
            "primitives" : [
                {
                    "attributes" : {
                        "POSITION" : 12,
                        "NORMAL" : 13,
                        "TEXCOORD_0" : 14
                    },
                    "indices" : 15,
                    "material" : 3
                },
                {
                    "attributes" : {
                        "POSITION" : 16,
                        "NORMAL" : 17,
                        "TEXCOORD_0" : 18
                    },
                    "indices" : 19,
                    "material" : 4
                },
                {
                    "attributes" : {
                        "POSITION" : 20,
                        "NORMAL" : 21,
                        "TEXCOORD_0" : 22
                    },
                    "indices" : 19,
                    "material" : 5
                }
            ]
        },
        {
            "name" : "Cube.002",
            "primitives" : [
                {
                    "attributes" : {
                        "POSITION" : 23,
                        "NORMAL" : 24,
                        "TEXCOORD_0" : 25
                    },
                    "indices" : 26,
                    "material" : 3
                },
                {
                    "attributes" : {
                        "POSITION" : 27,
                        "NORMAL" : 28,
                        "TEXCOORD_0" : 29
                    },
                    "indices" : 30,
                    "material" : 6
                }
            ]
        },
        {
            "name" : "Cube.003",
            "primitives" : [
                {
                    "attributes" : {
                        "POSITION" : 31,
                        "NORMAL" : 32,
                        "TEXCOORD_0" : 33
                    },
                    "indices" : 34,
                    "material" : 7
                },
                {
                    "attributes" : {
                        "POSITION" : 35,
                        "NORMAL" : 36,
                        "TEXCOORD_0" : 37
                    },
                    "indices" : 38,
                    "material" : 8
                }
            ]
        }
    ],
    "textures" : [
        {
            "sampler" : 0,
            "source" : 0
        },
        {
            "sampler" : 1,
            "source" : 1
        },
        {
            "source" : 2
        }
    ],
    "images" : [
        {
            "bufferView" : 4,
            "mimeType" : "image/png",
            "name" : "32x32_orange_block"
        },
        {
            "bufferView" : 9,
            "mimeType" : "image/png",
            "name" : "32x32_grey_block"
        },
        {
            "bufferView" : 14,
            "mimeType" : "image/png",
            "name" : "32x32_blue_block"
        }
    ],
    "accessors" : [
        {
            "bufferView" : 0,
            "componentType" : 5126,
            "count" : 316,
            "max" : [
                54,
                12,
                9
            ],
            "min" : [
                -7,
                -10,
                -30
            ],
            "type" : "VEC3"
        },
        {
            "bufferView" : 1,
            "componentType" : 5126,
            "count" : 316,
            "type" : "VEC3"
        },
        {
            "bufferView" : 2,
            "componentType" : 5126,
            "count" : 316,
            "type" : "VEC2"
        },
        {
            "bufferView" : 3,
            "componentType" : 5123,
            "count" : 864,
            "type" : "SCALAR"
        },
        {
            "bufferView" : 5,
            "componentType" : 5126,
            "count" : 87,
            "max" : [
                54,
                8,
                9
            ],
            "min" : [
                -7,
                -10,
                -30
            ],
            "type" : "VEC3"
        },
        {
            "bufferView" : 6,
            "componentType" : 5126,
            "count" : 87,
            "type" : "VEC3"
        },
        {
            "bufferView" : 7,
            "componentType" : 5126,
            "count" : 87,
            "type" : "VEC2"
        },
        {
            "bufferView" : 8,
            "componentType" : 5123,
            "count" : 225,
            "type" : "SCALAR"
        },
        {
            "bufferView" : 10,
            "componentType" : 5126,
            "count" : 29,
            "max" : [
                40,
                7,
                4
            ],
            "min" : [
                0,
                4,
                -14
            ],
            "type" : "VEC3"
        },
        {
            "bufferView" : 11,
            "componentType" : 5126,
            "count" : 29,
            "type" : "VEC3"
        },
        {
            "bufferView" : 12,
            "componentType" : 5126,
            "count" : 29,
            "type" : "VEC2"
        },
        {
            "bufferView" : 13,
            "componentType" : 5123,
            "count" : 57,
            "type" : "SCALAR"
        },
        {
            "bufferView" : 15,
            "componentType" : 5126,
            "count" : 16,
            "max" : [
                1,
                1,
                1
            ],
            "min" : [
                0,
                0,
                0
            ],
            "type" : "VEC3"
        },
        {
            "bufferView" : 16,
            "componentType" : 5126,
            "count" : 16,
            "type" : "VEC3"
        },
        {
            "bufferView" : 17,
            "componentType" : 5126,
            "count" : 16,
            "type" : "VEC2"
        },
        {
            "bufferView" : 18,
            "componentType" : 5123,
            "count" : 24,
            "type" : "SCALAR"
        },
        {
            "bufferView" : 19,
            "componentType" : 5126,
            "count" : 4,
            "max" : [
                1,
                1,
                1
            ],
            "min" : [
                0,
                1,
                0
            ],
            "type" : "VEC3"
        },
        {
            "bufferView" : 20,
            "componentType" : 5126,
            "count" : 4,
            "type" : "VEC3"
        },
        {
            "bufferView" : 21,
            "componentType" : 5126,
            "count" : 4,
            "type" : "VEC2"
        },
        {
            "bufferView" : 22,
            "componentType" : 5123,
            "count" : 6,
            "type" : "SCALAR"
        },
        {
            "bufferView" : 23,
            "componentType" : 5126,
            "count" : 4,
            "max" : [
                1,
                0,
                1
            ],
            "min" : [
                0,
                0,
                0
            ],
            "type" : "VEC3"
        },
        {
            "bufferView" : 24,
            "componentType" : 5126,
            "count" : 4,
            "type" : "VEC3"
        },
        {
            "bufferView" : 25,
            "componentType" : 5126,
            "count" : 4,
            "type" : "VEC2"
        },
        {
            "bufferView" : 26,
            "componentType" : 5126,
            "count" : 172,
            "max" : [
                1,
                4,
                4
            ],
            "min" : [
                -1.862645149230957e-09,
                0,
                0
            ],
            "type" : "VEC3"
        },
        {
            "bufferView" : 27,
            "componentType" : 5126,
            "count" : 172,
            "type" : "VEC3"
        },
        {
            "bufferView" : 28,
            "componentType" : 5126,
            "count" : 172,
            "type" : "VEC2"
        },
        {
            "bufferView" : 29,
            "componentType" : 5123,
            "count" : 192,
            "type" : "SCALAR"
        },
        {
            "bufferView" : 30,
            "componentType" : 5126,
            "count" : 36,
            "max" : [
                1,
                3,
                2.1048386096954346
            ],
            "min" : [
                -1.862645149230957e-09,
                0.5671129822731018,
                1.7015403509140015
            ],
            "type" : "VEC3"
        },
        {
            "bufferView" : 31,
            "componentType" : 5126,
            "count" : 36,
            "type" : "VEC3"
        },
        {
            "bufferView" : 32,
            "componentType" : 5126,
            "count" : 36,
            "type" : "VEC2"
        },
        {
            "bufferView" : 33,
            "componentType" : 5123,
            "count" : 48,
            "type" : "SCALAR"
        },
        {
            "bufferView" : 34,
            "componentType" : 5126,
            "count" : 184,
            "max" : [
                1,
                4,
                4
            ],
            "min" : [
                -1.862645149230957e-09,
                0,
                0
            ],
            "type" : "VEC3"
        },
        {
            "bufferView" : 35,
            "componentType" : 5126,
            "count" : 184,
            "type" : "VEC3"
        },
        {
            "bufferView" : 36,
            "componentType" : 5126,
            "count" : 184,
            "type" : "VEC2"
        },
        {
            "bufferView" : 37,
            "componentType" : 5123,
            "count" : 192,
            "type" : "SCALAR"
        },
        {
            "bufferView" : 38,
            "componentType" : 5126,
            "count" : 40,
            "max" : [
                1,
                3.5841445922851562,
                3.7212724685668945
            ],
            "min" : [
                -1.862645149230957e-09,
                0.07151943445205688,
                0.3144114017486572
            ],
            "type" : "VEC3"
        },
        {
            "bufferView" : 39,
            "componentType" : 5126,
            "count" : 40,
            "type" : "VEC3"
        },
        {
            "bufferView" : 40,
            "componentType" : 5126,
            "count" : 40,
            "type" : "VEC2"
        },
        {
            "bufferView" : 41,
            "componentType" : 5123,
            "count" : 48,
            "type" : "SCALAR"
        }
    ],
    "bufferViews" : [
        {
            "buffer" : 0,
            "byteLength" : 3792,
            "byteOffset" : 0
        },
        {
            "buffer" : 0,
            "byteLength" : 3792,
            "byteOffset" : 3792
        },
        {
            "buffer" : 0,
            "byteLength" : 2528,
            "byteOffset" : 7584
        },
        {
            "buffer" : 0,
            "byteLength" : 1728,
            "byteOffset" : 10112
        },
        {
            "buffer" : 0,
            "byteLength" : 2716,
            "byteOffset" : 11840
        },
        {
            "buffer" : 0,
            "byteLength" : 1044,
            "byteOffset" : 14556
        },
        {
            "buffer" : 0,
            "byteLength" : 1044,
            "byteOffset" : 15600
        },
        {
            "buffer" : 0,
            "byteLength" : 696,
            "byteOffset" : 16644
        },
        {
            "buffer" : 0,
            "byteLength" : 450,
            "byteOffset" : 17340
        },
        {
            "buffer" : 0,
            "byteLength" : 701,
            "byteOffset" : 17792
        },
        {
            "buffer" : 0,
            "byteLength" : 348,
            "byteOffset" : 18496
        },
        {
            "buffer" : 0,
            "byteLength" : 348,
            "byteOffset" : 18844
        },
        {
            "buffer" : 0,
            "byteLength" : 232,
            "byteOffset" : 19192
        },
        {
            "buffer" : 0,
            "byteLength" : 114,
            "byteOffset" : 19424
        },
        {
            "buffer" : 0,
            "byteLength" : 2674,
            "byteOffset" : 19540
        },
        {
            "buffer" : 0,
            "byteLength" : 192,
            "byteOffset" : 22216
        },
        {
            "buffer" : 0,
            "byteLength" : 192,
            "byteOffset" : 22408
        },
        {
            "buffer" : 0,
            "byteLength" : 128,
            "byteOffset" : 22600
        },
        {
            "buffer" : 0,
            "byteLength" : 48,
            "byteOffset" : 22728
        },
        {
            "buffer" : 0,
            "byteLength" : 48,
            "byteOffset" : 22776
        },
        {
            "buffer" : 0,
            "byteLength" : 48,
            "byteOffset" : 22824
        },
        {
            "buffer" : 0,
            "byteLength" : 32,
            "byteOffset" : 22872
        },
        {
            "buffer" : 0,
            "byteLength" : 12,
            "byteOffset" : 22904
        },
        {
            "buffer" : 0,
            "byteLength" : 48,
            "byteOffset" : 22916
        },
        {
            "buffer" : 0,
            "byteLength" : 48,
            "byteOffset" : 22964
        },
        {
            "buffer" : 0,
            "byteLength" : 32,
            "byteOffset" : 23012
        },
        {
            "buffer" : 0,
            "byteLength" : 2064,
            "byteOffset" : 23044
        },
        {
            "buffer" : 0,
            "byteLength" : 2064,
            "byteOffset" : 25108
        },
        {
            "buffer" : 0,
            "byteLength" : 1376,
            "byteOffset" : 27172
        },
        {
            "buffer" : 0,
            "byteLength" : 384,
            "byteOffset" : 28548
        },
        {
            "buffer" : 0,
            "byteLength" : 432,
            "byteOffset" : 28932
        },
        {
            "buffer" : 0,
            "byteLength" : 432,
            "byteOffset" : 29364
        },
        {
            "buffer" : 0,
            "byteLength" : 288,
            "byteOffset" : 29796
        },
        {
            "buffer" : 0,
            "byteLength" : 96,
            "byteOffset" : 30084
        },
        {
            "buffer" : 0,
            "byteLength" : 2208,
            "byteOffset" : 30180
        },
        {
            "buffer" : 0,
            "byteLength" : 2208,
            "byteOffset" : 32388
        },
        {
            "buffer" : 0,
            "byteLength" : 1472,
            "byteOffset" : 34596
        },
        {
            "buffer" : 0,
            "byteLength" : 384,
            "byteOffset" : 36068
        },
        {
            "buffer" : 0,
            "byteLength" : 480,
            "byteOffset" : 36452
        },
        {
            "buffer" : 0,
            "byteLength" : 480,
            "byteOffset" : 36932
        },
        {
            "buffer" : 0,
            "byteLength" : 320,
            "byteOffset" : 37412
        },
        {
            "buffer" : 0,
            "byteLength" : 96,
            "byteOffset" : 37732
        }
    ],
    "samplers" : [
        {
            "magFilter" : 9728,
            "minFilter" : 9984
        },
        {
            "magFilter" : 9728,
            "minFilter" : 9984
        }
    ],
    "buffers" : [
        {
            "byteLength" : 37828,
            "uri" : "data:application/octet-stream;base64,"
        }
    ]
}
